%TF.GenerationSoftware,KiCad,Pcbnew,8.0.2*%
%TF.CreationDate,2025-12-20T19:32:13-05:00*%
%TF.ProjectId,robotv2_transmitter,726f626f-7476-4325-9f74-72616e736d69,rev?*%
%TF.SameCoordinates,Original*%
%TF.FileFunction,Drillmap*%
%TF.FilePolarity,Positive*%
%FSLAX45Y45*%
G04 Gerber Fmt 4.5, Leading zero omitted, Abs format (unit mm)*
G04 Created by KiCad (PCBNEW 8.0.2) date 2025-12-20 19:32:13*
%MOMM*%
%LPD*%
G01*
G04 APERTURE LIST*
%ADD10C,0.150000*%
%ADD11C,0.200000*%
%ADD12C,0.100000*%
%ADD13C,0.110000*%
%ADD14C,0.120000*%
G04 APERTURE END LIST*
D10*
X16604000Y-5936000D02*
X16858000Y-6190000D01*
X10000000Y-9923800D02*
X10000000Y-4742200D01*
X16858000Y-6190000D02*
X16858000Y-9619000D01*
X16527800Y-10000000D02*
X10076200Y-10000000D01*
X10076200Y-4666000D02*
X16350000Y-4666000D01*
X10076200Y-10000000D02*
G75*
G02*
X10000000Y-9923800I0J76200D01*
G01*
X16858000Y-9619000D02*
X16604000Y-9873000D01*
X16350000Y-4666000D02*
X16604000Y-4920000D01*
X16604000Y-9923800D02*
G75*
G02*
X16527800Y-10000000I-76200J0D01*
G01*
X16604000Y-4920000D02*
X16604000Y-5936000D01*
X16604000Y-9873000D02*
X16604000Y-9923800D01*
X10000000Y-4742200D02*
G75*
G02*
X10076200Y-4666000I76200J0D01*
G01*
D11*
D12*
X16055000Y-5428500D02*
X16145000Y-5518500D01*
X16145000Y-5428500D02*
X16055000Y-5518500D01*
X16055000Y-5682500D02*
X16145000Y-5772500D01*
X16145000Y-5682500D02*
X16055000Y-5772500D01*
X10800000Y-5390000D02*
G75*
G02*
X10700000Y-5390000I-50000J0D01*
G01*
X10700000Y-5390000D02*
G75*
G02*
X10800000Y-5390000I50000J0D01*
G01*
X10800000Y-5644000D02*
G75*
G02*
X10700000Y-5644000I-50000J0D01*
G01*
X10700000Y-5644000D02*
G75*
G02*
X10800000Y-5644000I50000J0D01*
G01*
X10800000Y-5898000D02*
G75*
G02*
X10700000Y-5898000I-50000J0D01*
G01*
X10700000Y-5898000D02*
G75*
G02*
X10800000Y-5898000I50000J0D01*
G01*
X10800000Y-6152000D02*
G75*
G02*
X10700000Y-6152000I-50000J0D01*
G01*
X10700000Y-6152000D02*
G75*
G02*
X10800000Y-6152000I50000J0D01*
G01*
X10800000Y-6406000D02*
G75*
G02*
X10700000Y-6406000I-50000J0D01*
G01*
X10700000Y-6406000D02*
G75*
G02*
X10800000Y-6406000I50000J0D01*
G01*
X10800000Y-6660000D02*
G75*
G02*
X10700000Y-6660000I-50000J0D01*
G01*
X10700000Y-6660000D02*
G75*
G02*
X10800000Y-6660000I50000J0D01*
G01*
X10800000Y-6914000D02*
G75*
G02*
X10700000Y-6914000I-50000J0D01*
G01*
X10700000Y-6914000D02*
G75*
G02*
X10800000Y-6914000I50000J0D01*
G01*
X10800000Y-7168000D02*
G75*
G02*
X10700000Y-7168000I-50000J0D01*
G01*
X10700000Y-7168000D02*
G75*
G02*
X10800000Y-7168000I50000J0D01*
G01*
X10800000Y-7422000D02*
G75*
G02*
X10700000Y-7422000I-50000J0D01*
G01*
X10700000Y-7422000D02*
G75*
G02*
X10800000Y-7422000I50000J0D01*
G01*
X10800000Y-7676000D02*
G75*
G02*
X10700000Y-7676000I-50000J0D01*
G01*
X10700000Y-7676000D02*
G75*
G02*
X10800000Y-7676000I50000J0D01*
G01*
X10800000Y-7930000D02*
G75*
G02*
X10700000Y-7930000I-50000J0D01*
G01*
X10700000Y-7930000D02*
G75*
G02*
X10800000Y-7930000I50000J0D01*
G01*
X10800000Y-8184000D02*
G75*
G02*
X10700000Y-8184000I-50000J0D01*
G01*
X10700000Y-8184000D02*
G75*
G02*
X10800000Y-8184000I50000J0D01*
G01*
X10800000Y-8438000D02*
G75*
G02*
X10700000Y-8438000I-50000J0D01*
G01*
X10700000Y-8438000D02*
G75*
G02*
X10800000Y-8438000I50000J0D01*
G01*
X10800000Y-8692000D02*
G75*
G02*
X10700000Y-8692000I-50000J0D01*
G01*
X10700000Y-8692000D02*
G75*
G02*
X10800000Y-8692000I50000J0D01*
G01*
X10800000Y-8946000D02*
G75*
G02*
X10700000Y-8946000I-50000J0D01*
G01*
X10700000Y-8946000D02*
G75*
G02*
X10800000Y-8946000I50000J0D01*
G01*
X10800000Y-9200000D02*
G75*
G02*
X10700000Y-9200000I-50000J0D01*
G01*
X10700000Y-9200000D02*
G75*
G02*
X10800000Y-9200000I50000J0D01*
G01*
X11929600Y-4920000D02*
G75*
G02*
X11829600Y-4920000I-50000J0D01*
G01*
X11829600Y-4920000D02*
G75*
G02*
X11929600Y-4920000I50000J0D01*
G01*
X12183600Y-4920000D02*
G75*
G02*
X12083600Y-4920000I-50000J0D01*
G01*
X12083600Y-4920000D02*
G75*
G02*
X12183600Y-4920000I50000J0D01*
G01*
X12437600Y-4920000D02*
G75*
G02*
X12337600Y-4920000I-50000J0D01*
G01*
X12337600Y-4920000D02*
G75*
G02*
X12437600Y-4920000I50000J0D01*
G01*
X12691600Y-4920000D02*
G75*
G02*
X12591600Y-4920000I-50000J0D01*
G01*
X12591600Y-4920000D02*
G75*
G02*
X12691600Y-4920000I50000J0D01*
G01*
X12844000Y-9746000D02*
G75*
G02*
X12744000Y-9746000I-50000J0D01*
G01*
X12744000Y-9746000D02*
G75*
G02*
X12844000Y-9746000I50000J0D01*
G01*
X12945600Y-4920000D02*
G75*
G02*
X12845600Y-4920000I-50000J0D01*
G01*
X12845600Y-4920000D02*
G75*
G02*
X12945600Y-4920000I50000J0D01*
G01*
X13098000Y-9746000D02*
G75*
G02*
X12998000Y-9746000I-50000J0D01*
G01*
X12998000Y-9746000D02*
G75*
G02*
X13098000Y-9746000I50000J0D01*
G01*
X13199600Y-4920000D02*
G75*
G02*
X13099600Y-4920000I-50000J0D01*
G01*
X13099600Y-4920000D02*
G75*
G02*
X13199600Y-4920000I50000J0D01*
G01*
X13352000Y-9746000D02*
G75*
G02*
X13252000Y-9746000I-50000J0D01*
G01*
X13252000Y-9746000D02*
G75*
G02*
X13352000Y-9746000I50000J0D01*
G01*
X13453600Y-4920000D02*
G75*
G02*
X13353600Y-4920000I-50000J0D01*
G01*
X13353600Y-4920000D02*
G75*
G02*
X13453600Y-4920000I50000J0D01*
G01*
X13606000Y-9746000D02*
G75*
G02*
X13506000Y-9746000I-50000J0D01*
G01*
X13506000Y-9746000D02*
G75*
G02*
X13606000Y-9746000I50000J0D01*
G01*
X13707600Y-4920000D02*
G75*
G02*
X13607600Y-4920000I-50000J0D01*
G01*
X13607600Y-4920000D02*
G75*
G02*
X13707600Y-4920000I50000J0D01*
G01*
X13860000Y-9746000D02*
G75*
G02*
X13760000Y-9746000I-50000J0D01*
G01*
X13760000Y-9746000D02*
G75*
G02*
X13860000Y-9746000I50000J0D01*
G01*
X13961600Y-4920000D02*
G75*
G02*
X13861600Y-4920000I-50000J0D01*
G01*
X13861600Y-4920000D02*
G75*
G02*
X13961600Y-4920000I50000J0D01*
G01*
X14114000Y-9746000D02*
G75*
G02*
X14014000Y-9746000I-50000J0D01*
G01*
X14014000Y-9746000D02*
G75*
G02*
X14114000Y-9746000I50000J0D01*
G01*
X14215600Y-4920000D02*
G75*
G02*
X14115600Y-4920000I-50000J0D01*
G01*
X14115600Y-4920000D02*
G75*
G02*
X14215600Y-4920000I50000J0D01*
G01*
X14368000Y-9746000D02*
G75*
G02*
X14268000Y-9746000I-50000J0D01*
G01*
X14268000Y-9746000D02*
G75*
G02*
X14368000Y-9746000I50000J0D01*
G01*
X14622000Y-4920000D02*
G75*
G02*
X14522000Y-4920000I-50000J0D01*
G01*
X14522000Y-4920000D02*
G75*
G02*
X14622000Y-4920000I50000J0D01*
G01*
X14622000Y-9746000D02*
G75*
G02*
X14522000Y-9746000I-50000J0D01*
G01*
X14522000Y-9746000D02*
G75*
G02*
X14622000Y-9746000I50000J0D01*
G01*
X14876000Y-4920000D02*
G75*
G02*
X14776000Y-4920000I-50000J0D01*
G01*
X14776000Y-4920000D02*
G75*
G02*
X14876000Y-4920000I50000J0D01*
G01*
X15130000Y-4920000D02*
G75*
G02*
X15030000Y-4920000I-50000J0D01*
G01*
X15030000Y-4920000D02*
G75*
G02*
X15130000Y-4920000I50000J0D01*
G01*
X15130000Y-9746000D02*
G75*
G02*
X15030000Y-9746000I-50000J0D01*
G01*
X15030000Y-9746000D02*
G75*
G02*
X15130000Y-9746000I50000J0D01*
G01*
X15384000Y-4920000D02*
G75*
G02*
X15284000Y-4920000I-50000J0D01*
G01*
X15284000Y-4920000D02*
G75*
G02*
X15384000Y-4920000I50000J0D01*
G01*
X15384000Y-9746000D02*
G75*
G02*
X15284000Y-9746000I-50000J0D01*
G01*
X15284000Y-9746000D02*
G75*
G02*
X15384000Y-9746000I50000J0D01*
G01*
X15638000Y-4920000D02*
G75*
G02*
X15538000Y-4920000I-50000J0D01*
G01*
X15538000Y-4920000D02*
G75*
G02*
X15638000Y-4920000I50000J0D01*
G01*
X15638000Y-9746000D02*
G75*
G02*
X15538000Y-9746000I-50000J0D01*
G01*
X15538000Y-9746000D02*
G75*
G02*
X15638000Y-9746000I50000J0D01*
G01*
X15892000Y-4920000D02*
G75*
G02*
X15792000Y-4920000I-50000J0D01*
G01*
X15792000Y-4920000D02*
G75*
G02*
X15892000Y-4920000I50000J0D01*
G01*
X15892000Y-9746000D02*
G75*
G02*
X15792000Y-9746000I-50000J0D01*
G01*
X15792000Y-9746000D02*
G75*
G02*
X15892000Y-9746000I50000J0D01*
G01*
X15950000Y-6896000D02*
G75*
G02*
X15850000Y-6896000I-50000J0D01*
G01*
X15850000Y-6896000D02*
G75*
G02*
X15950000Y-6896000I50000J0D01*
G01*
X15950000Y-7150000D02*
G75*
G02*
X15850000Y-7150000I-50000J0D01*
G01*
X15850000Y-7150000D02*
G75*
G02*
X15950000Y-7150000I50000J0D01*
G01*
X15950000Y-7404000D02*
G75*
G02*
X15850000Y-7404000I-50000J0D01*
G01*
X15850000Y-7404000D02*
G75*
G02*
X15950000Y-7404000I50000J0D01*
G01*
X16146000Y-4920000D02*
G75*
G02*
X16046000Y-4920000I-50000J0D01*
G01*
X16046000Y-4920000D02*
G75*
G02*
X16146000Y-4920000I50000J0D01*
G01*
X16146000Y-9746000D02*
G75*
G02*
X16046000Y-9746000I-50000J0D01*
G01*
X16046000Y-9746000D02*
G75*
G02*
X16146000Y-9746000I50000J0D01*
G01*
X16400000Y-4920000D02*
G75*
G02*
X16300000Y-4920000I-50000J0D01*
G01*
X16300000Y-4920000D02*
G75*
G02*
X16400000Y-4920000I50000J0D01*
G01*
X16400000Y-9746000D02*
G75*
G02*
X16300000Y-9746000I-50000J0D01*
G01*
X16300000Y-9746000D02*
G75*
G02*
X16400000Y-9746000I50000J0D01*
G01*
D13*
X15875000Y-8020000D02*
X15875000Y-8130000D01*
X15820000Y-8075000D02*
X15930000Y-8075000D01*
X15875000Y-8470000D02*
X15875000Y-8580000D01*
X15820000Y-8525000D02*
X15930000Y-8525000D01*
X16525000Y-8020000D02*
X16525000Y-8130000D01*
X16470000Y-8075000D02*
X16580000Y-8075000D01*
X16525000Y-8470000D02*
X16525000Y-8580000D01*
X16470000Y-8525000D02*
X16580000Y-8525000D01*
D14*
X12707427Y-8657427D02*
X12707427Y-8572573D01*
X12622573Y-8572573D01*
X12622573Y-8657427D01*
X12707427Y-8657427D01*
X13977427Y-8657427D02*
X13977427Y-8572573D01*
X13892573Y-8572573D01*
X13892573Y-8657427D01*
X13977427Y-8657427D01*
X15007427Y-6142427D02*
X15007427Y-6057573D01*
X14922573Y-6057573D01*
X14922573Y-6142427D01*
X15007427Y-6142427D01*
X16277427Y-6142427D02*
X16277427Y-6057573D01*
X16192573Y-6057573D01*
X16192573Y-6142427D01*
X16277427Y-6142427D01*
D11*
X10253277Y-10318984D02*
X10253277Y-10118984D01*
X10253277Y-10118984D02*
X10300896Y-10118984D01*
X10300896Y-10118984D02*
X10329467Y-10128508D01*
X10329467Y-10128508D02*
X10348515Y-10147555D01*
X10348515Y-10147555D02*
X10358039Y-10166603D01*
X10358039Y-10166603D02*
X10367563Y-10204698D01*
X10367563Y-10204698D02*
X10367563Y-10233270D01*
X10367563Y-10233270D02*
X10358039Y-10271365D01*
X10358039Y-10271365D02*
X10348515Y-10290412D01*
X10348515Y-10290412D02*
X10329467Y-10309460D01*
X10329467Y-10309460D02*
X10300896Y-10318984D01*
X10300896Y-10318984D02*
X10253277Y-10318984D01*
X10453277Y-10318984D02*
X10453277Y-10185650D01*
X10453277Y-10223746D02*
X10462801Y-10204698D01*
X10462801Y-10204698D02*
X10472324Y-10195174D01*
X10472324Y-10195174D02*
X10491372Y-10185650D01*
X10491372Y-10185650D02*
X10510420Y-10185650D01*
X10577086Y-10318984D02*
X10577086Y-10185650D01*
X10577086Y-10118984D02*
X10567563Y-10128508D01*
X10567563Y-10128508D02*
X10577086Y-10138031D01*
X10577086Y-10138031D02*
X10586610Y-10128508D01*
X10586610Y-10128508D02*
X10577086Y-10118984D01*
X10577086Y-10118984D02*
X10577086Y-10138031D01*
X10700896Y-10318984D02*
X10681848Y-10309460D01*
X10681848Y-10309460D02*
X10672324Y-10290412D01*
X10672324Y-10290412D02*
X10672324Y-10118984D01*
X10805658Y-10318984D02*
X10786610Y-10309460D01*
X10786610Y-10309460D02*
X10777086Y-10290412D01*
X10777086Y-10290412D02*
X10777086Y-10118984D01*
X11034229Y-10318984D02*
X11034229Y-10118984D01*
X11034229Y-10118984D02*
X11100896Y-10261841D01*
X11100896Y-10261841D02*
X11167563Y-10118984D01*
X11167563Y-10118984D02*
X11167563Y-10318984D01*
X11348515Y-10318984D02*
X11348515Y-10214222D01*
X11348515Y-10214222D02*
X11338991Y-10195174D01*
X11338991Y-10195174D02*
X11319943Y-10185650D01*
X11319943Y-10185650D02*
X11281848Y-10185650D01*
X11281848Y-10185650D02*
X11262801Y-10195174D01*
X11348515Y-10309460D02*
X11329467Y-10318984D01*
X11329467Y-10318984D02*
X11281848Y-10318984D01*
X11281848Y-10318984D02*
X11262801Y-10309460D01*
X11262801Y-10309460D02*
X11253277Y-10290412D01*
X11253277Y-10290412D02*
X11253277Y-10271365D01*
X11253277Y-10271365D02*
X11262801Y-10252317D01*
X11262801Y-10252317D02*
X11281848Y-10242793D01*
X11281848Y-10242793D02*
X11329467Y-10242793D01*
X11329467Y-10242793D02*
X11348515Y-10233270D01*
X11443753Y-10185650D02*
X11443753Y-10385650D01*
X11443753Y-10195174D02*
X11462801Y-10185650D01*
X11462801Y-10185650D02*
X11500896Y-10185650D01*
X11500896Y-10185650D02*
X11519943Y-10195174D01*
X11519943Y-10195174D02*
X11529467Y-10204698D01*
X11529467Y-10204698D02*
X11538991Y-10223746D01*
X11538991Y-10223746D02*
X11538991Y-10280889D01*
X11538991Y-10280889D02*
X11529467Y-10299936D01*
X11529467Y-10299936D02*
X11519943Y-10309460D01*
X11519943Y-10309460D02*
X11500896Y-10318984D01*
X11500896Y-10318984D02*
X11462801Y-10318984D01*
X11462801Y-10318984D02*
X11443753Y-10309460D01*
X11624705Y-10299936D02*
X11634229Y-10309460D01*
X11634229Y-10309460D02*
X11624705Y-10318984D01*
X11624705Y-10318984D02*
X11615182Y-10309460D01*
X11615182Y-10309460D02*
X11624705Y-10299936D01*
X11624705Y-10299936D02*
X11624705Y-10318984D01*
X11624705Y-10195174D02*
X11634229Y-10204698D01*
X11634229Y-10204698D02*
X11624705Y-10214222D01*
X11624705Y-10214222D02*
X11615182Y-10204698D01*
X11615182Y-10204698D02*
X11624705Y-10195174D01*
X11624705Y-10195174D02*
X11624705Y-10214222D01*
D12*
X9902500Y-10602500D02*
X9992500Y-10692500D01*
X9992500Y-10602500D02*
X9902500Y-10692500D01*
D11*
X10291372Y-10538984D02*
X10310420Y-10538984D01*
X10310420Y-10538984D02*
X10329467Y-10548508D01*
X10329467Y-10548508D02*
X10338991Y-10558031D01*
X10338991Y-10558031D02*
X10348515Y-10577079D01*
X10348515Y-10577079D02*
X10358039Y-10615174D01*
X10358039Y-10615174D02*
X10358039Y-10662793D01*
X10358039Y-10662793D02*
X10348515Y-10700889D01*
X10348515Y-10700889D02*
X10338991Y-10719936D01*
X10338991Y-10719936D02*
X10329467Y-10729460D01*
X10329467Y-10729460D02*
X10310420Y-10738984D01*
X10310420Y-10738984D02*
X10291372Y-10738984D01*
X10291372Y-10738984D02*
X10272324Y-10729460D01*
X10272324Y-10729460D02*
X10262801Y-10719936D01*
X10262801Y-10719936D02*
X10253277Y-10700889D01*
X10253277Y-10700889D02*
X10243753Y-10662793D01*
X10243753Y-10662793D02*
X10243753Y-10615174D01*
X10243753Y-10615174D02*
X10253277Y-10577079D01*
X10253277Y-10577079D02*
X10262801Y-10558031D01*
X10262801Y-10558031D02*
X10272324Y-10548508D01*
X10272324Y-10548508D02*
X10291372Y-10538984D01*
X10443753Y-10719936D02*
X10453277Y-10729460D01*
X10453277Y-10729460D02*
X10443753Y-10738984D01*
X10443753Y-10738984D02*
X10434229Y-10729460D01*
X10434229Y-10729460D02*
X10443753Y-10719936D01*
X10443753Y-10719936D02*
X10443753Y-10738984D01*
X10548515Y-10738984D02*
X10586610Y-10738984D01*
X10586610Y-10738984D02*
X10605658Y-10729460D01*
X10605658Y-10729460D02*
X10615182Y-10719936D01*
X10615182Y-10719936D02*
X10634229Y-10691365D01*
X10634229Y-10691365D02*
X10643753Y-10653270D01*
X10643753Y-10653270D02*
X10643753Y-10577079D01*
X10643753Y-10577079D02*
X10634229Y-10558031D01*
X10634229Y-10558031D02*
X10624705Y-10548508D01*
X10624705Y-10548508D02*
X10605658Y-10538984D01*
X10605658Y-10538984D02*
X10567563Y-10538984D01*
X10567563Y-10538984D02*
X10548515Y-10548508D01*
X10548515Y-10548508D02*
X10538991Y-10558031D01*
X10538991Y-10558031D02*
X10529467Y-10577079D01*
X10529467Y-10577079D02*
X10529467Y-10624698D01*
X10529467Y-10624698D02*
X10538991Y-10643746D01*
X10538991Y-10643746D02*
X10548515Y-10653270D01*
X10548515Y-10653270D02*
X10567563Y-10662793D01*
X10567563Y-10662793D02*
X10605658Y-10662793D01*
X10605658Y-10662793D02*
X10624705Y-10653270D01*
X10624705Y-10653270D02*
X10634229Y-10643746D01*
X10634229Y-10643746D02*
X10643753Y-10624698D01*
X10767563Y-10538984D02*
X10786610Y-10538984D01*
X10786610Y-10538984D02*
X10805658Y-10548508D01*
X10805658Y-10548508D02*
X10815182Y-10558031D01*
X10815182Y-10558031D02*
X10824705Y-10577079D01*
X10824705Y-10577079D02*
X10834229Y-10615174D01*
X10834229Y-10615174D02*
X10834229Y-10662793D01*
X10834229Y-10662793D02*
X10824705Y-10700889D01*
X10824705Y-10700889D02*
X10815182Y-10719936D01*
X10815182Y-10719936D02*
X10805658Y-10729460D01*
X10805658Y-10729460D02*
X10786610Y-10738984D01*
X10786610Y-10738984D02*
X10767563Y-10738984D01*
X10767563Y-10738984D02*
X10748515Y-10729460D01*
X10748515Y-10729460D02*
X10738991Y-10719936D01*
X10738991Y-10719936D02*
X10729467Y-10700889D01*
X10729467Y-10700889D02*
X10719944Y-10662793D01*
X10719944Y-10662793D02*
X10719944Y-10615174D01*
X10719944Y-10615174D02*
X10729467Y-10577079D01*
X10729467Y-10577079D02*
X10738991Y-10558031D01*
X10738991Y-10558031D02*
X10748515Y-10548508D01*
X10748515Y-10548508D02*
X10767563Y-10538984D01*
X10958039Y-10538984D02*
X10977086Y-10538984D01*
X10977086Y-10538984D02*
X10996134Y-10548508D01*
X10996134Y-10548508D02*
X11005658Y-10558031D01*
X11005658Y-10558031D02*
X11015182Y-10577079D01*
X11015182Y-10577079D02*
X11024705Y-10615174D01*
X11024705Y-10615174D02*
X11024705Y-10662793D01*
X11024705Y-10662793D02*
X11015182Y-10700889D01*
X11015182Y-10700889D02*
X11005658Y-10719936D01*
X11005658Y-10719936D02*
X10996134Y-10729460D01*
X10996134Y-10729460D02*
X10977086Y-10738984D01*
X10977086Y-10738984D02*
X10958039Y-10738984D01*
X10958039Y-10738984D02*
X10938991Y-10729460D01*
X10938991Y-10729460D02*
X10929467Y-10719936D01*
X10929467Y-10719936D02*
X10919944Y-10700889D01*
X10919944Y-10700889D02*
X10910420Y-10662793D01*
X10910420Y-10662793D02*
X10910420Y-10615174D01*
X10910420Y-10615174D02*
X10919944Y-10577079D01*
X10919944Y-10577079D02*
X10929467Y-10558031D01*
X10929467Y-10558031D02*
X10938991Y-10548508D01*
X10938991Y-10548508D02*
X10958039Y-10538984D01*
X11110420Y-10738984D02*
X11110420Y-10605650D01*
X11110420Y-10624698D02*
X11119944Y-10615174D01*
X11119944Y-10615174D02*
X11138991Y-10605650D01*
X11138991Y-10605650D02*
X11167563Y-10605650D01*
X11167563Y-10605650D02*
X11186610Y-10615174D01*
X11186610Y-10615174D02*
X11196134Y-10634222D01*
X11196134Y-10634222D02*
X11196134Y-10738984D01*
X11196134Y-10634222D02*
X11205658Y-10615174D01*
X11205658Y-10615174D02*
X11224705Y-10605650D01*
X11224705Y-10605650D02*
X11253277Y-10605650D01*
X11253277Y-10605650D02*
X11272324Y-10615174D01*
X11272324Y-10615174D02*
X11281848Y-10634222D01*
X11281848Y-10634222D02*
X11281848Y-10738984D01*
X11377086Y-10738984D02*
X11377086Y-10605650D01*
X11377086Y-10624698D02*
X11386610Y-10615174D01*
X11386610Y-10615174D02*
X11405658Y-10605650D01*
X11405658Y-10605650D02*
X11434229Y-10605650D01*
X11434229Y-10605650D02*
X11453277Y-10615174D01*
X11453277Y-10615174D02*
X11462801Y-10634222D01*
X11462801Y-10634222D02*
X11462801Y-10738984D01*
X11462801Y-10634222D02*
X11472324Y-10615174D01*
X11472324Y-10615174D02*
X11491372Y-10605650D01*
X11491372Y-10605650D02*
X11519943Y-10605650D01*
X11519943Y-10605650D02*
X11538991Y-10615174D01*
X11538991Y-10615174D02*
X11548515Y-10634222D01*
X11548515Y-10634222D02*
X11548515Y-10738984D01*
X11938991Y-10529460D02*
X11767563Y-10786603D01*
X12196134Y-10538984D02*
X12215182Y-10538984D01*
X12215182Y-10538984D02*
X12234229Y-10548508D01*
X12234229Y-10548508D02*
X12243753Y-10558031D01*
X12243753Y-10558031D02*
X12253277Y-10577079D01*
X12253277Y-10577079D02*
X12262801Y-10615174D01*
X12262801Y-10615174D02*
X12262801Y-10662793D01*
X12262801Y-10662793D02*
X12253277Y-10700889D01*
X12253277Y-10700889D02*
X12243753Y-10719936D01*
X12243753Y-10719936D02*
X12234229Y-10729460D01*
X12234229Y-10729460D02*
X12215182Y-10738984D01*
X12215182Y-10738984D02*
X12196134Y-10738984D01*
X12196134Y-10738984D02*
X12177086Y-10729460D01*
X12177086Y-10729460D02*
X12167563Y-10719936D01*
X12167563Y-10719936D02*
X12158039Y-10700889D01*
X12158039Y-10700889D02*
X12148515Y-10662793D01*
X12148515Y-10662793D02*
X12148515Y-10615174D01*
X12148515Y-10615174D02*
X12158039Y-10577079D01*
X12158039Y-10577079D02*
X12167563Y-10558031D01*
X12167563Y-10558031D02*
X12177086Y-10548508D01*
X12177086Y-10548508D02*
X12196134Y-10538984D01*
X12348515Y-10719936D02*
X12358039Y-10729460D01*
X12358039Y-10729460D02*
X12348515Y-10738984D01*
X12348515Y-10738984D02*
X12338991Y-10729460D01*
X12338991Y-10729460D02*
X12348515Y-10719936D01*
X12348515Y-10719936D02*
X12348515Y-10738984D01*
X12481848Y-10538984D02*
X12500896Y-10538984D01*
X12500896Y-10538984D02*
X12519944Y-10548508D01*
X12519944Y-10548508D02*
X12529467Y-10558031D01*
X12529467Y-10558031D02*
X12538991Y-10577079D01*
X12538991Y-10577079D02*
X12548515Y-10615174D01*
X12548515Y-10615174D02*
X12548515Y-10662793D01*
X12548515Y-10662793D02*
X12538991Y-10700889D01*
X12538991Y-10700889D02*
X12529467Y-10719936D01*
X12529467Y-10719936D02*
X12519944Y-10729460D01*
X12519944Y-10729460D02*
X12500896Y-10738984D01*
X12500896Y-10738984D02*
X12481848Y-10738984D01*
X12481848Y-10738984D02*
X12462801Y-10729460D01*
X12462801Y-10729460D02*
X12453277Y-10719936D01*
X12453277Y-10719936D02*
X12443753Y-10700889D01*
X12443753Y-10700889D02*
X12434229Y-10662793D01*
X12434229Y-10662793D02*
X12434229Y-10615174D01*
X12434229Y-10615174D02*
X12443753Y-10577079D01*
X12443753Y-10577079D02*
X12453277Y-10558031D01*
X12453277Y-10558031D02*
X12462801Y-10548508D01*
X12462801Y-10548508D02*
X12481848Y-10538984D01*
X12615182Y-10538984D02*
X12738991Y-10538984D01*
X12738991Y-10538984D02*
X12672325Y-10615174D01*
X12672325Y-10615174D02*
X12700896Y-10615174D01*
X12700896Y-10615174D02*
X12719944Y-10624698D01*
X12719944Y-10624698D02*
X12729467Y-10634222D01*
X12729467Y-10634222D02*
X12738991Y-10653270D01*
X12738991Y-10653270D02*
X12738991Y-10700889D01*
X12738991Y-10700889D02*
X12729467Y-10719936D01*
X12729467Y-10719936D02*
X12719944Y-10729460D01*
X12719944Y-10729460D02*
X12700896Y-10738984D01*
X12700896Y-10738984D02*
X12643753Y-10738984D01*
X12643753Y-10738984D02*
X12624706Y-10729460D01*
X12624706Y-10729460D02*
X12615182Y-10719936D01*
X12919944Y-10538984D02*
X12824706Y-10538984D01*
X12824706Y-10538984D02*
X12815182Y-10634222D01*
X12815182Y-10634222D02*
X12824706Y-10624698D01*
X12824706Y-10624698D02*
X12843753Y-10615174D01*
X12843753Y-10615174D02*
X12891372Y-10615174D01*
X12891372Y-10615174D02*
X12910420Y-10624698D01*
X12910420Y-10624698D02*
X12919944Y-10634222D01*
X12919944Y-10634222D02*
X12929467Y-10653270D01*
X12929467Y-10653270D02*
X12929467Y-10700889D01*
X12929467Y-10700889D02*
X12919944Y-10719936D01*
X12919944Y-10719936D02*
X12910420Y-10729460D01*
X12910420Y-10729460D02*
X12891372Y-10738984D01*
X12891372Y-10738984D02*
X12843753Y-10738984D01*
X12843753Y-10738984D02*
X12824706Y-10729460D01*
X12824706Y-10729460D02*
X12815182Y-10719936D01*
X13100896Y-10605650D02*
X13100896Y-10738984D01*
X13053277Y-10529460D02*
X13005658Y-10672317D01*
X13005658Y-10672317D02*
X13129467Y-10672317D01*
X13196134Y-10538984D02*
X13196134Y-10577079D01*
X13272325Y-10538984D02*
X13272325Y-10577079D01*
X13567563Y-10815174D02*
X13558039Y-10805650D01*
X13558039Y-10805650D02*
X13538991Y-10777079D01*
X13538991Y-10777079D02*
X13529468Y-10758031D01*
X13529468Y-10758031D02*
X13519944Y-10729460D01*
X13519944Y-10729460D02*
X13510420Y-10681841D01*
X13510420Y-10681841D02*
X13510420Y-10643746D01*
X13510420Y-10643746D02*
X13519944Y-10596127D01*
X13519944Y-10596127D02*
X13529468Y-10567555D01*
X13529468Y-10567555D02*
X13538991Y-10548508D01*
X13538991Y-10548508D02*
X13558039Y-10519936D01*
X13558039Y-10519936D02*
X13567563Y-10510412D01*
X13634229Y-10558031D02*
X13643753Y-10548508D01*
X13643753Y-10548508D02*
X13662801Y-10538984D01*
X13662801Y-10538984D02*
X13710420Y-10538984D01*
X13710420Y-10538984D02*
X13729468Y-10548508D01*
X13729468Y-10548508D02*
X13738991Y-10558031D01*
X13738991Y-10558031D02*
X13748515Y-10577079D01*
X13748515Y-10577079D02*
X13748515Y-10596127D01*
X13748515Y-10596127D02*
X13738991Y-10624698D01*
X13738991Y-10624698D02*
X13624706Y-10738984D01*
X13624706Y-10738984D02*
X13748515Y-10738984D01*
X13986610Y-10738984D02*
X13986610Y-10538984D01*
X14072325Y-10738984D02*
X14072325Y-10634222D01*
X14072325Y-10634222D02*
X14062801Y-10615174D01*
X14062801Y-10615174D02*
X14043753Y-10605650D01*
X14043753Y-10605650D02*
X14015182Y-10605650D01*
X14015182Y-10605650D02*
X13996134Y-10615174D01*
X13996134Y-10615174D02*
X13986610Y-10624698D01*
X14196134Y-10738984D02*
X14177087Y-10729460D01*
X14177087Y-10729460D02*
X14167563Y-10719936D01*
X14167563Y-10719936D02*
X14158039Y-10700889D01*
X14158039Y-10700889D02*
X14158039Y-10643746D01*
X14158039Y-10643746D02*
X14167563Y-10624698D01*
X14167563Y-10624698D02*
X14177087Y-10615174D01*
X14177087Y-10615174D02*
X14196134Y-10605650D01*
X14196134Y-10605650D02*
X14224706Y-10605650D01*
X14224706Y-10605650D02*
X14243753Y-10615174D01*
X14243753Y-10615174D02*
X14253277Y-10624698D01*
X14253277Y-10624698D02*
X14262801Y-10643746D01*
X14262801Y-10643746D02*
X14262801Y-10700889D01*
X14262801Y-10700889D02*
X14253277Y-10719936D01*
X14253277Y-10719936D02*
X14243753Y-10729460D01*
X14243753Y-10729460D02*
X14224706Y-10738984D01*
X14224706Y-10738984D02*
X14196134Y-10738984D01*
X14377087Y-10738984D02*
X14358039Y-10729460D01*
X14358039Y-10729460D02*
X14348515Y-10710412D01*
X14348515Y-10710412D02*
X14348515Y-10538984D01*
X14529468Y-10729460D02*
X14510420Y-10738984D01*
X14510420Y-10738984D02*
X14472325Y-10738984D01*
X14472325Y-10738984D02*
X14453277Y-10729460D01*
X14453277Y-10729460D02*
X14443753Y-10710412D01*
X14443753Y-10710412D02*
X14443753Y-10634222D01*
X14443753Y-10634222D02*
X14453277Y-10615174D01*
X14453277Y-10615174D02*
X14472325Y-10605650D01*
X14472325Y-10605650D02*
X14510420Y-10605650D01*
X14510420Y-10605650D02*
X14529468Y-10615174D01*
X14529468Y-10615174D02*
X14538991Y-10634222D01*
X14538991Y-10634222D02*
X14538991Y-10653270D01*
X14538991Y-10653270D02*
X14443753Y-10672317D01*
X14615182Y-10729460D02*
X14634230Y-10738984D01*
X14634230Y-10738984D02*
X14672325Y-10738984D01*
X14672325Y-10738984D02*
X14691372Y-10729460D01*
X14691372Y-10729460D02*
X14700896Y-10710412D01*
X14700896Y-10710412D02*
X14700896Y-10700889D01*
X14700896Y-10700889D02*
X14691372Y-10681841D01*
X14691372Y-10681841D02*
X14672325Y-10672317D01*
X14672325Y-10672317D02*
X14643753Y-10672317D01*
X14643753Y-10672317D02*
X14624706Y-10662793D01*
X14624706Y-10662793D02*
X14615182Y-10643746D01*
X14615182Y-10643746D02*
X14615182Y-10634222D01*
X14615182Y-10634222D02*
X14624706Y-10615174D01*
X14624706Y-10615174D02*
X14643753Y-10605650D01*
X14643753Y-10605650D02*
X14672325Y-10605650D01*
X14672325Y-10605650D02*
X14691372Y-10615174D01*
X14767563Y-10815174D02*
X14777087Y-10805650D01*
X14777087Y-10805650D02*
X14796134Y-10777079D01*
X14796134Y-10777079D02*
X14805658Y-10758031D01*
X14805658Y-10758031D02*
X14815182Y-10729460D01*
X14815182Y-10729460D02*
X14824706Y-10681841D01*
X14824706Y-10681841D02*
X14824706Y-10643746D01*
X14824706Y-10643746D02*
X14815182Y-10596127D01*
X14815182Y-10596127D02*
X14805658Y-10567555D01*
X14805658Y-10567555D02*
X14796134Y-10548508D01*
X14796134Y-10548508D02*
X14777087Y-10519936D01*
X14777087Y-10519936D02*
X14767563Y-10510412D01*
D12*
X9992500Y-10911500D02*
G75*
G02*
X9892500Y-10911500I-50000J0D01*
G01*
X9892500Y-10911500D02*
G75*
G02*
X9992500Y-10911500I50000J0D01*
G01*
D11*
X10358039Y-11002984D02*
X10243753Y-11002984D01*
X10300896Y-11002984D02*
X10300896Y-10802984D01*
X10300896Y-10802984D02*
X10281848Y-10831555D01*
X10281848Y-10831555D02*
X10262801Y-10850603D01*
X10262801Y-10850603D02*
X10243753Y-10860127D01*
X10443753Y-10983936D02*
X10453277Y-10993460D01*
X10453277Y-10993460D02*
X10443753Y-11002984D01*
X10443753Y-11002984D02*
X10434229Y-10993460D01*
X10434229Y-10993460D02*
X10443753Y-10983936D01*
X10443753Y-10983936D02*
X10443753Y-11002984D01*
X10577086Y-10802984D02*
X10596134Y-10802984D01*
X10596134Y-10802984D02*
X10615182Y-10812508D01*
X10615182Y-10812508D02*
X10624705Y-10822031D01*
X10624705Y-10822031D02*
X10634229Y-10841079D01*
X10634229Y-10841079D02*
X10643753Y-10879174D01*
X10643753Y-10879174D02*
X10643753Y-10926793D01*
X10643753Y-10926793D02*
X10634229Y-10964889D01*
X10634229Y-10964889D02*
X10624705Y-10983936D01*
X10624705Y-10983936D02*
X10615182Y-10993460D01*
X10615182Y-10993460D02*
X10596134Y-11002984D01*
X10596134Y-11002984D02*
X10577086Y-11002984D01*
X10577086Y-11002984D02*
X10558039Y-10993460D01*
X10558039Y-10993460D02*
X10548515Y-10983936D01*
X10548515Y-10983936D02*
X10538991Y-10964889D01*
X10538991Y-10964889D02*
X10529467Y-10926793D01*
X10529467Y-10926793D02*
X10529467Y-10879174D01*
X10529467Y-10879174D02*
X10538991Y-10841079D01*
X10538991Y-10841079D02*
X10548515Y-10822031D01*
X10548515Y-10822031D02*
X10558039Y-10812508D01*
X10558039Y-10812508D02*
X10577086Y-10802984D01*
X10767563Y-10802984D02*
X10786610Y-10802984D01*
X10786610Y-10802984D02*
X10805658Y-10812508D01*
X10805658Y-10812508D02*
X10815182Y-10822031D01*
X10815182Y-10822031D02*
X10824705Y-10841079D01*
X10824705Y-10841079D02*
X10834229Y-10879174D01*
X10834229Y-10879174D02*
X10834229Y-10926793D01*
X10834229Y-10926793D02*
X10824705Y-10964889D01*
X10824705Y-10964889D02*
X10815182Y-10983936D01*
X10815182Y-10983936D02*
X10805658Y-10993460D01*
X10805658Y-10993460D02*
X10786610Y-11002984D01*
X10786610Y-11002984D02*
X10767563Y-11002984D01*
X10767563Y-11002984D02*
X10748515Y-10993460D01*
X10748515Y-10993460D02*
X10738991Y-10983936D01*
X10738991Y-10983936D02*
X10729467Y-10964889D01*
X10729467Y-10964889D02*
X10719944Y-10926793D01*
X10719944Y-10926793D02*
X10719944Y-10879174D01*
X10719944Y-10879174D02*
X10729467Y-10841079D01*
X10729467Y-10841079D02*
X10738991Y-10822031D01*
X10738991Y-10822031D02*
X10748515Y-10812508D01*
X10748515Y-10812508D02*
X10767563Y-10802984D01*
X10958039Y-10802984D02*
X10977086Y-10802984D01*
X10977086Y-10802984D02*
X10996134Y-10812508D01*
X10996134Y-10812508D02*
X11005658Y-10822031D01*
X11005658Y-10822031D02*
X11015182Y-10841079D01*
X11015182Y-10841079D02*
X11024705Y-10879174D01*
X11024705Y-10879174D02*
X11024705Y-10926793D01*
X11024705Y-10926793D02*
X11015182Y-10964889D01*
X11015182Y-10964889D02*
X11005658Y-10983936D01*
X11005658Y-10983936D02*
X10996134Y-10993460D01*
X10996134Y-10993460D02*
X10977086Y-11002984D01*
X10977086Y-11002984D02*
X10958039Y-11002984D01*
X10958039Y-11002984D02*
X10938991Y-10993460D01*
X10938991Y-10993460D02*
X10929467Y-10983936D01*
X10929467Y-10983936D02*
X10919944Y-10964889D01*
X10919944Y-10964889D02*
X10910420Y-10926793D01*
X10910420Y-10926793D02*
X10910420Y-10879174D01*
X10910420Y-10879174D02*
X10919944Y-10841079D01*
X10919944Y-10841079D02*
X10929467Y-10822031D01*
X10929467Y-10822031D02*
X10938991Y-10812508D01*
X10938991Y-10812508D02*
X10958039Y-10802984D01*
X11110420Y-11002984D02*
X11110420Y-10869650D01*
X11110420Y-10888698D02*
X11119944Y-10879174D01*
X11119944Y-10879174D02*
X11138991Y-10869650D01*
X11138991Y-10869650D02*
X11167563Y-10869650D01*
X11167563Y-10869650D02*
X11186610Y-10879174D01*
X11186610Y-10879174D02*
X11196134Y-10898222D01*
X11196134Y-10898222D02*
X11196134Y-11002984D01*
X11196134Y-10898222D02*
X11205658Y-10879174D01*
X11205658Y-10879174D02*
X11224705Y-10869650D01*
X11224705Y-10869650D02*
X11253277Y-10869650D01*
X11253277Y-10869650D02*
X11272324Y-10879174D01*
X11272324Y-10879174D02*
X11281848Y-10898222D01*
X11281848Y-10898222D02*
X11281848Y-11002984D01*
X11377086Y-11002984D02*
X11377086Y-10869650D01*
X11377086Y-10888698D02*
X11386610Y-10879174D01*
X11386610Y-10879174D02*
X11405658Y-10869650D01*
X11405658Y-10869650D02*
X11434229Y-10869650D01*
X11434229Y-10869650D02*
X11453277Y-10879174D01*
X11453277Y-10879174D02*
X11462801Y-10898222D01*
X11462801Y-10898222D02*
X11462801Y-11002984D01*
X11462801Y-10898222D02*
X11472324Y-10879174D01*
X11472324Y-10879174D02*
X11491372Y-10869650D01*
X11491372Y-10869650D02*
X11519943Y-10869650D01*
X11519943Y-10869650D02*
X11538991Y-10879174D01*
X11538991Y-10879174D02*
X11548515Y-10898222D01*
X11548515Y-10898222D02*
X11548515Y-11002984D01*
X11938991Y-10793460D02*
X11767563Y-11050603D01*
X12196134Y-10802984D02*
X12215182Y-10802984D01*
X12215182Y-10802984D02*
X12234229Y-10812508D01*
X12234229Y-10812508D02*
X12243753Y-10822031D01*
X12243753Y-10822031D02*
X12253277Y-10841079D01*
X12253277Y-10841079D02*
X12262801Y-10879174D01*
X12262801Y-10879174D02*
X12262801Y-10926793D01*
X12262801Y-10926793D02*
X12253277Y-10964889D01*
X12253277Y-10964889D02*
X12243753Y-10983936D01*
X12243753Y-10983936D02*
X12234229Y-10993460D01*
X12234229Y-10993460D02*
X12215182Y-11002984D01*
X12215182Y-11002984D02*
X12196134Y-11002984D01*
X12196134Y-11002984D02*
X12177086Y-10993460D01*
X12177086Y-10993460D02*
X12167563Y-10983936D01*
X12167563Y-10983936D02*
X12158039Y-10964889D01*
X12158039Y-10964889D02*
X12148515Y-10926793D01*
X12148515Y-10926793D02*
X12148515Y-10879174D01*
X12148515Y-10879174D02*
X12158039Y-10841079D01*
X12158039Y-10841079D02*
X12167563Y-10822031D01*
X12167563Y-10822031D02*
X12177086Y-10812508D01*
X12177086Y-10812508D02*
X12196134Y-10802984D01*
X12348515Y-10983936D02*
X12358039Y-10993460D01*
X12358039Y-10993460D02*
X12348515Y-11002984D01*
X12348515Y-11002984D02*
X12338991Y-10993460D01*
X12338991Y-10993460D02*
X12348515Y-10983936D01*
X12348515Y-10983936D02*
X12348515Y-11002984D01*
X12481848Y-10802984D02*
X12500896Y-10802984D01*
X12500896Y-10802984D02*
X12519944Y-10812508D01*
X12519944Y-10812508D02*
X12529467Y-10822031D01*
X12529467Y-10822031D02*
X12538991Y-10841079D01*
X12538991Y-10841079D02*
X12548515Y-10879174D01*
X12548515Y-10879174D02*
X12548515Y-10926793D01*
X12548515Y-10926793D02*
X12538991Y-10964889D01*
X12538991Y-10964889D02*
X12529467Y-10983936D01*
X12529467Y-10983936D02*
X12519944Y-10993460D01*
X12519944Y-10993460D02*
X12500896Y-11002984D01*
X12500896Y-11002984D02*
X12481848Y-11002984D01*
X12481848Y-11002984D02*
X12462801Y-10993460D01*
X12462801Y-10993460D02*
X12453277Y-10983936D01*
X12453277Y-10983936D02*
X12443753Y-10964889D01*
X12443753Y-10964889D02*
X12434229Y-10926793D01*
X12434229Y-10926793D02*
X12434229Y-10879174D01*
X12434229Y-10879174D02*
X12443753Y-10841079D01*
X12443753Y-10841079D02*
X12453277Y-10822031D01*
X12453277Y-10822031D02*
X12462801Y-10812508D01*
X12462801Y-10812508D02*
X12481848Y-10802984D01*
X12615182Y-10802984D02*
X12738991Y-10802984D01*
X12738991Y-10802984D02*
X12672325Y-10879174D01*
X12672325Y-10879174D02*
X12700896Y-10879174D01*
X12700896Y-10879174D02*
X12719944Y-10888698D01*
X12719944Y-10888698D02*
X12729467Y-10898222D01*
X12729467Y-10898222D02*
X12738991Y-10917270D01*
X12738991Y-10917270D02*
X12738991Y-10964889D01*
X12738991Y-10964889D02*
X12729467Y-10983936D01*
X12729467Y-10983936D02*
X12719944Y-10993460D01*
X12719944Y-10993460D02*
X12700896Y-11002984D01*
X12700896Y-11002984D02*
X12643753Y-11002984D01*
X12643753Y-11002984D02*
X12624706Y-10993460D01*
X12624706Y-10993460D02*
X12615182Y-10983936D01*
X12834229Y-11002984D02*
X12872325Y-11002984D01*
X12872325Y-11002984D02*
X12891372Y-10993460D01*
X12891372Y-10993460D02*
X12900896Y-10983936D01*
X12900896Y-10983936D02*
X12919944Y-10955365D01*
X12919944Y-10955365D02*
X12929467Y-10917270D01*
X12929467Y-10917270D02*
X12929467Y-10841079D01*
X12929467Y-10841079D02*
X12919944Y-10822031D01*
X12919944Y-10822031D02*
X12910420Y-10812508D01*
X12910420Y-10812508D02*
X12891372Y-10802984D01*
X12891372Y-10802984D02*
X12853277Y-10802984D01*
X12853277Y-10802984D02*
X12834229Y-10812508D01*
X12834229Y-10812508D02*
X12824706Y-10822031D01*
X12824706Y-10822031D02*
X12815182Y-10841079D01*
X12815182Y-10841079D02*
X12815182Y-10888698D01*
X12815182Y-10888698D02*
X12824706Y-10907746D01*
X12824706Y-10907746D02*
X12834229Y-10917270D01*
X12834229Y-10917270D02*
X12853277Y-10926793D01*
X12853277Y-10926793D02*
X12891372Y-10926793D01*
X12891372Y-10926793D02*
X12910420Y-10917270D01*
X12910420Y-10917270D02*
X12919944Y-10907746D01*
X12919944Y-10907746D02*
X12929467Y-10888698D01*
X13100896Y-10869650D02*
X13100896Y-11002984D01*
X13053277Y-10793460D02*
X13005658Y-10936317D01*
X13005658Y-10936317D02*
X13129467Y-10936317D01*
X13196134Y-10802984D02*
X13196134Y-10841079D01*
X13272325Y-10802984D02*
X13272325Y-10841079D01*
X13567563Y-11079174D02*
X13558039Y-11069650D01*
X13558039Y-11069650D02*
X13538991Y-11041079D01*
X13538991Y-11041079D02*
X13529468Y-11022031D01*
X13529468Y-11022031D02*
X13519944Y-10993460D01*
X13519944Y-10993460D02*
X13510420Y-10945841D01*
X13510420Y-10945841D02*
X13510420Y-10907746D01*
X13510420Y-10907746D02*
X13519944Y-10860127D01*
X13519944Y-10860127D02*
X13529468Y-10831555D01*
X13529468Y-10831555D02*
X13538991Y-10812508D01*
X13538991Y-10812508D02*
X13558039Y-10783936D01*
X13558039Y-10783936D02*
X13567563Y-10774412D01*
X13738991Y-10802984D02*
X13643753Y-10802984D01*
X13643753Y-10802984D02*
X13634229Y-10898222D01*
X13634229Y-10898222D02*
X13643753Y-10888698D01*
X13643753Y-10888698D02*
X13662801Y-10879174D01*
X13662801Y-10879174D02*
X13710420Y-10879174D01*
X13710420Y-10879174D02*
X13729468Y-10888698D01*
X13729468Y-10888698D02*
X13738991Y-10898222D01*
X13738991Y-10898222D02*
X13748515Y-10917270D01*
X13748515Y-10917270D02*
X13748515Y-10964889D01*
X13748515Y-10964889D02*
X13738991Y-10983936D01*
X13738991Y-10983936D02*
X13729468Y-10993460D01*
X13729468Y-10993460D02*
X13710420Y-11002984D01*
X13710420Y-11002984D02*
X13662801Y-11002984D01*
X13662801Y-11002984D02*
X13643753Y-10993460D01*
X13643753Y-10993460D02*
X13634229Y-10983936D01*
X13938991Y-11002984D02*
X13824706Y-11002984D01*
X13881848Y-11002984D02*
X13881848Y-10802984D01*
X13881848Y-10802984D02*
X13862801Y-10831555D01*
X13862801Y-10831555D02*
X13843753Y-10850603D01*
X13843753Y-10850603D02*
X13824706Y-10860127D01*
X14177087Y-11002984D02*
X14177087Y-10802984D01*
X14262801Y-11002984D02*
X14262801Y-10898222D01*
X14262801Y-10898222D02*
X14253277Y-10879174D01*
X14253277Y-10879174D02*
X14234230Y-10869650D01*
X14234230Y-10869650D02*
X14205658Y-10869650D01*
X14205658Y-10869650D02*
X14186610Y-10879174D01*
X14186610Y-10879174D02*
X14177087Y-10888698D01*
X14386610Y-11002984D02*
X14367563Y-10993460D01*
X14367563Y-10993460D02*
X14358039Y-10983936D01*
X14358039Y-10983936D02*
X14348515Y-10964889D01*
X14348515Y-10964889D02*
X14348515Y-10907746D01*
X14348515Y-10907746D02*
X14358039Y-10888698D01*
X14358039Y-10888698D02*
X14367563Y-10879174D01*
X14367563Y-10879174D02*
X14386610Y-10869650D01*
X14386610Y-10869650D02*
X14415182Y-10869650D01*
X14415182Y-10869650D02*
X14434230Y-10879174D01*
X14434230Y-10879174D02*
X14443753Y-10888698D01*
X14443753Y-10888698D02*
X14453277Y-10907746D01*
X14453277Y-10907746D02*
X14453277Y-10964889D01*
X14453277Y-10964889D02*
X14443753Y-10983936D01*
X14443753Y-10983936D02*
X14434230Y-10993460D01*
X14434230Y-10993460D02*
X14415182Y-11002984D01*
X14415182Y-11002984D02*
X14386610Y-11002984D01*
X14567563Y-11002984D02*
X14548515Y-10993460D01*
X14548515Y-10993460D02*
X14538991Y-10974412D01*
X14538991Y-10974412D02*
X14538991Y-10802984D01*
X14719944Y-10993460D02*
X14700896Y-11002984D01*
X14700896Y-11002984D02*
X14662801Y-11002984D01*
X14662801Y-11002984D02*
X14643753Y-10993460D01*
X14643753Y-10993460D02*
X14634230Y-10974412D01*
X14634230Y-10974412D02*
X14634230Y-10898222D01*
X14634230Y-10898222D02*
X14643753Y-10879174D01*
X14643753Y-10879174D02*
X14662801Y-10869650D01*
X14662801Y-10869650D02*
X14700896Y-10869650D01*
X14700896Y-10869650D02*
X14719944Y-10879174D01*
X14719944Y-10879174D02*
X14729468Y-10898222D01*
X14729468Y-10898222D02*
X14729468Y-10917270D01*
X14729468Y-10917270D02*
X14634230Y-10936317D01*
X14805658Y-10993460D02*
X14824706Y-11002984D01*
X14824706Y-11002984D02*
X14862801Y-11002984D01*
X14862801Y-11002984D02*
X14881849Y-10993460D01*
X14881849Y-10993460D02*
X14891372Y-10974412D01*
X14891372Y-10974412D02*
X14891372Y-10964889D01*
X14891372Y-10964889D02*
X14881849Y-10945841D01*
X14881849Y-10945841D02*
X14862801Y-10936317D01*
X14862801Y-10936317D02*
X14834230Y-10936317D01*
X14834230Y-10936317D02*
X14815182Y-10926793D01*
X14815182Y-10926793D02*
X14805658Y-10907746D01*
X14805658Y-10907746D02*
X14805658Y-10898222D01*
X14805658Y-10898222D02*
X14815182Y-10879174D01*
X14815182Y-10879174D02*
X14834230Y-10869650D01*
X14834230Y-10869650D02*
X14862801Y-10869650D01*
X14862801Y-10869650D02*
X14881849Y-10879174D01*
X14958039Y-11079174D02*
X14967563Y-11069650D01*
X14967563Y-11069650D02*
X14986611Y-11041079D01*
X14986611Y-11041079D02*
X14996134Y-11022031D01*
X14996134Y-11022031D02*
X15005658Y-10993460D01*
X15005658Y-10993460D02*
X15015182Y-10945841D01*
X15015182Y-10945841D02*
X15015182Y-10907746D01*
X15015182Y-10907746D02*
X15005658Y-10860127D01*
X15005658Y-10860127D02*
X14996134Y-10831555D01*
X14996134Y-10831555D02*
X14986611Y-10812508D01*
X14986611Y-10812508D02*
X14967563Y-10783936D01*
X14967563Y-10783936D02*
X14958039Y-10774412D01*
D13*
X9937500Y-11120500D02*
X9937500Y-11230500D01*
X9882500Y-11175500D02*
X9992500Y-11175500D01*
D11*
X10358039Y-11266984D02*
X10243753Y-11266984D01*
X10300896Y-11266984D02*
X10300896Y-11066984D01*
X10300896Y-11066984D02*
X10281848Y-11095555D01*
X10281848Y-11095555D02*
X10262801Y-11114603D01*
X10262801Y-11114603D02*
X10243753Y-11124127D01*
X10443753Y-11247936D02*
X10453277Y-11257460D01*
X10453277Y-11257460D02*
X10443753Y-11266984D01*
X10443753Y-11266984D02*
X10434229Y-11257460D01*
X10434229Y-11257460D02*
X10443753Y-11247936D01*
X10443753Y-11247936D02*
X10443753Y-11266984D01*
X10643753Y-11266984D02*
X10529467Y-11266984D01*
X10586610Y-11266984D02*
X10586610Y-11066984D01*
X10586610Y-11066984D02*
X10567563Y-11095555D01*
X10567563Y-11095555D02*
X10548515Y-11114603D01*
X10548515Y-11114603D02*
X10529467Y-11124127D01*
X10767563Y-11066984D02*
X10786610Y-11066984D01*
X10786610Y-11066984D02*
X10805658Y-11076508D01*
X10805658Y-11076508D02*
X10815182Y-11086031D01*
X10815182Y-11086031D02*
X10824705Y-11105079D01*
X10824705Y-11105079D02*
X10834229Y-11143174D01*
X10834229Y-11143174D02*
X10834229Y-11190793D01*
X10834229Y-11190793D02*
X10824705Y-11228888D01*
X10824705Y-11228888D02*
X10815182Y-11247936D01*
X10815182Y-11247936D02*
X10805658Y-11257460D01*
X10805658Y-11257460D02*
X10786610Y-11266984D01*
X10786610Y-11266984D02*
X10767563Y-11266984D01*
X10767563Y-11266984D02*
X10748515Y-11257460D01*
X10748515Y-11257460D02*
X10738991Y-11247936D01*
X10738991Y-11247936D02*
X10729467Y-11228888D01*
X10729467Y-11228888D02*
X10719944Y-11190793D01*
X10719944Y-11190793D02*
X10719944Y-11143174D01*
X10719944Y-11143174D02*
X10729467Y-11105079D01*
X10729467Y-11105079D02*
X10738991Y-11086031D01*
X10738991Y-11086031D02*
X10748515Y-11076508D01*
X10748515Y-11076508D02*
X10767563Y-11066984D01*
X10958039Y-11066984D02*
X10977086Y-11066984D01*
X10977086Y-11066984D02*
X10996134Y-11076508D01*
X10996134Y-11076508D02*
X11005658Y-11086031D01*
X11005658Y-11086031D02*
X11015182Y-11105079D01*
X11015182Y-11105079D02*
X11024705Y-11143174D01*
X11024705Y-11143174D02*
X11024705Y-11190793D01*
X11024705Y-11190793D02*
X11015182Y-11228888D01*
X11015182Y-11228888D02*
X11005658Y-11247936D01*
X11005658Y-11247936D02*
X10996134Y-11257460D01*
X10996134Y-11257460D02*
X10977086Y-11266984D01*
X10977086Y-11266984D02*
X10958039Y-11266984D01*
X10958039Y-11266984D02*
X10938991Y-11257460D01*
X10938991Y-11257460D02*
X10929467Y-11247936D01*
X10929467Y-11247936D02*
X10919944Y-11228888D01*
X10919944Y-11228888D02*
X10910420Y-11190793D01*
X10910420Y-11190793D02*
X10910420Y-11143174D01*
X10910420Y-11143174D02*
X10919944Y-11105079D01*
X10919944Y-11105079D02*
X10929467Y-11086031D01*
X10929467Y-11086031D02*
X10938991Y-11076508D01*
X10938991Y-11076508D02*
X10958039Y-11066984D01*
X11110420Y-11266984D02*
X11110420Y-11133650D01*
X11110420Y-11152698D02*
X11119944Y-11143174D01*
X11119944Y-11143174D02*
X11138991Y-11133650D01*
X11138991Y-11133650D02*
X11167563Y-11133650D01*
X11167563Y-11133650D02*
X11186610Y-11143174D01*
X11186610Y-11143174D02*
X11196134Y-11162222D01*
X11196134Y-11162222D02*
X11196134Y-11266984D01*
X11196134Y-11162222D02*
X11205658Y-11143174D01*
X11205658Y-11143174D02*
X11224705Y-11133650D01*
X11224705Y-11133650D02*
X11253277Y-11133650D01*
X11253277Y-11133650D02*
X11272324Y-11143174D01*
X11272324Y-11143174D02*
X11281848Y-11162222D01*
X11281848Y-11162222D02*
X11281848Y-11266984D01*
X11377086Y-11266984D02*
X11377086Y-11133650D01*
X11377086Y-11152698D02*
X11386610Y-11143174D01*
X11386610Y-11143174D02*
X11405658Y-11133650D01*
X11405658Y-11133650D02*
X11434229Y-11133650D01*
X11434229Y-11133650D02*
X11453277Y-11143174D01*
X11453277Y-11143174D02*
X11462801Y-11162222D01*
X11462801Y-11162222D02*
X11462801Y-11266984D01*
X11462801Y-11162222D02*
X11472324Y-11143174D01*
X11472324Y-11143174D02*
X11491372Y-11133650D01*
X11491372Y-11133650D02*
X11519943Y-11133650D01*
X11519943Y-11133650D02*
X11538991Y-11143174D01*
X11538991Y-11143174D02*
X11548515Y-11162222D01*
X11548515Y-11162222D02*
X11548515Y-11266984D01*
X11938991Y-11057460D02*
X11767563Y-11314603D01*
X12196134Y-11066984D02*
X12215182Y-11066984D01*
X12215182Y-11066984D02*
X12234229Y-11076508D01*
X12234229Y-11076508D02*
X12243753Y-11086031D01*
X12243753Y-11086031D02*
X12253277Y-11105079D01*
X12253277Y-11105079D02*
X12262801Y-11143174D01*
X12262801Y-11143174D02*
X12262801Y-11190793D01*
X12262801Y-11190793D02*
X12253277Y-11228888D01*
X12253277Y-11228888D02*
X12243753Y-11247936D01*
X12243753Y-11247936D02*
X12234229Y-11257460D01*
X12234229Y-11257460D02*
X12215182Y-11266984D01*
X12215182Y-11266984D02*
X12196134Y-11266984D01*
X12196134Y-11266984D02*
X12177086Y-11257460D01*
X12177086Y-11257460D02*
X12167563Y-11247936D01*
X12167563Y-11247936D02*
X12158039Y-11228888D01*
X12158039Y-11228888D02*
X12148515Y-11190793D01*
X12148515Y-11190793D02*
X12148515Y-11143174D01*
X12148515Y-11143174D02*
X12158039Y-11105079D01*
X12158039Y-11105079D02*
X12167563Y-11086031D01*
X12167563Y-11086031D02*
X12177086Y-11076508D01*
X12177086Y-11076508D02*
X12196134Y-11066984D01*
X12348515Y-11247936D02*
X12358039Y-11257460D01*
X12358039Y-11257460D02*
X12348515Y-11266984D01*
X12348515Y-11266984D02*
X12338991Y-11257460D01*
X12338991Y-11257460D02*
X12348515Y-11247936D01*
X12348515Y-11247936D02*
X12348515Y-11266984D01*
X12481848Y-11066984D02*
X12500896Y-11066984D01*
X12500896Y-11066984D02*
X12519944Y-11076508D01*
X12519944Y-11076508D02*
X12529467Y-11086031D01*
X12529467Y-11086031D02*
X12538991Y-11105079D01*
X12538991Y-11105079D02*
X12548515Y-11143174D01*
X12548515Y-11143174D02*
X12548515Y-11190793D01*
X12548515Y-11190793D02*
X12538991Y-11228888D01*
X12538991Y-11228888D02*
X12529467Y-11247936D01*
X12529467Y-11247936D02*
X12519944Y-11257460D01*
X12519944Y-11257460D02*
X12500896Y-11266984D01*
X12500896Y-11266984D02*
X12481848Y-11266984D01*
X12481848Y-11266984D02*
X12462801Y-11257460D01*
X12462801Y-11257460D02*
X12453277Y-11247936D01*
X12453277Y-11247936D02*
X12443753Y-11228888D01*
X12443753Y-11228888D02*
X12434229Y-11190793D01*
X12434229Y-11190793D02*
X12434229Y-11143174D01*
X12434229Y-11143174D02*
X12443753Y-11105079D01*
X12443753Y-11105079D02*
X12453277Y-11086031D01*
X12453277Y-11086031D02*
X12462801Y-11076508D01*
X12462801Y-11076508D02*
X12481848Y-11066984D01*
X12719944Y-11133650D02*
X12719944Y-11266984D01*
X12672325Y-11057460D02*
X12624706Y-11200317D01*
X12624706Y-11200317D02*
X12748515Y-11200317D01*
X12805658Y-11066984D02*
X12929467Y-11066984D01*
X12929467Y-11066984D02*
X12862801Y-11143174D01*
X12862801Y-11143174D02*
X12891372Y-11143174D01*
X12891372Y-11143174D02*
X12910420Y-11152698D01*
X12910420Y-11152698D02*
X12919944Y-11162222D01*
X12919944Y-11162222D02*
X12929467Y-11181270D01*
X12929467Y-11181270D02*
X12929467Y-11228888D01*
X12929467Y-11228888D02*
X12919944Y-11247936D01*
X12919944Y-11247936D02*
X12910420Y-11257460D01*
X12910420Y-11257460D02*
X12891372Y-11266984D01*
X12891372Y-11266984D02*
X12834229Y-11266984D01*
X12834229Y-11266984D02*
X12815182Y-11257460D01*
X12815182Y-11257460D02*
X12805658Y-11247936D01*
X12996134Y-11066984D02*
X13119944Y-11066984D01*
X13119944Y-11066984D02*
X13053277Y-11143174D01*
X13053277Y-11143174D02*
X13081848Y-11143174D01*
X13081848Y-11143174D02*
X13100896Y-11152698D01*
X13100896Y-11152698D02*
X13110420Y-11162222D01*
X13110420Y-11162222D02*
X13119944Y-11181270D01*
X13119944Y-11181270D02*
X13119944Y-11228888D01*
X13119944Y-11228888D02*
X13110420Y-11247936D01*
X13110420Y-11247936D02*
X13100896Y-11257460D01*
X13100896Y-11257460D02*
X13081848Y-11266984D01*
X13081848Y-11266984D02*
X13024706Y-11266984D01*
X13024706Y-11266984D02*
X13005658Y-11257460D01*
X13005658Y-11257460D02*
X12996134Y-11247936D01*
X13196134Y-11066984D02*
X13196134Y-11105079D01*
X13272325Y-11066984D02*
X13272325Y-11105079D01*
X13567563Y-11343174D02*
X13558039Y-11333650D01*
X13558039Y-11333650D02*
X13538991Y-11305079D01*
X13538991Y-11305079D02*
X13529468Y-11286031D01*
X13529468Y-11286031D02*
X13519944Y-11257460D01*
X13519944Y-11257460D02*
X13510420Y-11209841D01*
X13510420Y-11209841D02*
X13510420Y-11171746D01*
X13510420Y-11171746D02*
X13519944Y-11124127D01*
X13519944Y-11124127D02*
X13529468Y-11095555D01*
X13529468Y-11095555D02*
X13538991Y-11076508D01*
X13538991Y-11076508D02*
X13558039Y-11047936D01*
X13558039Y-11047936D02*
X13567563Y-11038412D01*
X13729468Y-11133650D02*
X13729468Y-11266984D01*
X13681848Y-11057460D02*
X13634229Y-11200317D01*
X13634229Y-11200317D02*
X13758039Y-11200317D01*
X13986610Y-11266984D02*
X13986610Y-11066984D01*
X14072325Y-11266984D02*
X14072325Y-11162222D01*
X14072325Y-11162222D02*
X14062801Y-11143174D01*
X14062801Y-11143174D02*
X14043753Y-11133650D01*
X14043753Y-11133650D02*
X14015182Y-11133650D01*
X14015182Y-11133650D02*
X13996134Y-11143174D01*
X13996134Y-11143174D02*
X13986610Y-11152698D01*
X14196134Y-11266984D02*
X14177087Y-11257460D01*
X14177087Y-11257460D02*
X14167563Y-11247936D01*
X14167563Y-11247936D02*
X14158039Y-11228888D01*
X14158039Y-11228888D02*
X14158039Y-11171746D01*
X14158039Y-11171746D02*
X14167563Y-11152698D01*
X14167563Y-11152698D02*
X14177087Y-11143174D01*
X14177087Y-11143174D02*
X14196134Y-11133650D01*
X14196134Y-11133650D02*
X14224706Y-11133650D01*
X14224706Y-11133650D02*
X14243753Y-11143174D01*
X14243753Y-11143174D02*
X14253277Y-11152698D01*
X14253277Y-11152698D02*
X14262801Y-11171746D01*
X14262801Y-11171746D02*
X14262801Y-11228888D01*
X14262801Y-11228888D02*
X14253277Y-11247936D01*
X14253277Y-11247936D02*
X14243753Y-11257460D01*
X14243753Y-11257460D02*
X14224706Y-11266984D01*
X14224706Y-11266984D02*
X14196134Y-11266984D01*
X14377087Y-11266984D02*
X14358039Y-11257460D01*
X14358039Y-11257460D02*
X14348515Y-11238412D01*
X14348515Y-11238412D02*
X14348515Y-11066984D01*
X14529468Y-11257460D02*
X14510420Y-11266984D01*
X14510420Y-11266984D02*
X14472325Y-11266984D01*
X14472325Y-11266984D02*
X14453277Y-11257460D01*
X14453277Y-11257460D02*
X14443753Y-11238412D01*
X14443753Y-11238412D02*
X14443753Y-11162222D01*
X14443753Y-11162222D02*
X14453277Y-11143174D01*
X14453277Y-11143174D02*
X14472325Y-11133650D01*
X14472325Y-11133650D02*
X14510420Y-11133650D01*
X14510420Y-11133650D02*
X14529468Y-11143174D01*
X14529468Y-11143174D02*
X14538991Y-11162222D01*
X14538991Y-11162222D02*
X14538991Y-11181270D01*
X14538991Y-11181270D02*
X14443753Y-11200317D01*
X14615182Y-11257460D02*
X14634230Y-11266984D01*
X14634230Y-11266984D02*
X14672325Y-11266984D01*
X14672325Y-11266984D02*
X14691372Y-11257460D01*
X14691372Y-11257460D02*
X14700896Y-11238412D01*
X14700896Y-11238412D02*
X14700896Y-11228888D01*
X14700896Y-11228888D02*
X14691372Y-11209841D01*
X14691372Y-11209841D02*
X14672325Y-11200317D01*
X14672325Y-11200317D02*
X14643753Y-11200317D01*
X14643753Y-11200317D02*
X14624706Y-11190793D01*
X14624706Y-11190793D02*
X14615182Y-11171746D01*
X14615182Y-11171746D02*
X14615182Y-11162222D01*
X14615182Y-11162222D02*
X14624706Y-11143174D01*
X14624706Y-11143174D02*
X14643753Y-11133650D01*
X14643753Y-11133650D02*
X14672325Y-11133650D01*
X14672325Y-11133650D02*
X14691372Y-11143174D01*
X14767563Y-11343174D02*
X14777087Y-11333650D01*
X14777087Y-11333650D02*
X14796134Y-11305079D01*
X14796134Y-11305079D02*
X14805658Y-11286031D01*
X14805658Y-11286031D02*
X14815182Y-11257460D01*
X14815182Y-11257460D02*
X14824706Y-11209841D01*
X14824706Y-11209841D02*
X14824706Y-11171746D01*
X14824706Y-11171746D02*
X14815182Y-11124127D01*
X14815182Y-11124127D02*
X14805658Y-11095555D01*
X14805658Y-11095555D02*
X14796134Y-11076508D01*
X14796134Y-11076508D02*
X14777087Y-11047936D01*
X14777087Y-11047936D02*
X14767563Y-11038412D01*
D14*
X9974927Y-11481927D02*
X9974927Y-11397073D01*
X9890073Y-11397073D01*
X9890073Y-11481927D01*
X9974927Y-11481927D01*
D11*
X10358039Y-11530984D02*
X10243753Y-11530984D01*
X10300896Y-11530984D02*
X10300896Y-11330984D01*
X10300896Y-11330984D02*
X10281848Y-11359555D01*
X10281848Y-11359555D02*
X10262801Y-11378603D01*
X10262801Y-11378603D02*
X10243753Y-11388127D01*
X10443753Y-11511936D02*
X10453277Y-11521460D01*
X10453277Y-11521460D02*
X10443753Y-11530984D01*
X10443753Y-11530984D02*
X10434229Y-11521460D01*
X10434229Y-11521460D02*
X10443753Y-11511936D01*
X10443753Y-11511936D02*
X10443753Y-11530984D01*
X10529467Y-11350031D02*
X10538991Y-11340508D01*
X10538991Y-11340508D02*
X10558039Y-11330984D01*
X10558039Y-11330984D02*
X10605658Y-11330984D01*
X10605658Y-11330984D02*
X10624705Y-11340508D01*
X10624705Y-11340508D02*
X10634229Y-11350031D01*
X10634229Y-11350031D02*
X10643753Y-11369079D01*
X10643753Y-11369079D02*
X10643753Y-11388127D01*
X10643753Y-11388127D02*
X10634229Y-11416698D01*
X10634229Y-11416698D02*
X10519944Y-11530984D01*
X10519944Y-11530984D02*
X10643753Y-11530984D01*
X10767563Y-11330984D02*
X10786610Y-11330984D01*
X10786610Y-11330984D02*
X10805658Y-11340508D01*
X10805658Y-11340508D02*
X10815182Y-11350031D01*
X10815182Y-11350031D02*
X10824705Y-11369079D01*
X10824705Y-11369079D02*
X10834229Y-11407174D01*
X10834229Y-11407174D02*
X10834229Y-11454793D01*
X10834229Y-11454793D02*
X10824705Y-11492888D01*
X10824705Y-11492888D02*
X10815182Y-11511936D01*
X10815182Y-11511936D02*
X10805658Y-11521460D01*
X10805658Y-11521460D02*
X10786610Y-11530984D01*
X10786610Y-11530984D02*
X10767563Y-11530984D01*
X10767563Y-11530984D02*
X10748515Y-11521460D01*
X10748515Y-11521460D02*
X10738991Y-11511936D01*
X10738991Y-11511936D02*
X10729467Y-11492888D01*
X10729467Y-11492888D02*
X10719944Y-11454793D01*
X10719944Y-11454793D02*
X10719944Y-11407174D01*
X10719944Y-11407174D02*
X10729467Y-11369079D01*
X10729467Y-11369079D02*
X10738991Y-11350031D01*
X10738991Y-11350031D02*
X10748515Y-11340508D01*
X10748515Y-11340508D02*
X10767563Y-11330984D01*
X10958039Y-11330984D02*
X10977086Y-11330984D01*
X10977086Y-11330984D02*
X10996134Y-11340508D01*
X10996134Y-11340508D02*
X11005658Y-11350031D01*
X11005658Y-11350031D02*
X11015182Y-11369079D01*
X11015182Y-11369079D02*
X11024705Y-11407174D01*
X11024705Y-11407174D02*
X11024705Y-11454793D01*
X11024705Y-11454793D02*
X11015182Y-11492888D01*
X11015182Y-11492888D02*
X11005658Y-11511936D01*
X11005658Y-11511936D02*
X10996134Y-11521460D01*
X10996134Y-11521460D02*
X10977086Y-11530984D01*
X10977086Y-11530984D02*
X10958039Y-11530984D01*
X10958039Y-11530984D02*
X10938991Y-11521460D01*
X10938991Y-11521460D02*
X10929467Y-11511936D01*
X10929467Y-11511936D02*
X10919944Y-11492888D01*
X10919944Y-11492888D02*
X10910420Y-11454793D01*
X10910420Y-11454793D02*
X10910420Y-11407174D01*
X10910420Y-11407174D02*
X10919944Y-11369079D01*
X10919944Y-11369079D02*
X10929467Y-11350031D01*
X10929467Y-11350031D02*
X10938991Y-11340508D01*
X10938991Y-11340508D02*
X10958039Y-11330984D01*
X11110420Y-11530984D02*
X11110420Y-11397650D01*
X11110420Y-11416698D02*
X11119944Y-11407174D01*
X11119944Y-11407174D02*
X11138991Y-11397650D01*
X11138991Y-11397650D02*
X11167563Y-11397650D01*
X11167563Y-11397650D02*
X11186610Y-11407174D01*
X11186610Y-11407174D02*
X11196134Y-11426222D01*
X11196134Y-11426222D02*
X11196134Y-11530984D01*
X11196134Y-11426222D02*
X11205658Y-11407174D01*
X11205658Y-11407174D02*
X11224705Y-11397650D01*
X11224705Y-11397650D02*
X11253277Y-11397650D01*
X11253277Y-11397650D02*
X11272324Y-11407174D01*
X11272324Y-11407174D02*
X11281848Y-11426222D01*
X11281848Y-11426222D02*
X11281848Y-11530984D01*
X11377086Y-11530984D02*
X11377086Y-11397650D01*
X11377086Y-11416698D02*
X11386610Y-11407174D01*
X11386610Y-11407174D02*
X11405658Y-11397650D01*
X11405658Y-11397650D02*
X11434229Y-11397650D01*
X11434229Y-11397650D02*
X11453277Y-11407174D01*
X11453277Y-11407174D02*
X11462801Y-11426222D01*
X11462801Y-11426222D02*
X11462801Y-11530984D01*
X11462801Y-11426222D02*
X11472324Y-11407174D01*
X11472324Y-11407174D02*
X11491372Y-11397650D01*
X11491372Y-11397650D02*
X11519943Y-11397650D01*
X11519943Y-11397650D02*
X11538991Y-11407174D01*
X11538991Y-11407174D02*
X11548515Y-11426222D01*
X11548515Y-11426222D02*
X11548515Y-11530984D01*
X11938991Y-11321460D02*
X11767563Y-11578603D01*
X12196134Y-11330984D02*
X12215182Y-11330984D01*
X12215182Y-11330984D02*
X12234229Y-11340508D01*
X12234229Y-11340508D02*
X12243753Y-11350031D01*
X12243753Y-11350031D02*
X12253277Y-11369079D01*
X12253277Y-11369079D02*
X12262801Y-11407174D01*
X12262801Y-11407174D02*
X12262801Y-11454793D01*
X12262801Y-11454793D02*
X12253277Y-11492888D01*
X12253277Y-11492888D02*
X12243753Y-11511936D01*
X12243753Y-11511936D02*
X12234229Y-11521460D01*
X12234229Y-11521460D02*
X12215182Y-11530984D01*
X12215182Y-11530984D02*
X12196134Y-11530984D01*
X12196134Y-11530984D02*
X12177086Y-11521460D01*
X12177086Y-11521460D02*
X12167563Y-11511936D01*
X12167563Y-11511936D02*
X12158039Y-11492888D01*
X12158039Y-11492888D02*
X12148515Y-11454793D01*
X12148515Y-11454793D02*
X12148515Y-11407174D01*
X12148515Y-11407174D02*
X12158039Y-11369079D01*
X12158039Y-11369079D02*
X12167563Y-11350031D01*
X12167563Y-11350031D02*
X12177086Y-11340508D01*
X12177086Y-11340508D02*
X12196134Y-11330984D01*
X12348515Y-11511936D02*
X12358039Y-11521460D01*
X12358039Y-11521460D02*
X12348515Y-11530984D01*
X12348515Y-11530984D02*
X12338991Y-11521460D01*
X12338991Y-11521460D02*
X12348515Y-11511936D01*
X12348515Y-11511936D02*
X12348515Y-11530984D01*
X12481848Y-11330984D02*
X12500896Y-11330984D01*
X12500896Y-11330984D02*
X12519944Y-11340508D01*
X12519944Y-11340508D02*
X12529467Y-11350031D01*
X12529467Y-11350031D02*
X12538991Y-11369079D01*
X12538991Y-11369079D02*
X12548515Y-11407174D01*
X12548515Y-11407174D02*
X12548515Y-11454793D01*
X12548515Y-11454793D02*
X12538991Y-11492888D01*
X12538991Y-11492888D02*
X12529467Y-11511936D01*
X12529467Y-11511936D02*
X12519944Y-11521460D01*
X12519944Y-11521460D02*
X12500896Y-11530984D01*
X12500896Y-11530984D02*
X12481848Y-11530984D01*
X12481848Y-11530984D02*
X12462801Y-11521460D01*
X12462801Y-11521460D02*
X12453277Y-11511936D01*
X12453277Y-11511936D02*
X12443753Y-11492888D01*
X12443753Y-11492888D02*
X12434229Y-11454793D01*
X12434229Y-11454793D02*
X12434229Y-11407174D01*
X12434229Y-11407174D02*
X12443753Y-11369079D01*
X12443753Y-11369079D02*
X12453277Y-11350031D01*
X12453277Y-11350031D02*
X12462801Y-11340508D01*
X12462801Y-11340508D02*
X12481848Y-11330984D01*
X12719944Y-11397650D02*
X12719944Y-11530984D01*
X12672325Y-11321460D02*
X12624706Y-11464317D01*
X12624706Y-11464317D02*
X12748515Y-11464317D01*
X12805658Y-11330984D02*
X12938991Y-11330984D01*
X12938991Y-11330984D02*
X12853277Y-11530984D01*
X13005658Y-11350031D02*
X13015182Y-11340508D01*
X13015182Y-11340508D02*
X13034229Y-11330984D01*
X13034229Y-11330984D02*
X13081848Y-11330984D01*
X13081848Y-11330984D02*
X13100896Y-11340508D01*
X13100896Y-11340508D02*
X13110420Y-11350031D01*
X13110420Y-11350031D02*
X13119944Y-11369079D01*
X13119944Y-11369079D02*
X13119944Y-11388127D01*
X13119944Y-11388127D02*
X13110420Y-11416698D01*
X13110420Y-11416698D02*
X12996134Y-11530984D01*
X12996134Y-11530984D02*
X13119944Y-11530984D01*
X13196134Y-11330984D02*
X13196134Y-11369079D01*
X13272325Y-11330984D02*
X13272325Y-11369079D01*
X13567563Y-11607174D02*
X13558039Y-11597650D01*
X13558039Y-11597650D02*
X13538991Y-11569079D01*
X13538991Y-11569079D02*
X13529468Y-11550031D01*
X13529468Y-11550031D02*
X13519944Y-11521460D01*
X13519944Y-11521460D02*
X13510420Y-11473841D01*
X13510420Y-11473841D02*
X13510420Y-11435746D01*
X13510420Y-11435746D02*
X13519944Y-11388127D01*
X13519944Y-11388127D02*
X13529468Y-11359555D01*
X13529468Y-11359555D02*
X13538991Y-11340508D01*
X13538991Y-11340508D02*
X13558039Y-11311936D01*
X13558039Y-11311936D02*
X13567563Y-11302412D01*
X13729468Y-11397650D02*
X13729468Y-11530984D01*
X13681848Y-11321460D02*
X13634229Y-11464317D01*
X13634229Y-11464317D02*
X13758039Y-11464317D01*
X13986610Y-11530984D02*
X13986610Y-11330984D01*
X14072325Y-11530984D02*
X14072325Y-11426222D01*
X14072325Y-11426222D02*
X14062801Y-11407174D01*
X14062801Y-11407174D02*
X14043753Y-11397650D01*
X14043753Y-11397650D02*
X14015182Y-11397650D01*
X14015182Y-11397650D02*
X13996134Y-11407174D01*
X13996134Y-11407174D02*
X13986610Y-11416698D01*
X14196134Y-11530984D02*
X14177087Y-11521460D01*
X14177087Y-11521460D02*
X14167563Y-11511936D01*
X14167563Y-11511936D02*
X14158039Y-11492888D01*
X14158039Y-11492888D02*
X14158039Y-11435746D01*
X14158039Y-11435746D02*
X14167563Y-11416698D01*
X14167563Y-11416698D02*
X14177087Y-11407174D01*
X14177087Y-11407174D02*
X14196134Y-11397650D01*
X14196134Y-11397650D02*
X14224706Y-11397650D01*
X14224706Y-11397650D02*
X14243753Y-11407174D01*
X14243753Y-11407174D02*
X14253277Y-11416698D01*
X14253277Y-11416698D02*
X14262801Y-11435746D01*
X14262801Y-11435746D02*
X14262801Y-11492888D01*
X14262801Y-11492888D02*
X14253277Y-11511936D01*
X14253277Y-11511936D02*
X14243753Y-11521460D01*
X14243753Y-11521460D02*
X14224706Y-11530984D01*
X14224706Y-11530984D02*
X14196134Y-11530984D01*
X14377087Y-11530984D02*
X14358039Y-11521460D01*
X14358039Y-11521460D02*
X14348515Y-11502412D01*
X14348515Y-11502412D02*
X14348515Y-11330984D01*
X14529468Y-11521460D02*
X14510420Y-11530984D01*
X14510420Y-11530984D02*
X14472325Y-11530984D01*
X14472325Y-11530984D02*
X14453277Y-11521460D01*
X14453277Y-11521460D02*
X14443753Y-11502412D01*
X14443753Y-11502412D02*
X14443753Y-11426222D01*
X14443753Y-11426222D02*
X14453277Y-11407174D01*
X14453277Y-11407174D02*
X14472325Y-11397650D01*
X14472325Y-11397650D02*
X14510420Y-11397650D01*
X14510420Y-11397650D02*
X14529468Y-11407174D01*
X14529468Y-11407174D02*
X14538991Y-11426222D01*
X14538991Y-11426222D02*
X14538991Y-11445269D01*
X14538991Y-11445269D02*
X14443753Y-11464317D01*
X14615182Y-11521460D02*
X14634230Y-11530984D01*
X14634230Y-11530984D02*
X14672325Y-11530984D01*
X14672325Y-11530984D02*
X14691372Y-11521460D01*
X14691372Y-11521460D02*
X14700896Y-11502412D01*
X14700896Y-11502412D02*
X14700896Y-11492888D01*
X14700896Y-11492888D02*
X14691372Y-11473841D01*
X14691372Y-11473841D02*
X14672325Y-11464317D01*
X14672325Y-11464317D02*
X14643753Y-11464317D01*
X14643753Y-11464317D02*
X14624706Y-11454793D01*
X14624706Y-11454793D02*
X14615182Y-11435746D01*
X14615182Y-11435746D02*
X14615182Y-11426222D01*
X14615182Y-11426222D02*
X14624706Y-11407174D01*
X14624706Y-11407174D02*
X14643753Y-11397650D01*
X14643753Y-11397650D02*
X14672325Y-11397650D01*
X14672325Y-11397650D02*
X14691372Y-11407174D01*
X14767563Y-11607174D02*
X14777087Y-11597650D01*
X14777087Y-11597650D02*
X14796134Y-11569079D01*
X14796134Y-11569079D02*
X14805658Y-11550031D01*
X14805658Y-11550031D02*
X14815182Y-11521460D01*
X14815182Y-11521460D02*
X14824706Y-11473841D01*
X14824706Y-11473841D02*
X14824706Y-11435746D01*
X14824706Y-11435746D02*
X14815182Y-11388127D01*
X14815182Y-11388127D02*
X14805658Y-11359555D01*
X14805658Y-11359555D02*
X14796134Y-11340508D01*
X14796134Y-11340508D02*
X14777087Y-11311936D01*
X14777087Y-11311936D02*
X14767563Y-11302412D01*
M02*
