%TF.GenerationSoftware,KiCad,Pcbnew,8.0.2*%
%TF.CreationDate,2025-12-20T19:31:58-05:00*%
%TF.ProjectId,robotv2_transmitter,726f626f-7476-4325-9f74-72616e736d69,rev?*%
%TF.SameCoordinates,Original*%
%TF.FileFunction,Legend,Top*%
%TF.FilePolarity,Positive*%
%FSLAX46Y46*%
G04 Gerber Fmt 4.6, Leading zero omitted, Abs format (unit mm)*
G04 Created by KiCad (PCBNEW 8.0.2) date 2025-12-20 19:31:58*
%MOMM*%
%LPD*%
G01*
G04 APERTURE LIST*
%ADD10C,0.150000*%
%ADD11C,0.120000*%
G04 APERTURE END LIST*
D10*
X158494819Y-56743094D02*
X157494819Y-56743094D01*
X157494819Y-56743094D02*
X157494819Y-56504999D01*
X157494819Y-56504999D02*
X157542438Y-56362142D01*
X157542438Y-56362142D02*
X157637676Y-56266904D01*
X157637676Y-56266904D02*
X157732914Y-56219285D01*
X157732914Y-56219285D02*
X157923390Y-56171666D01*
X157923390Y-56171666D02*
X158066247Y-56171666D01*
X158066247Y-56171666D02*
X158256723Y-56219285D01*
X158256723Y-56219285D02*
X158351961Y-56266904D01*
X158351961Y-56266904D02*
X158447200Y-56362142D01*
X158447200Y-56362142D02*
X158494819Y-56504999D01*
X158494819Y-56504999D02*
X158494819Y-56743094D01*
X158494819Y-55219285D02*
X158494819Y-55790713D01*
X158494819Y-55504999D02*
X157494819Y-55504999D01*
X157494819Y-55504999D02*
X157637676Y-55600237D01*
X157637676Y-55600237D02*
X157732914Y-55695475D01*
X157732914Y-55695475D02*
X157780533Y-55790713D01*
X106285714Y-51584819D02*
X106285714Y-50584819D01*
X106285714Y-50584819D02*
X106523809Y-50584819D01*
X106523809Y-50584819D02*
X106666666Y-50632438D01*
X106666666Y-50632438D02*
X106761904Y-50727676D01*
X106761904Y-50727676D02*
X106809523Y-50822914D01*
X106809523Y-50822914D02*
X106857142Y-51013390D01*
X106857142Y-51013390D02*
X106857142Y-51156247D01*
X106857142Y-51156247D02*
X106809523Y-51346723D01*
X106809523Y-51346723D02*
X106761904Y-51441961D01*
X106761904Y-51441961D02*
X106666666Y-51537200D01*
X106666666Y-51537200D02*
X106523809Y-51584819D01*
X106523809Y-51584819D02*
X106285714Y-51584819D01*
X107238095Y-51537200D02*
X107380952Y-51584819D01*
X107380952Y-51584819D02*
X107619047Y-51584819D01*
X107619047Y-51584819D02*
X107714285Y-51537200D01*
X107714285Y-51537200D02*
X107761904Y-51489580D01*
X107761904Y-51489580D02*
X107809523Y-51394342D01*
X107809523Y-51394342D02*
X107809523Y-51299104D01*
X107809523Y-51299104D02*
X107761904Y-51203866D01*
X107761904Y-51203866D02*
X107714285Y-51156247D01*
X107714285Y-51156247D02*
X107619047Y-51108628D01*
X107619047Y-51108628D02*
X107428571Y-51061009D01*
X107428571Y-51061009D02*
X107333333Y-51013390D01*
X107333333Y-51013390D02*
X107285714Y-50965771D01*
X107285714Y-50965771D02*
X107238095Y-50870533D01*
X107238095Y-50870533D02*
X107238095Y-50775295D01*
X107238095Y-50775295D02*
X107285714Y-50680057D01*
X107285714Y-50680057D02*
X107333333Y-50632438D01*
X107333333Y-50632438D02*
X107428571Y-50584819D01*
X107428571Y-50584819D02*
X107666666Y-50584819D01*
X107666666Y-50584819D02*
X107809523Y-50632438D01*
X108761904Y-51584819D02*
X108190476Y-51584819D01*
X108476190Y-51584819D02*
X108476190Y-50584819D01*
X108476190Y-50584819D02*
X108380952Y-50727676D01*
X108380952Y-50727676D02*
X108285714Y-50822914D01*
X108285714Y-50822914D02*
X108190476Y-50870533D01*
X160666667Y-79157200D02*
X160809524Y-79204819D01*
X160809524Y-79204819D02*
X161047619Y-79204819D01*
X161047619Y-79204819D02*
X161142857Y-79157200D01*
X161142857Y-79157200D02*
X161190476Y-79109580D01*
X161190476Y-79109580D02*
X161238095Y-79014342D01*
X161238095Y-79014342D02*
X161238095Y-78919104D01*
X161238095Y-78919104D02*
X161190476Y-78823866D01*
X161190476Y-78823866D02*
X161142857Y-78776247D01*
X161142857Y-78776247D02*
X161047619Y-78728628D01*
X161047619Y-78728628D02*
X160857143Y-78681009D01*
X160857143Y-78681009D02*
X160761905Y-78633390D01*
X160761905Y-78633390D02*
X160714286Y-78585771D01*
X160714286Y-78585771D02*
X160666667Y-78490533D01*
X160666667Y-78490533D02*
X160666667Y-78395295D01*
X160666667Y-78395295D02*
X160714286Y-78300057D01*
X160714286Y-78300057D02*
X160761905Y-78252438D01*
X160761905Y-78252438D02*
X160857143Y-78204819D01*
X160857143Y-78204819D02*
X161095238Y-78204819D01*
X161095238Y-78204819D02*
X161238095Y-78252438D01*
X161571429Y-78204819D02*
X161809524Y-79204819D01*
X161809524Y-79204819D02*
X162000000Y-78490533D01*
X162000000Y-78490533D02*
X162190476Y-79204819D01*
X162190476Y-79204819D02*
X162428572Y-78204819D01*
X163333333Y-79204819D02*
X162761905Y-79204819D01*
X163047619Y-79204819D02*
X163047619Y-78204819D01*
X163047619Y-78204819D02*
X162952381Y-78347676D01*
X162952381Y-78347676D02*
X162857143Y-78442914D01*
X162857143Y-78442914D02*
X162761905Y-78490533D01*
X132833333Y-83684819D02*
X132500000Y-83208628D01*
X132261905Y-83684819D02*
X132261905Y-82684819D01*
X132261905Y-82684819D02*
X132642857Y-82684819D01*
X132642857Y-82684819D02*
X132738095Y-82732438D01*
X132738095Y-82732438D02*
X132785714Y-82780057D01*
X132785714Y-82780057D02*
X132833333Y-82875295D01*
X132833333Y-82875295D02*
X132833333Y-83018152D01*
X132833333Y-83018152D02*
X132785714Y-83113390D01*
X132785714Y-83113390D02*
X132738095Y-83161009D01*
X132738095Y-83161009D02*
X132642857Y-83208628D01*
X132642857Y-83208628D02*
X132261905Y-83208628D01*
X133214286Y-82780057D02*
X133261905Y-82732438D01*
X133261905Y-82732438D02*
X133357143Y-82684819D01*
X133357143Y-82684819D02*
X133595238Y-82684819D01*
X133595238Y-82684819D02*
X133690476Y-82732438D01*
X133690476Y-82732438D02*
X133738095Y-82780057D01*
X133738095Y-82780057D02*
X133785714Y-82875295D01*
X133785714Y-82875295D02*
X133785714Y-82970533D01*
X133785714Y-82970533D02*
X133738095Y-83113390D01*
X133738095Y-83113390D02*
X133166667Y-83684819D01*
X133166667Y-83684819D02*
X133785714Y-83684819D01*
X155833333Y-58534819D02*
X155500000Y-58058628D01*
X155261905Y-58534819D02*
X155261905Y-57534819D01*
X155261905Y-57534819D02*
X155642857Y-57534819D01*
X155642857Y-57534819D02*
X155738095Y-57582438D01*
X155738095Y-57582438D02*
X155785714Y-57630057D01*
X155785714Y-57630057D02*
X155833333Y-57725295D01*
X155833333Y-57725295D02*
X155833333Y-57868152D01*
X155833333Y-57868152D02*
X155785714Y-57963390D01*
X155785714Y-57963390D02*
X155738095Y-58011009D01*
X155738095Y-58011009D02*
X155642857Y-58058628D01*
X155642857Y-58058628D02*
X155261905Y-58058628D01*
X156785714Y-58534819D02*
X156214286Y-58534819D01*
X156500000Y-58534819D02*
X156500000Y-57534819D01*
X156500000Y-57534819D02*
X156404762Y-57677676D01*
X156404762Y-57677676D02*
X156309524Y-57772914D01*
X156309524Y-57772914D02*
X156214286Y-57820533D01*
X158666666Y-65644819D02*
X158666666Y-66359104D01*
X158666666Y-66359104D02*
X158619047Y-66501961D01*
X158619047Y-66501961D02*
X158523809Y-66597200D01*
X158523809Y-66597200D02*
X158380952Y-66644819D01*
X158380952Y-66644819D02*
X158285714Y-66644819D01*
X159619047Y-65644819D02*
X159142857Y-65644819D01*
X159142857Y-65644819D02*
X159095238Y-66121009D01*
X159095238Y-66121009D02*
X159142857Y-66073390D01*
X159142857Y-66073390D02*
X159238095Y-66025771D01*
X159238095Y-66025771D02*
X159476190Y-66025771D01*
X159476190Y-66025771D02*
X159571428Y-66073390D01*
X159571428Y-66073390D02*
X159619047Y-66121009D01*
X159619047Y-66121009D02*
X159666666Y-66216247D01*
X159666666Y-66216247D02*
X159666666Y-66454342D01*
X159666666Y-66454342D02*
X159619047Y-66549580D01*
X159619047Y-66549580D02*
X159571428Y-66597200D01*
X159571428Y-66597200D02*
X159476190Y-66644819D01*
X159476190Y-66644819D02*
X159238095Y-66644819D01*
X159238095Y-66644819D02*
X159142857Y-66597200D01*
X159142857Y-66597200D02*
X159095238Y-66549580D01*
D11*
%TO.C,D1*%
X159764000Y-57565000D02*
X159920000Y-57565000D01*
X162080000Y-57565000D02*
X162236000Y-57565000D01*
X159764484Y-57565000D02*
G75*
G02*
X159921392Y-54332665I1235516J1560000D01*
G01*
X159920000Y-57045961D02*
G75*
G02*
X159920163Y-54963870I1080000J1040961D01*
G01*
X162079837Y-54963870D02*
G75*
G02*
X162080000Y-57045961I-1079837J-1041130D01*
G01*
X162078608Y-54332665D02*
G75*
G02*
X162235516Y-57565000I-1078608J-1672335D01*
G01*
%TO.C,DS1*%
X106170000Y-55170000D02*
X106170000Y-93330000D01*
X106170000Y-55170000D02*
X108830000Y-55170000D01*
X106170000Y-93330000D02*
X108830000Y-93330000D01*
X107500000Y-52570000D02*
X108830000Y-52570000D01*
X108830000Y-52570000D02*
X108830000Y-53900000D01*
X108830000Y-55170000D02*
X108830000Y-93330000D01*
%TO.C,SW1*%
X158500000Y-82250000D02*
X158500000Y-83750000D01*
X159750000Y-86250000D02*
X164250000Y-86250000D01*
X164250000Y-79750000D02*
X159750000Y-79750000D01*
X165500000Y-83750000D02*
X165500000Y-82250000D01*
%TO.C,R2*%
X138070000Y-88070000D02*
X138070000Y-87590000D01*
X138070000Y-84230000D02*
X138070000Y-84710000D01*
X127930000Y-88070000D02*
X138070000Y-88070000D01*
X127930000Y-87590000D02*
X127930000Y-88070000D01*
X127930000Y-84710000D02*
X127930000Y-84230000D01*
X127930000Y-84230000D02*
X138070000Y-84230000D01*
%TO.C,R1*%
X161070000Y-62920000D02*
X161070000Y-62440000D01*
X161070000Y-59080000D02*
X161070000Y-59560000D01*
X150930000Y-62920000D02*
X161070000Y-62920000D01*
X150930000Y-62440000D02*
X150930000Y-62920000D01*
X150930000Y-59560000D02*
X150930000Y-59080000D01*
X150930000Y-59080000D02*
X161070000Y-59080000D01*
%TO.C,J5*%
X157670000Y-70230000D02*
X157670000Y-75370000D01*
X157670000Y-70230000D02*
X160330000Y-70230000D01*
X157670000Y-75370000D02*
X160330000Y-75370000D01*
X159000000Y-67630000D02*
X160330000Y-67630000D01*
X160330000Y-67630000D02*
X160330000Y-68960000D01*
X160330000Y-70230000D02*
X160330000Y-75370000D01*
%TO.C,J1*%
X126610000Y-96130000D02*
X127940000Y-96130000D01*
X126610000Y-97460000D02*
X126610000Y-96130000D01*
X129210000Y-96130000D02*
X147050000Y-96130000D01*
X129210000Y-98790000D02*
X129210000Y-96130000D01*
X129210000Y-98790000D02*
X147050000Y-98790000D01*
X147050000Y-98790000D02*
X147050000Y-96130000D01*
%TO.C,J3*%
X149470000Y-96130000D02*
X150800000Y-96130000D01*
X149470000Y-97460000D02*
X149470000Y-96130000D01*
X152070000Y-96130000D02*
X164830000Y-96130000D01*
X152070000Y-98790000D02*
X152070000Y-96130000D01*
X152070000Y-98790000D02*
X164830000Y-98790000D01*
X164830000Y-98790000D02*
X164830000Y-96130000D01*
%TO.C,J2*%
X117466000Y-47870000D02*
X118796000Y-47870000D01*
X117466000Y-49200000D02*
X117466000Y-47870000D01*
X120066000Y-47870000D02*
X142986000Y-47870000D01*
X120066000Y-50530000D02*
X120066000Y-47870000D01*
X120066000Y-50530000D02*
X142986000Y-50530000D01*
X142986000Y-50530000D02*
X142986000Y-47870000D01*
%TO.C,J4*%
X144390000Y-47870000D02*
X145720000Y-47870000D01*
X144390000Y-49200000D02*
X144390000Y-47870000D01*
X146990000Y-47870000D02*
X164830000Y-47870000D01*
X146990000Y-50530000D02*
X146990000Y-47870000D01*
X146990000Y-50530000D02*
X164830000Y-50530000D01*
X164830000Y-50530000D02*
X164830000Y-47870000D01*
%TD*%
M02*
