%TF.GenerationSoftware,KiCad,Pcbnew,8.0.2*%
%TF.CreationDate,2025-12-20T19:31:58-05:00*%
%TF.ProjectId,robotv2_transmitter,726f626f-7476-4325-9f74-72616e736d69,rev?*%
%TF.SameCoordinates,Original*%
%TF.FileFunction,Copper,L1,Top*%
%TF.FilePolarity,Positive*%
%FSLAX46Y46*%
G04 Gerber Fmt 4.6, Leading zero omitted, Abs format (unit mm)*
G04 Created by KiCad (PCBNEW 8.0.2) date 2025-12-20 19:31:58*
%MOMM*%
%LPD*%
G01*
G04 APERTURE LIST*
%TA.AperFunction,ComponentPad*%
%ADD10R,1.800000X1.800000*%
%TD*%
%TA.AperFunction,ComponentPad*%
%ADD11C,1.800000*%
%TD*%
%TA.AperFunction,ComponentPad*%
%ADD12R,1.700000X1.700000*%
%TD*%
%TA.AperFunction,ComponentPad*%
%ADD13O,1.700000X1.700000*%
%TD*%
%TA.AperFunction,ComponentPad*%
%ADD14C,2.000000*%
%TD*%
%TA.AperFunction,ComponentPad*%
%ADD15O,2.400000X2.400000*%
%TD*%
%TA.AperFunction,ComponentPad*%
%ADD16C,2.400000*%
%TD*%
%TA.AperFunction,Conductor*%
%ADD17C,0.250000*%
%TD*%
G04 APERTURE END LIST*
D10*
%TO.P,D1,1,K*%
%TO.N,Net-(D1-K)*%
X161000000Y-57275000D03*
D11*
%TO.P,D1,2,A*%
%TO.N,/\u002A6*%
X161000000Y-54735000D03*
%TD*%
D12*
%TO.P,DS1,1,VSS*%
%TO.N,GND*%
X107500000Y-53900000D03*
D13*
%TO.P,DS1,2,VDD*%
%TO.N,+5V*%
X107500000Y-56440000D03*
%TO.P,DS1,3,VO*%
%TO.N,unconnected-(DS1-VO-Pad3)*%
X107500000Y-58980000D03*
%TO.P,DS1,4,RS*%
%TO.N,/13*%
X107500000Y-61520000D03*
%TO.P,DS1,5,R/W*%
%TO.N,GND*%
X107500000Y-64060000D03*
%TO.P,DS1,6,E*%
%TO.N,/\u002A11*%
X107500000Y-66600000D03*
%TO.P,DS1,7,D0*%
%TO.N,unconnected-(DS1-D0-Pad7)*%
X107500000Y-69140000D03*
%TO.P,DS1,8,D1*%
%TO.N,unconnected-(DS1-D1-Pad8)*%
X107500000Y-71680000D03*
%TO.P,DS1,9,D2*%
%TO.N,unconnected-(DS1-D2-Pad9)*%
X107500000Y-74220000D03*
%TO.P,DS1,10,D3*%
%TO.N,unconnected-(DS1-D3-Pad10)*%
X107500000Y-76760000D03*
%TO.P,DS1,11,D4*%
%TO.N,/\u002A5*%
X107500000Y-79300000D03*
%TO.P,DS1,12,D5*%
%TO.N,/4*%
X107500000Y-81840000D03*
%TO.P,DS1,13,D6*%
%TO.N,/\u002A3*%
X107500000Y-84380000D03*
%TO.P,DS1,14,D7*%
%TO.N,/2*%
X107500000Y-86920000D03*
%TO.P,DS1,15,LED(+)*%
%TO.N,Net-(DS1-LED(+))*%
X107500000Y-89460000D03*
%TO.P,DS1,16,LED(-)*%
%TO.N,GND*%
X107500000Y-92000000D03*
%TD*%
D14*
%TO.P,SW1,1,1*%
%TO.N,/\u002A9*%
X158750000Y-80750000D03*
X165250000Y-80750000D03*
%TO.P,SW1,2,2*%
%TO.N,GND*%
X158750000Y-85250000D03*
X165250000Y-85250000D03*
%TD*%
D15*
%TO.P,R2,2*%
%TO.N,+5V*%
X139350000Y-86150000D03*
D16*
%TO.P,R2,1*%
%TO.N,Net-(DS1-LED(+))*%
X126650000Y-86150000D03*
%TD*%
D15*
%TO.P,R1,2*%
%TO.N,GND*%
X162350000Y-61000000D03*
D16*
%TO.P,R1,1*%
%TO.N,Net-(D1-K)*%
X149650000Y-61000000D03*
%TD*%
D12*
%TO.P,J5,1,Pin_1*%
%TO.N,+5V*%
X159000000Y-68960000D03*
D13*
%TO.P,J5,2,Pin_2*%
%TO.N,GND*%
X159000000Y-71500000D03*
%TO.P,J5,3,Pin_3*%
%TO.N,/12*%
X159000000Y-74040000D03*
%TD*%
D12*
%TO.P,J1,1,Pin_1*%
%TO.N,unconnected-(J1-Pin_1-Pad1)*%
X127940000Y-97460000D03*
D13*
%TO.P,J1,2,Pin_2*%
%TO.N,/IOREF*%
X130480000Y-97460000D03*
%TO.P,J1,3,Pin_3*%
%TO.N,/~{RESET}*%
X133020000Y-97460000D03*
%TO.P,J1,4,Pin_4*%
%TO.N,+3V3*%
X135560000Y-97460000D03*
%TO.P,J1,5,Pin_5*%
%TO.N,+5V*%
X138100000Y-97460000D03*
%TO.P,J1,6,Pin_6*%
%TO.N,GND*%
X140640000Y-97460000D03*
%TO.P,J1,7,Pin_7*%
X143180000Y-97460000D03*
%TO.P,J1,8,Pin_8*%
%TO.N,VCC*%
X145720000Y-97460000D03*
%TD*%
D12*
%TO.P,J3,1,Pin_1*%
%TO.N,/A0*%
X150800000Y-97460000D03*
D13*
%TO.P,J3,2,Pin_2*%
%TO.N,/A1*%
X153340000Y-97460000D03*
%TO.P,J3,3,Pin_3*%
%TO.N,/A2*%
X155880000Y-97460000D03*
%TO.P,J3,4,Pin_4*%
%TO.N,/A3*%
X158420000Y-97460000D03*
%TO.P,J3,5,Pin_5*%
%TO.N,/SDA{slash}A4*%
X160960000Y-97460000D03*
%TO.P,J3,6,Pin_6*%
%TO.N,/SCL{slash}A5*%
X163500000Y-97460000D03*
%TD*%
D12*
%TO.P,J2,1,Pin_1*%
%TO.N,/SCL{slash}A5*%
X118796000Y-49200000D03*
D13*
%TO.P,J2,2,Pin_2*%
%TO.N,/SDA{slash}A4*%
X121336000Y-49200000D03*
%TO.P,J2,3,Pin_3*%
%TO.N,/AREF*%
X123876000Y-49200000D03*
%TO.P,J2,4,Pin_4*%
%TO.N,GND*%
X126416000Y-49200000D03*
%TO.P,J2,5,Pin_5*%
%TO.N,/13*%
X128956000Y-49200000D03*
%TO.P,J2,6,Pin_6*%
%TO.N,/12*%
X131496000Y-49200000D03*
%TO.P,J2,7,Pin_7*%
%TO.N,/\u002A11*%
X134036000Y-49200000D03*
%TO.P,J2,8,Pin_8*%
%TO.N,/\u002A10*%
X136576000Y-49200000D03*
%TO.P,J2,9,Pin_9*%
%TO.N,/\u002A9*%
X139116000Y-49200000D03*
%TO.P,J2,10,Pin_10*%
%TO.N,/8*%
X141656000Y-49200000D03*
%TD*%
D12*
%TO.P,J4,1,Pin_1*%
%TO.N,/7*%
X145720000Y-49200000D03*
D13*
%TO.P,J4,2,Pin_2*%
%TO.N,/\u002A6*%
X148260000Y-49200000D03*
%TO.P,J4,3,Pin_3*%
%TO.N,/\u002A5*%
X150800000Y-49200000D03*
%TO.P,J4,4,Pin_4*%
%TO.N,/4*%
X153340000Y-49200000D03*
%TO.P,J4,5,Pin_5*%
%TO.N,/\u002A3*%
X155880000Y-49200000D03*
%TO.P,J4,6,Pin_6*%
%TO.N,/2*%
X158420000Y-49200000D03*
%TO.P,J4,7,Pin_7*%
%TO.N,/TX{slash}1*%
X160960000Y-49200000D03*
%TO.P,J4,8,Pin_8*%
%TO.N,/RX{slash}0*%
X163500000Y-49200000D03*
%TD*%
D17*
%TO.N,/\u002A9*%
X140741000Y-47575000D02*
X139116000Y-49200000D01*
X160996701Y-47575000D02*
X140741000Y-47575000D01*
X162225000Y-48803299D02*
X160996701Y-47575000D01*
X162225000Y-58500000D02*
X162225000Y-48803299D01*
X162000000Y-62806676D02*
X160825000Y-61631676D01*
X162000000Y-77500000D02*
X162000000Y-62806676D01*
X160825000Y-61631676D02*
X160825000Y-59900000D01*
X158750000Y-80750000D02*
X162000000Y-77500000D01*
X160825000Y-59900000D02*
X162225000Y-58500000D01*
%TO.N,+5V*%
X139725000Y-99085000D02*
X138100000Y-97460000D01*
X164675000Y-96973299D02*
X164675000Y-98125000D01*
X164675000Y-98125000D02*
X163715000Y-99085000D01*
X163715000Y-99085000D02*
X139725000Y-99085000D01*
X139350000Y-86150000D02*
X153851701Y-86150000D01*
X153851701Y-86150000D02*
X164675000Y-96973299D01*
%TO.N,/SCL{slash}A5*%
X110191000Y-57805000D02*
X118796000Y-49200000D01*
X107013299Y-57805000D02*
X110191000Y-57805000D01*
X105425000Y-59393299D02*
X107013299Y-57805000D01*
X107013299Y-93175000D02*
X105425000Y-91586701D01*
X105425000Y-91586701D02*
X105425000Y-59393299D01*
X155986701Y-93175000D02*
X107013299Y-93175000D01*
X159785000Y-96973299D02*
X155986701Y-93175000D01*
X160473299Y-98635000D02*
X159785000Y-97946701D01*
X159785000Y-97946701D02*
X159785000Y-96973299D01*
X162325000Y-98635000D02*
X160473299Y-98635000D01*
X163500000Y-97460000D02*
X162325000Y-98635000D01*
%TO.N,/SDA{slash}A4*%
X107013299Y-90635000D02*
X105875000Y-89496701D01*
X107013299Y-60345000D02*
X110191000Y-60345000D01*
X110191000Y-60345000D02*
X121336000Y-49200000D01*
X154135000Y-90635000D02*
X107013299Y-90635000D01*
X105875000Y-89496701D02*
X105875000Y-61483299D01*
X105875000Y-61483299D02*
X107013299Y-60345000D01*
X160960000Y-97460000D02*
X154135000Y-90635000D01*
%TO.N,/\u002A9*%
X165250000Y-80750000D02*
X158750000Y-80750000D01*
%TO.N,/12*%
X132671000Y-48025000D02*
X131496000Y-49200000D01*
X135211000Y-48711000D02*
X134525000Y-48025000D01*
X135211000Y-49686701D02*
X135211000Y-48711000D01*
X134525000Y-48025000D02*
X132671000Y-48025000D01*
X130500000Y-50825000D02*
X134072701Y-50825000D01*
X130500000Y-56863604D02*
X130500000Y-50825000D01*
X109238604Y-78125000D02*
X130500000Y-56863604D01*
X106325000Y-78813299D02*
X107013299Y-78125000D01*
X134072701Y-50825000D02*
X135211000Y-49686701D01*
X106325000Y-87406701D02*
X106325000Y-78813299D01*
X107013299Y-88095000D02*
X106325000Y-87406701D01*
X107013299Y-78125000D02*
X109238604Y-78125000D01*
X107986701Y-88095000D02*
X107013299Y-88095000D01*
X122041701Y-74040000D02*
X107986701Y-88095000D01*
X159000000Y-74040000D02*
X122041701Y-74040000D01*
%TO.N,Net-(D1-K)*%
X157275000Y-61000000D02*
X161000000Y-57275000D01*
X149650000Y-61000000D02*
X157275000Y-61000000D01*
%TO.N,/\u002A6*%
X149435000Y-48025000D02*
X148260000Y-49200000D01*
X159595000Y-48713299D02*
X158906701Y-48025000D01*
X158906701Y-48025000D02*
X149435000Y-48025000D01*
X161000000Y-54735000D02*
X159595000Y-53330000D01*
X159595000Y-53330000D02*
X159595000Y-48713299D01*
%TO.N,Net-(DS1-LED(+))*%
X123340000Y-89460000D02*
X126650000Y-86150000D01*
X107500000Y-89460000D02*
X123340000Y-89460000D01*
%TO.N,/2*%
X153445000Y-54175000D02*
X158420000Y-49200000D01*
X140245000Y-54175000D02*
X153445000Y-54175000D01*
X107500000Y-86920000D02*
X140245000Y-54175000D01*
%TO.N,/\u002A3*%
X151355000Y-53725000D02*
X155880000Y-49200000D01*
X138275000Y-53725000D02*
X151355000Y-53725000D01*
X107620000Y-84380000D02*
X138275000Y-53725000D01*
X107500000Y-84380000D02*
X107620000Y-84380000D01*
%TO.N,/4*%
X149265000Y-53275000D02*
X153340000Y-49200000D01*
X136065000Y-53275000D02*
X149265000Y-53275000D01*
X107500000Y-81840000D02*
X136065000Y-53275000D01*
%TO.N,/\u002A5*%
X149435000Y-49200000D02*
X150800000Y-49200000D01*
X148746701Y-50375000D02*
X149435000Y-49686701D01*
X137625000Y-50375000D02*
X148746701Y-50375000D01*
X149435000Y-49686701D02*
X149435000Y-49200000D01*
X108700000Y-79300000D02*
X137625000Y-50375000D01*
X107500000Y-79300000D02*
X108700000Y-79300000D01*
%TO.N,/\u002A11*%
X132861000Y-50375000D02*
X134036000Y-49200000D01*
X112400000Y-66600000D02*
X128625000Y-50375000D01*
X107500000Y-66600000D02*
X112400000Y-66600000D01*
X128625000Y-50375000D02*
X132861000Y-50375000D01*
%TO.N,/13*%
X127591000Y-49200000D02*
X128956000Y-49200000D01*
X127591000Y-49686701D02*
X127591000Y-49200000D01*
X123125000Y-50375000D02*
X126902701Y-50375000D01*
X111980000Y-61520000D02*
X123125000Y-50375000D01*
X107500000Y-61520000D02*
X111980000Y-61520000D01*
X126902701Y-50375000D02*
X127591000Y-49686701D01*
%TD*%
%TA.AperFunction,Conductor*%
%TO.N,+5V*%
G36*
X140555966Y-46755185D02*
G01*
X140601721Y-46807989D01*
X140611665Y-46877147D01*
X140582640Y-46940703D01*
X140536380Y-46974061D01*
X140440927Y-47013598D01*
X140440918Y-47013603D01*
X140337167Y-47082928D01*
X140337163Y-47082931D01*
X139572991Y-47847103D01*
X139511668Y-47880588D01*
X139454876Y-47879629D01*
X139450641Y-47878556D01*
X139228569Y-47841500D01*
X139003431Y-47841500D01*
X138781362Y-47878556D01*
X138568430Y-47951656D01*
X138568419Y-47951661D01*
X138370427Y-48058808D01*
X138370422Y-48058812D01*
X138192761Y-48197092D01*
X138192756Y-48197097D01*
X138040284Y-48362723D01*
X138040276Y-48362734D01*
X137949808Y-48501206D01*
X137896662Y-48546562D01*
X137827431Y-48555986D01*
X137764095Y-48526484D01*
X137742192Y-48501206D01*
X137651723Y-48362734D01*
X137651715Y-48362723D01*
X137499243Y-48197097D01*
X137499238Y-48197092D01*
X137321577Y-48058812D01*
X137321572Y-48058808D01*
X137123580Y-47951661D01*
X137123577Y-47951659D01*
X137123574Y-47951658D01*
X137123571Y-47951657D01*
X137123569Y-47951656D01*
X136910637Y-47878556D01*
X136688569Y-47841500D01*
X136463431Y-47841500D01*
X136241362Y-47878556D01*
X136028430Y-47951656D01*
X136028419Y-47951661D01*
X135830427Y-48058808D01*
X135830422Y-48058812D01*
X135705568Y-48155991D01*
X135640574Y-48181634D01*
X135572034Y-48168068D01*
X135541724Y-48145819D01*
X134928836Y-47532931D01*
X134928832Y-47532928D01*
X134825081Y-47463603D01*
X134825072Y-47463598D01*
X134709785Y-47415845D01*
X134709777Y-47415843D01*
X134587398Y-47391500D01*
X134587394Y-47391500D01*
X132733394Y-47391500D01*
X132608606Y-47391500D01*
X132608601Y-47391500D01*
X132486222Y-47415843D01*
X132486214Y-47415845D01*
X132370927Y-47463598D01*
X132370918Y-47463603D01*
X132267167Y-47532928D01*
X132267163Y-47532931D01*
X131952991Y-47847103D01*
X131891668Y-47880588D01*
X131834876Y-47879629D01*
X131830641Y-47878556D01*
X131608569Y-47841500D01*
X131383431Y-47841500D01*
X131161362Y-47878556D01*
X130948430Y-47951656D01*
X130948419Y-47951661D01*
X130750427Y-48058808D01*
X130750422Y-48058812D01*
X130572761Y-48197092D01*
X130572756Y-48197097D01*
X130420284Y-48362723D01*
X130420276Y-48362734D01*
X130329808Y-48501206D01*
X130276662Y-48546562D01*
X130207431Y-48555986D01*
X130144095Y-48526484D01*
X130122192Y-48501206D01*
X130031723Y-48362734D01*
X130031715Y-48362723D01*
X129879243Y-48197097D01*
X129879238Y-48197092D01*
X129701577Y-48058812D01*
X129701572Y-48058808D01*
X129503580Y-47951661D01*
X129503577Y-47951659D01*
X129503574Y-47951658D01*
X129503571Y-47951657D01*
X129503569Y-47951656D01*
X129290637Y-47878556D01*
X129068569Y-47841500D01*
X128843431Y-47841500D01*
X128621362Y-47878556D01*
X128408430Y-47951656D01*
X128408419Y-47951661D01*
X128210427Y-48058808D01*
X128210422Y-48058812D01*
X128032761Y-48197092D01*
X128032756Y-48197097D01*
X127880284Y-48362723D01*
X127880276Y-48362734D01*
X127789808Y-48501206D01*
X127736662Y-48546562D01*
X127667431Y-48555986D01*
X127604095Y-48526484D01*
X127582192Y-48501206D01*
X127491723Y-48362734D01*
X127491715Y-48362723D01*
X127339243Y-48197097D01*
X127339238Y-48197092D01*
X127161577Y-48058812D01*
X127161572Y-48058808D01*
X126963580Y-47951661D01*
X126963577Y-47951659D01*
X126963574Y-47951658D01*
X126963571Y-47951657D01*
X126963569Y-47951656D01*
X126750637Y-47878556D01*
X126528569Y-47841500D01*
X126303431Y-47841500D01*
X126081362Y-47878556D01*
X125868430Y-47951656D01*
X125868419Y-47951661D01*
X125670427Y-48058808D01*
X125670422Y-48058812D01*
X125492761Y-48197092D01*
X125492756Y-48197097D01*
X125340284Y-48362723D01*
X125340276Y-48362734D01*
X125249808Y-48501206D01*
X125196662Y-48546562D01*
X125127431Y-48555986D01*
X125064095Y-48526484D01*
X125042192Y-48501206D01*
X124951723Y-48362734D01*
X124951715Y-48362723D01*
X124799243Y-48197097D01*
X124799238Y-48197092D01*
X124621577Y-48058812D01*
X124621572Y-48058808D01*
X124423580Y-47951661D01*
X124423577Y-47951659D01*
X124423574Y-47951658D01*
X124423571Y-47951657D01*
X124423569Y-47951656D01*
X124210637Y-47878556D01*
X123988569Y-47841500D01*
X123763431Y-47841500D01*
X123541362Y-47878556D01*
X123328430Y-47951656D01*
X123328419Y-47951661D01*
X123130427Y-48058808D01*
X123130422Y-48058812D01*
X122952761Y-48197092D01*
X122952756Y-48197097D01*
X122800284Y-48362723D01*
X122800276Y-48362734D01*
X122709808Y-48501206D01*
X122656662Y-48546562D01*
X122587431Y-48555986D01*
X122524095Y-48526484D01*
X122502192Y-48501206D01*
X122411723Y-48362734D01*
X122411715Y-48362723D01*
X122259243Y-48197097D01*
X122259238Y-48197092D01*
X122081577Y-48058812D01*
X122081572Y-48058808D01*
X121883580Y-47951661D01*
X121883577Y-47951659D01*
X121883574Y-47951658D01*
X121883571Y-47951657D01*
X121883569Y-47951656D01*
X121670637Y-47878556D01*
X121448569Y-47841500D01*
X121223431Y-47841500D01*
X121001362Y-47878556D01*
X120788430Y-47951656D01*
X120788419Y-47951661D01*
X120590427Y-48058808D01*
X120590422Y-48058812D01*
X120412761Y-48197092D01*
X120349548Y-48265760D01*
X120289661Y-48301750D01*
X120219823Y-48299649D01*
X120162207Y-48260124D01*
X120142138Y-48225110D01*
X120096889Y-48103796D01*
X120063214Y-48058812D01*
X120009261Y-47986739D01*
X119892204Y-47899111D01*
X119755203Y-47848011D01*
X119694654Y-47841500D01*
X119694638Y-47841500D01*
X117897362Y-47841500D01*
X117897345Y-47841500D01*
X117836797Y-47848011D01*
X117836795Y-47848011D01*
X117699795Y-47899111D01*
X117582739Y-47986739D01*
X117495111Y-48103795D01*
X117444011Y-48240795D01*
X117444011Y-48240797D01*
X117437500Y-48301345D01*
X117437500Y-49611233D01*
X117417815Y-49678272D01*
X117401181Y-49698914D01*
X109964915Y-57135181D01*
X109903592Y-57168666D01*
X109877234Y-57171500D01*
X108843097Y-57171500D01*
X108776058Y-57151815D01*
X108730303Y-57099011D01*
X108720359Y-57029853D01*
X108730715Y-56995095D01*
X108773429Y-56903492D01*
X108773432Y-56903486D01*
X108830636Y-56690000D01*
X107933012Y-56690000D01*
X107965925Y-56632993D01*
X108000000Y-56505826D01*
X108000000Y-56374174D01*
X107965925Y-56247007D01*
X107933012Y-56190000D01*
X108830636Y-56190000D01*
X108830635Y-56189999D01*
X108773432Y-55976513D01*
X108773429Y-55976507D01*
X108673600Y-55762422D01*
X108673599Y-55762420D01*
X108538113Y-55568926D01*
X108538108Y-55568920D01*
X108422272Y-55453084D01*
X108388787Y-55391761D01*
X108393771Y-55322069D01*
X108435643Y-55266136D01*
X108466612Y-55249224D01*
X108596204Y-55200889D01*
X108713261Y-55113261D01*
X108800889Y-54996204D01*
X108851989Y-54859201D01*
X108857440Y-54808499D01*
X108858499Y-54798654D01*
X108858500Y-54798637D01*
X108858500Y-53001362D01*
X108858499Y-53001345D01*
X108852962Y-52949853D01*
X108851989Y-52940799D01*
X108800889Y-52803796D01*
X108713261Y-52686739D01*
X108596204Y-52599111D01*
X108459203Y-52548011D01*
X108398654Y-52541500D01*
X108398638Y-52541500D01*
X106601362Y-52541500D01*
X106601345Y-52541500D01*
X106540797Y-52548011D01*
X106540795Y-52548011D01*
X106403795Y-52599111D01*
X106286739Y-52686739D01*
X106199111Y-52803795D01*
X106148011Y-52940795D01*
X106148011Y-52940797D01*
X106141500Y-53001345D01*
X106141500Y-54798654D01*
X106148011Y-54859202D01*
X106148011Y-54859204D01*
X106188450Y-54967622D01*
X106199111Y-54996204D01*
X106286739Y-55113261D01*
X106403796Y-55200889D01*
X106533382Y-55249222D01*
X106589313Y-55291093D01*
X106613730Y-55356557D01*
X106598878Y-55424830D01*
X106577728Y-55453084D01*
X106461886Y-55568926D01*
X106326400Y-55762420D01*
X106326399Y-55762422D01*
X106226570Y-55976507D01*
X106226567Y-55976513D01*
X106169364Y-56189999D01*
X106169364Y-56190000D01*
X107066988Y-56190000D01*
X107034075Y-56247007D01*
X107000000Y-56374174D01*
X107000000Y-56505826D01*
X107034075Y-56632993D01*
X107066988Y-56690000D01*
X106169364Y-56690000D01*
X106226567Y-56903486D01*
X106226570Y-56903492D01*
X106326400Y-57117579D01*
X106326404Y-57117585D01*
X106463749Y-57313732D01*
X106486077Y-57379938D01*
X106469067Y-57447705D01*
X106449856Y-57472537D01*
X105360001Y-58562394D01*
X105021167Y-58901228D01*
X104977047Y-58945348D01*
X104932927Y-58989467D01*
X104863603Y-59093217D01*
X104863598Y-59093226D01*
X104815845Y-59208513D01*
X104815843Y-59208521D01*
X104791500Y-59330900D01*
X104791500Y-91649099D01*
X104815843Y-91771478D01*
X104815845Y-91771486D01*
X104863598Y-91886773D01*
X104863603Y-91886782D01*
X104932928Y-91990533D01*
X104932931Y-91990537D01*
X106521228Y-93578833D01*
X106609466Y-93667071D01*
X106609467Y-93667072D01*
X106713217Y-93736396D01*
X106713223Y-93736399D01*
X106713224Y-93736400D01*
X106828514Y-93784155D01*
X106950900Y-93808499D01*
X106950904Y-93808500D01*
X106950905Y-93808500D01*
X155672935Y-93808500D01*
X155739974Y-93828185D01*
X155760616Y-93844819D01*
X157921815Y-96006018D01*
X157955300Y-96067341D01*
X157950316Y-96137033D01*
X157908444Y-96192966D01*
X157877100Y-96209552D01*
X157877121Y-96209599D01*
X157876485Y-96209877D01*
X157874412Y-96210975D01*
X157872439Y-96211652D01*
X157872419Y-96211661D01*
X157674427Y-96318808D01*
X157674422Y-96318812D01*
X157496761Y-96457092D01*
X157496756Y-96457097D01*
X157344284Y-96622723D01*
X157344276Y-96622734D01*
X157253808Y-96761206D01*
X157200662Y-96806562D01*
X157131431Y-96815986D01*
X157068095Y-96786484D01*
X157046192Y-96761206D01*
X156955723Y-96622734D01*
X156955715Y-96622723D01*
X156803243Y-96457097D01*
X156803238Y-96457092D01*
X156625577Y-96318812D01*
X156625572Y-96318808D01*
X156427580Y-96211661D01*
X156427577Y-96211659D01*
X156427574Y-96211658D01*
X156427571Y-96211657D01*
X156427569Y-96211656D01*
X156214637Y-96138556D01*
X155992569Y-96101500D01*
X155767431Y-96101500D01*
X155545362Y-96138556D01*
X155332430Y-96211656D01*
X155332419Y-96211661D01*
X155134427Y-96318808D01*
X155134422Y-96318812D01*
X154956761Y-96457092D01*
X154956756Y-96457097D01*
X154804284Y-96622723D01*
X154804276Y-96622734D01*
X154713808Y-96761206D01*
X154660662Y-96806562D01*
X154591431Y-96815986D01*
X154528095Y-96786484D01*
X154506192Y-96761206D01*
X154415723Y-96622734D01*
X154415715Y-96622723D01*
X154263243Y-96457097D01*
X154263238Y-96457092D01*
X154085577Y-96318812D01*
X154085572Y-96318808D01*
X153887580Y-96211661D01*
X153887577Y-96211659D01*
X153887574Y-96211658D01*
X153887571Y-96211657D01*
X153887569Y-96211656D01*
X153674637Y-96138556D01*
X153452569Y-96101500D01*
X153227431Y-96101500D01*
X153005362Y-96138556D01*
X152792430Y-96211656D01*
X152792419Y-96211661D01*
X152594427Y-96318808D01*
X152594422Y-96318812D01*
X152416761Y-96457092D01*
X152353548Y-96525760D01*
X152293661Y-96561750D01*
X152223823Y-96559649D01*
X152166207Y-96520124D01*
X152146138Y-96485110D01*
X152100889Y-96363796D01*
X152067214Y-96318812D01*
X152013261Y-96246739D01*
X151896204Y-96159111D01*
X151895172Y-96158726D01*
X151759203Y-96108011D01*
X151698654Y-96101500D01*
X151698638Y-96101500D01*
X149901362Y-96101500D01*
X149901345Y-96101500D01*
X149840797Y-96108011D01*
X149840795Y-96108011D01*
X149703795Y-96159111D01*
X149586739Y-96246739D01*
X149499111Y-96363795D01*
X149448011Y-96500795D01*
X149448011Y-96500797D01*
X149441500Y-96561345D01*
X149441500Y-98358654D01*
X149448011Y-98419202D01*
X149448011Y-98419204D01*
X149479267Y-98503002D01*
X149499111Y-98556204D01*
X149586739Y-98673261D01*
X149703796Y-98760889D01*
X149840799Y-98811989D01*
X149868050Y-98814918D01*
X149901345Y-98818499D01*
X149901362Y-98818500D01*
X151698638Y-98818500D01*
X151698654Y-98818499D01*
X151725692Y-98815591D01*
X151759201Y-98811989D01*
X151896204Y-98760889D01*
X152013261Y-98673261D01*
X152100889Y-98556204D01*
X152146138Y-98434887D01*
X152188009Y-98378956D01*
X152253474Y-98354539D01*
X152321746Y-98369391D01*
X152353545Y-98394236D01*
X152416760Y-98462906D01*
X152594424Y-98601189D01*
X152594425Y-98601189D01*
X152594427Y-98601191D01*
X152721135Y-98669761D01*
X152792426Y-98708342D01*
X153005365Y-98781444D01*
X153227431Y-98818500D01*
X153452569Y-98818500D01*
X153674635Y-98781444D01*
X153887574Y-98708342D01*
X154085576Y-98601189D01*
X154263240Y-98462906D01*
X154384594Y-98331082D01*
X154415715Y-98297276D01*
X154415715Y-98297275D01*
X154415722Y-98297268D01*
X154506193Y-98158790D01*
X154559338Y-98113437D01*
X154628569Y-98104013D01*
X154691905Y-98133515D01*
X154713804Y-98158787D01*
X154804278Y-98297268D01*
X154804283Y-98297273D01*
X154804284Y-98297276D01*
X154930968Y-98434889D01*
X154956760Y-98462906D01*
X155134424Y-98601189D01*
X155134425Y-98601189D01*
X155134427Y-98601191D01*
X155261135Y-98669761D01*
X155332426Y-98708342D01*
X155545365Y-98781444D01*
X155767431Y-98818500D01*
X155992569Y-98818500D01*
X156214635Y-98781444D01*
X156427574Y-98708342D01*
X156625576Y-98601189D01*
X156803240Y-98462906D01*
X156924594Y-98331082D01*
X156955715Y-98297276D01*
X156955715Y-98297275D01*
X156955722Y-98297268D01*
X157046193Y-98158790D01*
X157099338Y-98113437D01*
X157168569Y-98104013D01*
X157231905Y-98133515D01*
X157253804Y-98158787D01*
X157344278Y-98297268D01*
X157344283Y-98297273D01*
X157344284Y-98297276D01*
X157470968Y-98434889D01*
X157496760Y-98462906D01*
X157674424Y-98601189D01*
X157674425Y-98601189D01*
X157674427Y-98601191D01*
X157801135Y-98669761D01*
X157872426Y-98708342D01*
X158085365Y-98781444D01*
X158307431Y-98818500D01*
X158532569Y-98818500D01*
X158754635Y-98781444D01*
X158967574Y-98708342D01*
X159165576Y-98601189D01*
X159291726Y-98503001D01*
X159356717Y-98477359D01*
X159425257Y-98490925D01*
X159455568Y-98513174D01*
X160069462Y-99127069D01*
X160069466Y-99127072D01*
X160173220Y-99196399D01*
X160173222Y-99196399D01*
X160173224Y-99196401D01*
X160288514Y-99244155D01*
X160288516Y-99244155D01*
X160288521Y-99244157D01*
X160410900Y-99268499D01*
X160410904Y-99268500D01*
X160410905Y-99268500D01*
X162387395Y-99268500D01*
X162387396Y-99268499D01*
X162509785Y-99244155D01*
X162625075Y-99196400D01*
X162728833Y-99127071D01*
X163043010Y-98812892D01*
X163104329Y-98779410D01*
X163161143Y-98780374D01*
X163165356Y-98781441D01*
X163165365Y-98781444D01*
X163387431Y-98818500D01*
X163612569Y-98818500D01*
X163834635Y-98781444D01*
X164047574Y-98708342D01*
X164245576Y-98601189D01*
X164423240Y-98462906D01*
X164544594Y-98331082D01*
X164575715Y-98297276D01*
X164575717Y-98297273D01*
X164575722Y-98297268D01*
X164698860Y-98108791D01*
X164789296Y-97902616D01*
X164844564Y-97684368D01*
X164847164Y-97652993D01*
X164863156Y-97460005D01*
X164863156Y-97459994D01*
X164844565Y-97235640D01*
X164844563Y-97235628D01*
X164789296Y-97017385D01*
X164779071Y-96994075D01*
X164698860Y-96811209D01*
X164682706Y-96786484D01*
X164575723Y-96622734D01*
X164575715Y-96622723D01*
X164423243Y-96457097D01*
X164423238Y-96457092D01*
X164245577Y-96318812D01*
X164245572Y-96318808D01*
X164047580Y-96211661D01*
X164047577Y-96211659D01*
X164047574Y-96211658D01*
X164047571Y-96211657D01*
X164047569Y-96211656D01*
X163834637Y-96138556D01*
X163612569Y-96101500D01*
X163387431Y-96101500D01*
X163165362Y-96138556D01*
X162952430Y-96211656D01*
X162952419Y-96211661D01*
X162754427Y-96318808D01*
X162754422Y-96318812D01*
X162576761Y-96457092D01*
X162576756Y-96457097D01*
X162424284Y-96622723D01*
X162424276Y-96622734D01*
X162333808Y-96761206D01*
X162280662Y-96806562D01*
X162211431Y-96815986D01*
X162148095Y-96786484D01*
X162126192Y-96761206D01*
X162035723Y-96622734D01*
X162035715Y-96622723D01*
X161883243Y-96457097D01*
X161883238Y-96457092D01*
X161705577Y-96318812D01*
X161705572Y-96318808D01*
X161507580Y-96211661D01*
X161507577Y-96211659D01*
X161507574Y-96211658D01*
X161507571Y-96211657D01*
X161507569Y-96211656D01*
X161294637Y-96138556D01*
X161072569Y-96101500D01*
X160847431Y-96101500D01*
X160625359Y-96138556D01*
X160621120Y-96139630D01*
X160551299Y-96136999D01*
X160503008Y-96107103D01*
X154538836Y-90142931D01*
X154538832Y-90142928D01*
X154435081Y-90073603D01*
X154435072Y-90073598D01*
X154319785Y-90025845D01*
X154319777Y-90025843D01*
X154197398Y-90001500D01*
X154197394Y-90001500D01*
X123993767Y-90001500D01*
X123926728Y-89981815D01*
X123880973Y-89929011D01*
X123871029Y-89859853D01*
X123900054Y-89796297D01*
X123906086Y-89789819D01*
X125272293Y-88423610D01*
X125915428Y-87780474D01*
X125976749Y-87746991D01*
X126039651Y-87749665D01*
X126268757Y-87820335D01*
X126268758Y-87820335D01*
X126268761Y-87820336D01*
X126521958Y-87858499D01*
X126521963Y-87858499D01*
X126521966Y-87858500D01*
X126521967Y-87858500D01*
X126778033Y-87858500D01*
X126778034Y-87858500D01*
X126778041Y-87858499D01*
X127031238Y-87820336D01*
X127031239Y-87820335D01*
X127031243Y-87820335D01*
X127275935Y-87744858D01*
X127506646Y-87633754D01*
X127718219Y-87489505D01*
X127905931Y-87315334D01*
X128065587Y-87115131D01*
X128193622Y-86893369D01*
X128287174Y-86655001D01*
X128344155Y-86405353D01*
X128344250Y-86404086D01*
X128363291Y-86150004D01*
X128363291Y-86149995D01*
X128344556Y-85900000D01*
X137663968Y-85900000D01*
X138801518Y-85900000D01*
X138790889Y-85918409D01*
X138750000Y-86071009D01*
X138750000Y-86228991D01*
X138790889Y-86381591D01*
X138801518Y-86400000D01*
X137663968Y-86400000D01*
X137664274Y-86404079D01*
X137664275Y-86404086D01*
X137720967Y-86652475D01*
X137720973Y-86652494D01*
X137814058Y-86889671D01*
X137814057Y-86889671D01*
X137941455Y-87110328D01*
X138100320Y-87309540D01*
X138287097Y-87482842D01*
X138497616Y-87626371D01*
X138497624Y-87626376D01*
X138727176Y-87736921D01*
X138727174Y-87736921D01*
X138970652Y-87812024D01*
X138970660Y-87812026D01*
X139100000Y-87831520D01*
X139100000Y-86698482D01*
X139118409Y-86709111D01*
X139271009Y-86750000D01*
X139428991Y-86750000D01*
X139581591Y-86709111D01*
X139600000Y-86698482D01*
X139600000Y-87831519D01*
X139729339Y-87812026D01*
X139729347Y-87812024D01*
X139972824Y-87736921D01*
X140202376Y-87626376D01*
X140202377Y-87626375D01*
X140412905Y-87482840D01*
X140599679Y-87309540D01*
X140758544Y-87110328D01*
X140885941Y-86889671D01*
X140979026Y-86652494D01*
X140979032Y-86652475D01*
X141035724Y-86404086D01*
X141035725Y-86404079D01*
X141036032Y-86400000D01*
X139898482Y-86400000D01*
X139909111Y-86381591D01*
X139950000Y-86228991D01*
X139950000Y-86071009D01*
X139909111Y-85918409D01*
X139898482Y-85900000D01*
X141036031Y-85900000D01*
X141035725Y-85895920D01*
X141035724Y-85895913D01*
X140979032Y-85647524D01*
X140979026Y-85647505D01*
X140885941Y-85410328D01*
X140885942Y-85410328D01*
X140793375Y-85250000D01*
X157236835Y-85250000D01*
X157255465Y-85486714D01*
X157310895Y-85717595D01*
X157310895Y-85717597D01*
X157401757Y-85936959D01*
X157401759Y-85936962D01*
X157525820Y-86139410D01*
X157525821Y-86139413D01*
X157534867Y-86150004D01*
X157680031Y-86319969D01*
X157779991Y-86405343D01*
X157860586Y-86474178D01*
X157860589Y-86474179D01*
X158063037Y-86598240D01*
X158063040Y-86598242D01*
X158282403Y-86689104D01*
X158282404Y-86689104D01*
X158282406Y-86689105D01*
X158513289Y-86744535D01*
X158750000Y-86763165D01*
X158986711Y-86744535D01*
X159217594Y-86689105D01*
X159217596Y-86689104D01*
X159217597Y-86689104D01*
X159436959Y-86598242D01*
X159436960Y-86598241D01*
X159436963Y-86598240D01*
X159639416Y-86474176D01*
X159819969Y-86319969D01*
X159974176Y-86139416D01*
X160098240Y-85936963D01*
X160105926Y-85918409D01*
X160189104Y-85717597D01*
X160189104Y-85717596D01*
X160189105Y-85717594D01*
X160244535Y-85486711D01*
X160263165Y-85250000D01*
X163736835Y-85250000D01*
X163755465Y-85486714D01*
X163810895Y-85717595D01*
X163810895Y-85717597D01*
X163901757Y-85936959D01*
X163901759Y-85936962D01*
X164025820Y-86139410D01*
X164025821Y-86139413D01*
X164034867Y-86150004D01*
X164180031Y-86319969D01*
X164279991Y-86405343D01*
X164360586Y-86474178D01*
X164360589Y-86474179D01*
X164563037Y-86598240D01*
X164563040Y-86598242D01*
X164782403Y-86689104D01*
X164782404Y-86689104D01*
X164782406Y-86689105D01*
X165013289Y-86744535D01*
X165250000Y-86763165D01*
X165486711Y-86744535D01*
X165717594Y-86689105D01*
X165717596Y-86689104D01*
X165717597Y-86689104D01*
X165936959Y-86598242D01*
X165936960Y-86598241D01*
X165936963Y-86598240D01*
X166139416Y-86474176D01*
X166319969Y-86319969D01*
X166474176Y-86139416D01*
X166598240Y-85936963D01*
X166605926Y-85918409D01*
X166689104Y-85717597D01*
X166689104Y-85717596D01*
X166689105Y-85717594D01*
X166744535Y-85486711D01*
X166763165Y-85250000D01*
X166744535Y-85013289D01*
X166689105Y-84782406D01*
X166689104Y-84782403D01*
X166689104Y-84782402D01*
X166598242Y-84563040D01*
X166598240Y-84563037D01*
X166547148Y-84479663D01*
X166474178Y-84360588D01*
X166474178Y-84360586D01*
X166439340Y-84319797D01*
X166319969Y-84180031D01*
X166192183Y-84070891D01*
X166139413Y-84025821D01*
X166139410Y-84025820D01*
X165936962Y-83901759D01*
X165936959Y-83901757D01*
X165717596Y-83810895D01*
X165486714Y-83755465D01*
X165250000Y-83736835D01*
X165013285Y-83755465D01*
X164782404Y-83810895D01*
X164782402Y-83810895D01*
X164563040Y-83901757D01*
X164563037Y-83901759D01*
X164360589Y-84025820D01*
X164360586Y-84025821D01*
X164180031Y-84180031D01*
X164025821Y-84360586D01*
X164025820Y-84360589D01*
X163901759Y-84563037D01*
X163901757Y-84563040D01*
X163810895Y-84782402D01*
X163810895Y-84782404D01*
X163755465Y-85013285D01*
X163736835Y-85250000D01*
X160263165Y-85250000D01*
X160244535Y-85013289D01*
X160189105Y-84782406D01*
X160189104Y-84782403D01*
X160189104Y-84782402D01*
X160098242Y-84563040D01*
X160098240Y-84563037D01*
X160047148Y-84479663D01*
X159974178Y-84360588D01*
X159974178Y-84360586D01*
X159939340Y-84319797D01*
X159819969Y-84180031D01*
X159692183Y-84070891D01*
X159639413Y-84025821D01*
X159639410Y-84025820D01*
X159436962Y-83901759D01*
X159436959Y-83901757D01*
X159217596Y-83810895D01*
X158986714Y-83755465D01*
X158750000Y-83736835D01*
X158513285Y-83755465D01*
X158282404Y-83810895D01*
X158282402Y-83810895D01*
X158063040Y-83901757D01*
X158063037Y-83901759D01*
X157860589Y-84025820D01*
X157860586Y-84025821D01*
X157680031Y-84180031D01*
X157525821Y-84360586D01*
X157525820Y-84360589D01*
X157401759Y-84563037D01*
X157401757Y-84563040D01*
X157310895Y-84782402D01*
X157310895Y-84782404D01*
X157255465Y-85013285D01*
X157236835Y-85250000D01*
X140793375Y-85250000D01*
X140758544Y-85189671D01*
X140599679Y-84990459D01*
X140412905Y-84817159D01*
X140202377Y-84673624D01*
X140202376Y-84673623D01*
X139972823Y-84563078D01*
X139972825Y-84563078D01*
X139729354Y-84487977D01*
X139729348Y-84487976D01*
X139600000Y-84468479D01*
X139600000Y-85601517D01*
X139581591Y-85590889D01*
X139428991Y-85550000D01*
X139271009Y-85550000D01*
X139118409Y-85590889D01*
X139100000Y-85601517D01*
X139100000Y-84468479D01*
X138970651Y-84487976D01*
X138970645Y-84487977D01*
X138727175Y-84563078D01*
X138497624Y-84673623D01*
X138497616Y-84673628D01*
X138287097Y-84817157D01*
X138100320Y-84990459D01*
X137941455Y-85189671D01*
X137814058Y-85410328D01*
X137720973Y-85647505D01*
X137720967Y-85647524D01*
X137664275Y-85895913D01*
X137664274Y-85895920D01*
X137663968Y-85900000D01*
X128344556Y-85900000D01*
X128344156Y-85894656D01*
X128344155Y-85894651D01*
X128344155Y-85894647D01*
X128287174Y-85644999D01*
X128193622Y-85406631D01*
X128065587Y-85184869D01*
X127905931Y-84984666D01*
X127905930Y-84984665D01*
X127905927Y-84984661D01*
X127784989Y-84872448D01*
X127718219Y-84810495D01*
X127677020Y-84782406D01*
X127506649Y-84666248D01*
X127506638Y-84666241D01*
X127275940Y-84555144D01*
X127275921Y-84555137D01*
X127031248Y-84479666D01*
X127031238Y-84479663D01*
X126778041Y-84441500D01*
X126778034Y-84441500D01*
X126521966Y-84441500D01*
X126521958Y-84441500D01*
X126268761Y-84479663D01*
X126268755Y-84479665D01*
X126024061Y-84555143D01*
X125793362Y-84666241D01*
X125793361Y-84666242D01*
X125793355Y-84666245D01*
X125793355Y-84666246D01*
X125782528Y-84673628D01*
X125581780Y-84810495D01*
X125394072Y-84984661D01*
X125234413Y-85184869D01*
X125106378Y-85406630D01*
X125012828Y-85644993D01*
X125012822Y-85645012D01*
X124955844Y-85894651D01*
X124955843Y-85894656D01*
X124936709Y-86149995D01*
X124936709Y-86150004D01*
X124955843Y-86405343D01*
X124955844Y-86405348D01*
X125012825Y-86654999D01*
X125049757Y-86749103D01*
X125055925Y-86818700D01*
X125023486Y-86880583D01*
X125022009Y-86882085D01*
X123113915Y-88790181D01*
X123052592Y-88823666D01*
X123026234Y-88826500D01*
X108775956Y-88826500D01*
X108708917Y-88806815D01*
X108672147Y-88770322D01*
X108575722Y-88622732D01*
X108550443Y-88595272D01*
X108519522Y-88532621D01*
X108527382Y-88463195D01*
X108553990Y-88423613D01*
X122267787Y-74709819D01*
X122329110Y-74676334D01*
X122355468Y-74673500D01*
X157724044Y-74673500D01*
X157791083Y-74693185D01*
X157827852Y-74729678D01*
X157924276Y-74877265D01*
X157924284Y-74877276D01*
X158076756Y-75042902D01*
X158076760Y-75042906D01*
X158254424Y-75181189D01*
X158254425Y-75181189D01*
X158254427Y-75181191D01*
X158331503Y-75222902D01*
X158452426Y-75288342D01*
X158665365Y-75361444D01*
X158887431Y-75398500D01*
X159112569Y-75398500D01*
X159334635Y-75361444D01*
X159547574Y-75288342D01*
X159745576Y-75181189D01*
X159923240Y-75042906D01*
X160075722Y-74877268D01*
X160198860Y-74688791D01*
X160289296Y-74482616D01*
X160344564Y-74264368D01*
X160363156Y-74040000D01*
X160359480Y-73995640D01*
X160344565Y-73815640D01*
X160344563Y-73815628D01*
X160341876Y-73805018D01*
X160289296Y-73597384D01*
X160198860Y-73391209D01*
X160195989Y-73386815D01*
X160075723Y-73202734D01*
X160075715Y-73202723D01*
X159923243Y-73037097D01*
X159923238Y-73037092D01*
X159745577Y-72898812D01*
X159745578Y-72898812D01*
X159745576Y-72898811D01*
X159709070Y-72879055D01*
X159659479Y-72829836D01*
X159644371Y-72761619D01*
X159668541Y-72696064D01*
X159709070Y-72660945D01*
X159709084Y-72660936D01*
X159745576Y-72641189D01*
X159923240Y-72502906D01*
X160075722Y-72337268D01*
X160198860Y-72148791D01*
X160289296Y-71942616D01*
X160344564Y-71724368D01*
X160363156Y-71500000D01*
X160359480Y-71455640D01*
X160344565Y-71275640D01*
X160344563Y-71275628D01*
X160341876Y-71265018D01*
X160289296Y-71057384D01*
X160198860Y-70851209D01*
X160075722Y-70662732D01*
X159924291Y-70498236D01*
X159893370Y-70435584D01*
X159901230Y-70366158D01*
X159945376Y-70312002D01*
X159972189Y-70298073D01*
X160092086Y-70253354D01*
X160092093Y-70253350D01*
X160207187Y-70167190D01*
X160207190Y-70167187D01*
X160293350Y-70052093D01*
X160293354Y-70052086D01*
X160343596Y-69917379D01*
X160343598Y-69917372D01*
X160349999Y-69857844D01*
X160350000Y-69857827D01*
X160350000Y-69210000D01*
X159433012Y-69210000D01*
X159465925Y-69152993D01*
X159500000Y-69025826D01*
X159500000Y-68894174D01*
X159465925Y-68767007D01*
X159433012Y-68710000D01*
X160350000Y-68710000D01*
X160350000Y-68062172D01*
X160349999Y-68062155D01*
X160343598Y-68002627D01*
X160343596Y-68002620D01*
X160293354Y-67867913D01*
X160293350Y-67867906D01*
X160207190Y-67752812D01*
X160207187Y-67752809D01*
X160092093Y-67666649D01*
X160092086Y-67666645D01*
X159957379Y-67616403D01*
X159957372Y-67616401D01*
X159897844Y-67610000D01*
X159250000Y-67610000D01*
X159250000Y-68526988D01*
X159192993Y-68494075D01*
X159065826Y-68460000D01*
X158934174Y-68460000D01*
X158807007Y-68494075D01*
X158750000Y-68526988D01*
X158750000Y-67610000D01*
X158102155Y-67610000D01*
X158042627Y-67616401D01*
X158042620Y-67616403D01*
X157907913Y-67666645D01*
X157907906Y-67666649D01*
X157792812Y-67752809D01*
X157792809Y-67752812D01*
X157706649Y-67867906D01*
X157706645Y-67867913D01*
X157656403Y-68002620D01*
X157656401Y-68002627D01*
X157650000Y-68062155D01*
X157650000Y-68710000D01*
X158566988Y-68710000D01*
X158534075Y-68767007D01*
X158500000Y-68894174D01*
X158500000Y-69025826D01*
X158534075Y-69152993D01*
X158566988Y-69210000D01*
X157650000Y-69210000D01*
X157650000Y-69857844D01*
X157656401Y-69917372D01*
X157656403Y-69917379D01*
X157706645Y-70052086D01*
X157706649Y-70052093D01*
X157792809Y-70167187D01*
X157792812Y-70167190D01*
X157907906Y-70253350D01*
X157907913Y-70253354D01*
X158027810Y-70298073D01*
X158083744Y-70339944D01*
X158108161Y-70405409D01*
X158093309Y-70473682D01*
X158075706Y-70498238D01*
X157924284Y-70662723D01*
X157924276Y-70662734D01*
X157801140Y-70851207D01*
X157710703Y-71057385D01*
X157655436Y-71275628D01*
X157655434Y-71275640D01*
X157636844Y-71499994D01*
X157636844Y-71500005D01*
X157655434Y-71724359D01*
X157655436Y-71724371D01*
X157710703Y-71942614D01*
X157801140Y-72148792D01*
X157924276Y-72337265D01*
X157924284Y-72337276D01*
X158076756Y-72502902D01*
X158076760Y-72502906D01*
X158254424Y-72641189D01*
X158254429Y-72641191D01*
X158254431Y-72641193D01*
X158290930Y-72660946D01*
X158340520Y-72710165D01*
X158355628Y-72778382D01*
X158331457Y-72843937D01*
X158290930Y-72879054D01*
X158254431Y-72898806D01*
X158254422Y-72898812D01*
X158076761Y-73037092D01*
X158076756Y-73037097D01*
X157924284Y-73202723D01*
X157924276Y-73202734D01*
X157827852Y-73350322D01*
X157774706Y-73395679D01*
X157724044Y-73406500D01*
X122208765Y-73406500D01*
X122141726Y-73386815D01*
X122095971Y-73334011D01*
X122086027Y-73264853D01*
X122115052Y-73201297D01*
X122121084Y-73194819D01*
X131255899Y-64060005D01*
X140471085Y-54844819D01*
X140532408Y-54811334D01*
X140558766Y-54808500D01*
X153507395Y-54808500D01*
X153507396Y-54808499D01*
X153629785Y-54784155D01*
X153745075Y-54736400D01*
X153848833Y-54667071D01*
X157963009Y-50552893D01*
X158024330Y-50519410D01*
X158081143Y-50520374D01*
X158085356Y-50521441D01*
X158085365Y-50521444D01*
X158307431Y-50558500D01*
X158532569Y-50558500D01*
X158754635Y-50521444D01*
X158797236Y-50506819D01*
X158867035Y-50503669D01*
X158927457Y-50538755D01*
X158959317Y-50600937D01*
X158961500Y-50624100D01*
X158961500Y-53392398D01*
X158985843Y-53514777D01*
X158985845Y-53514785D01*
X159033598Y-53630072D01*
X159033603Y-53630081D01*
X159102928Y-53733832D01*
X159102931Y-53733836D01*
X159609780Y-54240684D01*
X159643265Y-54302007D01*
X159642305Y-54358805D01*
X159605948Y-54502377D01*
X159586673Y-54734994D01*
X159586673Y-54735005D01*
X159605948Y-54967622D01*
X159663251Y-55193907D01*
X159757015Y-55407668D01*
X159884686Y-55603084D01*
X159971856Y-55697775D01*
X160002779Y-55760429D01*
X159994919Y-55829855D01*
X159950772Y-55884011D01*
X159923963Y-55897939D01*
X159853794Y-55924111D01*
X159736739Y-56011739D01*
X159649111Y-56128795D01*
X159598011Y-56265795D01*
X159598011Y-56265797D01*
X159591500Y-56326345D01*
X159591500Y-57736233D01*
X159571815Y-57803272D01*
X159555181Y-57823914D01*
X157048915Y-60330181D01*
X156987592Y-60363666D01*
X156961234Y-60366500D01*
X151321284Y-60366500D01*
X151254245Y-60346815D01*
X151208490Y-60294011D01*
X151205856Y-60287803D01*
X151205761Y-60287561D01*
X151193622Y-60256631D01*
X151065587Y-60034869D01*
X150905931Y-59834666D01*
X150905930Y-59834665D01*
X150905927Y-59834661D01*
X150770135Y-59708666D01*
X150718219Y-59660495D01*
X150711190Y-59655703D01*
X150506649Y-59516248D01*
X150506638Y-59516241D01*
X150275940Y-59405144D01*
X150275921Y-59405137D01*
X150031248Y-59329666D01*
X150031238Y-59329663D01*
X149778041Y-59291500D01*
X149778034Y-59291500D01*
X149521966Y-59291500D01*
X149521958Y-59291500D01*
X149268761Y-59329663D01*
X149268755Y-59329665D01*
X149024061Y-59405143D01*
X148793362Y-59516241D01*
X148793361Y-59516242D01*
X148581780Y-59660495D01*
X148394072Y-59834661D01*
X148234413Y-60034869D01*
X148106378Y-60256630D01*
X148012828Y-60494993D01*
X148012822Y-60495012D01*
X147955844Y-60744651D01*
X147955843Y-60744656D01*
X147936709Y-60999995D01*
X147936709Y-61000004D01*
X147955843Y-61255343D01*
X147955844Y-61255348D01*
X148012822Y-61504987D01*
X148012824Y-61504996D01*
X148012826Y-61505001D01*
X148106378Y-61743369D01*
X148234413Y-61965131D01*
X148290540Y-62035512D01*
X148394072Y-62165338D01*
X148571271Y-62329753D01*
X148581781Y-62339505D01*
X148793355Y-62483754D01*
X148793360Y-62483756D01*
X148793361Y-62483757D01*
X148793362Y-62483758D01*
X148874655Y-62522906D01*
X149024061Y-62594856D01*
X149024062Y-62594856D01*
X149024065Y-62594858D01*
X149268757Y-62670335D01*
X149268758Y-62670335D01*
X149268761Y-62670336D01*
X149521958Y-62708499D01*
X149521963Y-62708499D01*
X149521966Y-62708500D01*
X149521967Y-62708500D01*
X149778033Y-62708500D01*
X149778034Y-62708500D01*
X149778041Y-62708499D01*
X150031238Y-62670336D01*
X150031239Y-62670335D01*
X150031243Y-62670335D01*
X150275935Y-62594858D01*
X150506646Y-62483754D01*
X150718219Y-62339505D01*
X150878845Y-62190466D01*
X150905927Y-62165338D01*
X150905927Y-62165336D01*
X150905931Y-62165334D01*
X151065587Y-61965131D01*
X151193622Y-61743369D01*
X151205856Y-61712197D01*
X151248672Y-61656984D01*
X151314542Y-61633683D01*
X151321284Y-61633500D01*
X157337395Y-61633500D01*
X157337396Y-61633499D01*
X157459785Y-61609155D01*
X157575075Y-61561400D01*
X157678833Y-61492071D01*
X159057526Y-60113378D01*
X160451086Y-58719819D01*
X160512409Y-58686334D01*
X160538767Y-58683500D01*
X160846234Y-58683500D01*
X160913273Y-58703185D01*
X160959028Y-58755989D01*
X160968972Y-58825147D01*
X160939947Y-58888703D01*
X160933915Y-58895181D01*
X160421167Y-59407929D01*
X160377047Y-59452049D01*
X160332927Y-59496168D01*
X160263603Y-59599918D01*
X160263598Y-59599927D01*
X160215845Y-59715214D01*
X160215843Y-59715222D01*
X160191500Y-59837601D01*
X160191500Y-61694074D01*
X160215843Y-61816453D01*
X160215845Y-61816461D01*
X160263598Y-61931748D01*
X160263603Y-61931757D01*
X160332928Y-62035508D01*
X160332931Y-62035512D01*
X161330181Y-63032761D01*
X161363666Y-63094084D01*
X161366500Y-63120442D01*
X161366500Y-77186233D01*
X161346815Y-77253272D01*
X161330181Y-77273914D01*
X159327666Y-79276428D01*
X159266343Y-79309913D01*
X159211038Y-79309321D01*
X158986713Y-79255465D01*
X158750000Y-79236835D01*
X158513285Y-79255465D01*
X158282404Y-79310895D01*
X158282402Y-79310895D01*
X158063040Y-79401757D01*
X158063037Y-79401759D01*
X157860589Y-79525820D01*
X157860586Y-79525821D01*
X157680031Y-79680031D01*
X157525821Y-79860586D01*
X157525820Y-79860589D01*
X157401759Y-80063037D01*
X157401757Y-80063040D01*
X157310895Y-80282402D01*
X157310895Y-80282404D01*
X157255465Y-80513285D01*
X157236835Y-80750000D01*
X157255465Y-80986714D01*
X157310895Y-81217595D01*
X157310895Y-81217597D01*
X157401757Y-81436959D01*
X157401759Y-81436962D01*
X157525820Y-81639410D01*
X157525821Y-81639413D01*
X157525824Y-81639416D01*
X157680031Y-81819969D01*
X157819797Y-81939340D01*
X157860586Y-81974178D01*
X157860589Y-81974179D01*
X158063037Y-82098240D01*
X158063040Y-82098242D01*
X158282403Y-82189104D01*
X158282404Y-82189104D01*
X158282406Y-82189105D01*
X158513289Y-82244535D01*
X158750000Y-82263165D01*
X158986711Y-82244535D01*
X159217594Y-82189105D01*
X159217596Y-82189104D01*
X159217597Y-82189104D01*
X159436959Y-82098242D01*
X159436960Y-82098241D01*
X159436963Y-82098240D01*
X159639416Y-81974176D01*
X159819969Y-81819969D01*
X159974176Y-81639416D01*
X160056571Y-81504960D01*
X160094719Y-81442710D01*
X160146531Y-81395835D01*
X160200446Y-81383500D01*
X163799554Y-81383500D01*
X163866593Y-81403185D01*
X163905281Y-81442710D01*
X164025820Y-81639410D01*
X164025821Y-81639413D01*
X164025824Y-81639416D01*
X164180031Y-81819969D01*
X164319797Y-81939340D01*
X164360586Y-81974178D01*
X164360589Y-81974179D01*
X164563037Y-82098240D01*
X164563040Y-82098242D01*
X164782403Y-82189104D01*
X164782404Y-82189104D01*
X164782406Y-82189105D01*
X165013289Y-82244535D01*
X165250000Y-82263165D01*
X165486711Y-82244535D01*
X165717594Y-82189105D01*
X165717596Y-82189104D01*
X165717597Y-82189104D01*
X165936959Y-82098242D01*
X165936960Y-82098241D01*
X165936963Y-82098240D01*
X166139416Y-81974176D01*
X166319969Y-81819969D01*
X166474176Y-81639416D01*
X166598240Y-81436963D01*
X166612232Y-81403185D01*
X166689104Y-81217597D01*
X166689104Y-81217596D01*
X166689105Y-81217594D01*
X166744535Y-80986711D01*
X166763165Y-80750000D01*
X166744535Y-80513289D01*
X166689105Y-80282406D01*
X166689104Y-80282403D01*
X166689104Y-80282402D01*
X166598242Y-80063040D01*
X166598240Y-80063037D01*
X166474179Y-79860589D01*
X166474178Y-79860586D01*
X166439340Y-79819797D01*
X166319969Y-79680031D01*
X166200596Y-79578076D01*
X166139413Y-79525821D01*
X166139410Y-79525820D01*
X165936962Y-79401759D01*
X165936959Y-79401757D01*
X165717596Y-79310895D01*
X165486714Y-79255465D01*
X165250000Y-79236835D01*
X165013285Y-79255465D01*
X164782404Y-79310895D01*
X164782402Y-79310895D01*
X164563040Y-79401757D01*
X164563037Y-79401759D01*
X164360589Y-79525820D01*
X164360586Y-79525821D01*
X164180031Y-79680031D01*
X164025821Y-79860586D01*
X164025820Y-79860589D01*
X163905281Y-80057290D01*
X163853469Y-80104165D01*
X163799554Y-80116500D01*
X160578766Y-80116500D01*
X160511727Y-80096815D01*
X160465972Y-80044011D01*
X160456028Y-79974853D01*
X160485053Y-79911297D01*
X160491085Y-79904819D01*
X162492068Y-77903836D01*
X162492071Y-77903833D01*
X162561400Y-77800075D01*
X162609155Y-77684785D01*
X162633500Y-77562394D01*
X162633500Y-77437606D01*
X162633500Y-62791531D01*
X162653185Y-62724492D01*
X162705989Y-62678737D01*
X162729913Y-62670639D01*
X162731244Y-62670335D01*
X162851641Y-62633197D01*
X162975935Y-62594858D01*
X163206646Y-62483754D01*
X163418219Y-62339505D01*
X163578845Y-62190466D01*
X163605927Y-62165338D01*
X163605927Y-62165336D01*
X163605931Y-62165334D01*
X163765587Y-61965131D01*
X163893622Y-61743369D01*
X163987174Y-61505001D01*
X164044155Y-61255353D01*
X164063291Y-61000000D01*
X164054785Y-60886500D01*
X164044156Y-60744656D01*
X164044155Y-60744651D01*
X164044155Y-60744647D01*
X163987174Y-60494999D01*
X163893622Y-60256631D01*
X163765587Y-60034869D01*
X163605931Y-59834666D01*
X163605930Y-59834665D01*
X163605927Y-59834661D01*
X163470135Y-59708666D01*
X163418219Y-59660495D01*
X163411190Y-59655703D01*
X163206649Y-59516248D01*
X163206638Y-59516241D01*
X162975940Y-59405144D01*
X162975921Y-59405137D01*
X162731248Y-59329666D01*
X162731239Y-59329664D01*
X162591758Y-59308640D01*
X162528402Y-59279183D01*
X162491028Y-59220149D01*
X162491503Y-59150281D01*
X162522556Y-59098347D01*
X162717071Y-58903833D01*
X162786400Y-58800075D01*
X162834155Y-58684785D01*
X162858500Y-58562394D01*
X162858500Y-58437606D01*
X162858500Y-50589770D01*
X162878185Y-50522731D01*
X162930989Y-50476976D01*
X163000147Y-50467032D01*
X163022763Y-50472489D01*
X163125790Y-50507858D01*
X163165365Y-50521444D01*
X163387431Y-50558500D01*
X163612569Y-50558500D01*
X163834635Y-50521444D01*
X164047574Y-50448342D01*
X164245576Y-50341189D01*
X164423240Y-50202906D01*
X164575722Y-50037268D01*
X164698860Y-49848791D01*
X164789296Y-49642616D01*
X164844564Y-49424368D01*
X164863156Y-49200000D01*
X164859612Y-49157233D01*
X164844565Y-48975640D01*
X164844563Y-48975628D01*
X164789296Y-48757385D01*
X164698859Y-48551207D01*
X164575723Y-48362734D01*
X164575715Y-48362723D01*
X164423243Y-48197097D01*
X164423238Y-48197092D01*
X164245577Y-48058812D01*
X164245572Y-48058808D01*
X164047580Y-47951661D01*
X164047577Y-47951659D01*
X164047574Y-47951658D01*
X164047571Y-47951657D01*
X164047569Y-47951656D01*
X163834637Y-47878556D01*
X163612569Y-47841500D01*
X163387431Y-47841500D01*
X163165362Y-47878556D01*
X162952430Y-47951656D01*
X162952419Y-47951661D01*
X162754427Y-48058808D01*
X162754423Y-48058811D01*
X162628273Y-48156998D01*
X162563279Y-48182640D01*
X162494739Y-48169073D01*
X162464430Y-48146825D01*
X161400537Y-47082931D01*
X161400533Y-47082928D01*
X161296782Y-47013603D01*
X161296773Y-47013598D01*
X161201321Y-46974061D01*
X161146918Y-46930220D01*
X161124853Y-46863926D01*
X161142132Y-46796226D01*
X161193270Y-46748616D01*
X161248774Y-46735500D01*
X163417365Y-46735500D01*
X163484404Y-46755185D01*
X163505046Y-46771819D01*
X165928181Y-49194954D01*
X165961666Y-49256277D01*
X165964500Y-49282635D01*
X165964500Y-59344982D01*
X165964500Y-59375018D01*
X165975994Y-59402767D01*
X165975995Y-59402768D01*
X168468181Y-61894954D01*
X168501666Y-61956277D01*
X168504500Y-61982635D01*
X168504500Y-96107364D01*
X168484815Y-96174403D01*
X168468181Y-96195045D01*
X165997233Y-98665994D01*
X165975995Y-98687231D01*
X165964500Y-98714982D01*
X165964500Y-99231907D01*
X165963903Y-99244062D01*
X165952505Y-99359778D01*
X165947763Y-99383618D01*
X165917832Y-99482290D01*
X165915789Y-99489024D01*
X165906486Y-99511482D01*
X165854561Y-99608627D01*
X165841056Y-99628839D01*
X165771176Y-99713988D01*
X165753988Y-99731176D01*
X165668839Y-99801056D01*
X165648627Y-99814561D01*
X165551482Y-99866486D01*
X165529028Y-99875787D01*
X165487028Y-99888528D01*
X165423618Y-99907763D01*
X165399778Y-99912505D01*
X165291162Y-99923203D01*
X165284060Y-99923903D01*
X165271907Y-99924500D01*
X100768093Y-99924500D01*
X100755939Y-99923903D01*
X100747995Y-99923120D01*
X100640221Y-99912505D01*
X100616381Y-99907763D01*
X100599445Y-99902625D01*
X100510968Y-99875786D01*
X100488517Y-99866486D01*
X100391372Y-99814561D01*
X100371160Y-99801056D01*
X100286011Y-99731176D01*
X100268823Y-99713988D01*
X100198943Y-99628839D01*
X100185438Y-99608627D01*
X100133510Y-99511476D01*
X100124215Y-99489037D01*
X100092234Y-99383612D01*
X100087494Y-99359777D01*
X100076097Y-99244061D01*
X100075500Y-99231907D01*
X100075500Y-96561345D01*
X126581500Y-96561345D01*
X126581500Y-98358654D01*
X126588011Y-98419202D01*
X126588011Y-98419204D01*
X126619267Y-98503002D01*
X126639111Y-98556204D01*
X126726739Y-98673261D01*
X126843796Y-98760889D01*
X126980799Y-98811989D01*
X127008050Y-98814918D01*
X127041345Y-98818499D01*
X127041362Y-98818500D01*
X128838638Y-98818500D01*
X128838654Y-98818499D01*
X128865692Y-98815591D01*
X128899201Y-98811989D01*
X129036204Y-98760889D01*
X129153261Y-98673261D01*
X129240889Y-98556204D01*
X129286138Y-98434887D01*
X129328009Y-98378956D01*
X129393474Y-98354539D01*
X129461746Y-98369391D01*
X129493545Y-98394236D01*
X129556760Y-98462906D01*
X129734424Y-98601189D01*
X129734425Y-98601189D01*
X129734427Y-98601191D01*
X129861135Y-98669761D01*
X129932426Y-98708342D01*
X130145365Y-98781444D01*
X130367431Y-98818500D01*
X130592569Y-98818500D01*
X130814635Y-98781444D01*
X131027574Y-98708342D01*
X131225576Y-98601189D01*
X131403240Y-98462906D01*
X131524594Y-98331082D01*
X131555715Y-98297276D01*
X131555715Y-98297275D01*
X131555722Y-98297268D01*
X131646193Y-98158790D01*
X131699338Y-98113437D01*
X131768569Y-98104013D01*
X131831905Y-98133515D01*
X131853804Y-98158787D01*
X131944278Y-98297268D01*
X131944283Y-98297273D01*
X131944284Y-98297276D01*
X132070968Y-98434889D01*
X132096760Y-98462906D01*
X132274424Y-98601189D01*
X132274425Y-98601189D01*
X132274427Y-98601191D01*
X132401135Y-98669761D01*
X132472426Y-98708342D01*
X132685365Y-98781444D01*
X132907431Y-98818500D01*
X133132569Y-98818500D01*
X133354635Y-98781444D01*
X133567574Y-98708342D01*
X133765576Y-98601189D01*
X133943240Y-98462906D01*
X134064594Y-98331082D01*
X134095715Y-98297276D01*
X134095715Y-98297275D01*
X134095722Y-98297268D01*
X134186193Y-98158790D01*
X134239338Y-98113437D01*
X134308569Y-98104013D01*
X134371905Y-98133515D01*
X134393804Y-98158787D01*
X134484278Y-98297268D01*
X134484283Y-98297273D01*
X134484284Y-98297276D01*
X134610968Y-98434889D01*
X134636760Y-98462906D01*
X134814424Y-98601189D01*
X134814425Y-98601189D01*
X134814427Y-98601191D01*
X134941135Y-98669761D01*
X135012426Y-98708342D01*
X135225365Y-98781444D01*
X135447431Y-98818500D01*
X135672569Y-98818500D01*
X135894635Y-98781444D01*
X136107574Y-98708342D01*
X136305576Y-98601189D01*
X136483240Y-98462906D01*
X136604594Y-98331082D01*
X136635715Y-98297276D01*
X136635715Y-98297275D01*
X136635722Y-98297268D01*
X136729749Y-98153347D01*
X136782894Y-98107994D01*
X136852125Y-98098570D01*
X136915461Y-98128072D01*
X136935130Y-98150048D01*
X137061890Y-98331078D01*
X137228917Y-98498105D01*
X137422421Y-98633600D01*
X137636507Y-98733429D01*
X137636516Y-98733433D01*
X137850000Y-98790634D01*
X137850000Y-97893012D01*
X137907007Y-97925925D01*
X138034174Y-97960000D01*
X138165826Y-97960000D01*
X138292993Y-97925925D01*
X138350000Y-97893012D01*
X138350000Y-98790633D01*
X138563483Y-98733433D01*
X138563492Y-98733429D01*
X138777578Y-98633600D01*
X138971082Y-98498105D01*
X139138105Y-98331082D01*
X139264868Y-98150048D01*
X139319445Y-98106423D01*
X139388944Y-98099231D01*
X139451298Y-98130753D01*
X139470251Y-98153350D01*
X139564276Y-98297265D01*
X139564284Y-98297276D01*
X139690968Y-98434889D01*
X139716760Y-98462906D01*
X139894424Y-98601189D01*
X139894425Y-98601189D01*
X139894427Y-98601191D01*
X140021135Y-98669761D01*
X140092426Y-98708342D01*
X140305365Y-98781444D01*
X140527431Y-98818500D01*
X140752569Y-98818500D01*
X140974635Y-98781444D01*
X141187574Y-98708342D01*
X141385576Y-98601189D01*
X141563240Y-98462906D01*
X141684594Y-98331082D01*
X141715715Y-98297276D01*
X141715715Y-98297275D01*
X141715722Y-98297268D01*
X141806193Y-98158790D01*
X141859338Y-98113437D01*
X141928569Y-98104013D01*
X141991905Y-98133515D01*
X142013804Y-98158787D01*
X142104278Y-98297268D01*
X142104283Y-98297273D01*
X142104284Y-98297276D01*
X142230968Y-98434889D01*
X142256760Y-98462906D01*
X142434424Y-98601189D01*
X142434425Y-98601189D01*
X142434427Y-98601191D01*
X142561135Y-98669761D01*
X142632426Y-98708342D01*
X142845365Y-98781444D01*
X143067431Y-98818500D01*
X143292569Y-98818500D01*
X143514635Y-98781444D01*
X143727574Y-98708342D01*
X143925576Y-98601189D01*
X144103240Y-98462906D01*
X144224594Y-98331082D01*
X144255715Y-98297276D01*
X144255715Y-98297275D01*
X144255722Y-98297268D01*
X144346193Y-98158790D01*
X144399338Y-98113437D01*
X144468569Y-98104013D01*
X144531905Y-98133515D01*
X144553804Y-98158787D01*
X144644278Y-98297268D01*
X144644283Y-98297273D01*
X144644284Y-98297276D01*
X144770968Y-98434889D01*
X144796760Y-98462906D01*
X144974424Y-98601189D01*
X144974425Y-98601189D01*
X144974427Y-98601191D01*
X145101135Y-98669761D01*
X145172426Y-98708342D01*
X145385365Y-98781444D01*
X145607431Y-98818500D01*
X145832569Y-98818500D01*
X146054635Y-98781444D01*
X146267574Y-98708342D01*
X146465576Y-98601189D01*
X146643240Y-98462906D01*
X146764594Y-98331082D01*
X146795715Y-98297276D01*
X146795717Y-98297273D01*
X146795722Y-98297268D01*
X146918860Y-98108791D01*
X147009296Y-97902616D01*
X147064564Y-97684368D01*
X147067164Y-97652993D01*
X147083156Y-97460005D01*
X147083156Y-97459994D01*
X147064565Y-97235640D01*
X147064563Y-97235628D01*
X147009296Y-97017385D01*
X146999071Y-96994075D01*
X146918860Y-96811209D01*
X146902706Y-96786484D01*
X146795723Y-96622734D01*
X146795715Y-96622723D01*
X146643243Y-96457097D01*
X146643238Y-96457092D01*
X146465577Y-96318812D01*
X146465572Y-96318808D01*
X146267580Y-96211661D01*
X146267577Y-96211659D01*
X146267574Y-96211658D01*
X146267571Y-96211657D01*
X146267569Y-96211656D01*
X146054637Y-96138556D01*
X145832569Y-96101500D01*
X145607431Y-96101500D01*
X145385362Y-96138556D01*
X145172430Y-96211656D01*
X145172419Y-96211661D01*
X144974427Y-96318808D01*
X144974422Y-96318812D01*
X144796761Y-96457092D01*
X144796756Y-96457097D01*
X144644284Y-96622723D01*
X144644276Y-96622734D01*
X144553808Y-96761206D01*
X144500662Y-96806562D01*
X144431431Y-96815986D01*
X144368095Y-96786484D01*
X144346192Y-96761206D01*
X144255723Y-96622734D01*
X144255715Y-96622723D01*
X144103243Y-96457097D01*
X144103238Y-96457092D01*
X143925577Y-96318812D01*
X143925572Y-96318808D01*
X143727580Y-96211661D01*
X143727577Y-96211659D01*
X143727574Y-96211658D01*
X143727571Y-96211657D01*
X143727569Y-96211656D01*
X143514637Y-96138556D01*
X143292569Y-96101500D01*
X143067431Y-96101500D01*
X142845362Y-96138556D01*
X142632430Y-96211656D01*
X142632419Y-96211661D01*
X142434427Y-96318808D01*
X142434422Y-96318812D01*
X142256761Y-96457092D01*
X142256756Y-96457097D01*
X142104284Y-96622723D01*
X142104276Y-96622734D01*
X142013808Y-96761206D01*
X141960662Y-96806562D01*
X141891431Y-96815986D01*
X141828095Y-96786484D01*
X141806192Y-96761206D01*
X141715723Y-96622734D01*
X141715715Y-96622723D01*
X141563243Y-96457097D01*
X141563238Y-96457092D01*
X141385577Y-96318812D01*
X141385572Y-96318808D01*
X141187580Y-96211661D01*
X141187577Y-96211659D01*
X141187574Y-96211658D01*
X141187571Y-96211657D01*
X141187569Y-96211656D01*
X140974637Y-96138556D01*
X140752569Y-96101500D01*
X140527431Y-96101500D01*
X140305362Y-96138556D01*
X140092430Y-96211656D01*
X140092419Y-96211661D01*
X139894427Y-96318808D01*
X139894422Y-96318812D01*
X139716761Y-96457092D01*
X139716756Y-96457097D01*
X139564284Y-96622723D01*
X139564276Y-96622734D01*
X139470251Y-96766650D01*
X139417105Y-96812007D01*
X139347873Y-96821430D01*
X139284538Y-96791928D01*
X139264868Y-96769951D01*
X139138113Y-96588926D01*
X139138108Y-96588920D01*
X138971082Y-96421894D01*
X138777578Y-96286399D01*
X138563492Y-96186570D01*
X138563486Y-96186567D01*
X138350000Y-96129364D01*
X138350000Y-97026988D01*
X138292993Y-96994075D01*
X138165826Y-96960000D01*
X138034174Y-96960000D01*
X137907007Y-96994075D01*
X137850000Y-97026988D01*
X137850000Y-96129364D01*
X137849999Y-96129364D01*
X137636513Y-96186567D01*
X137636507Y-96186570D01*
X137422422Y-96286399D01*
X137422420Y-96286400D01*
X137228926Y-96421886D01*
X137228920Y-96421891D01*
X137061891Y-96588920D01*
X137061890Y-96588922D01*
X136935131Y-96769952D01*
X136880554Y-96813577D01*
X136811055Y-96820769D01*
X136748701Y-96789247D01*
X136729752Y-96766656D01*
X136635722Y-96622732D01*
X136635715Y-96622725D01*
X136635715Y-96622723D01*
X136483243Y-96457097D01*
X136483238Y-96457092D01*
X136305577Y-96318812D01*
X136305572Y-96318808D01*
X136107580Y-96211661D01*
X136107577Y-96211659D01*
X136107574Y-96211658D01*
X136107571Y-96211657D01*
X136107569Y-96211656D01*
X135894637Y-96138556D01*
X135672569Y-96101500D01*
X135447431Y-96101500D01*
X135225362Y-96138556D01*
X135012430Y-96211656D01*
X135012419Y-96211661D01*
X134814427Y-96318808D01*
X134814422Y-96318812D01*
X134636761Y-96457092D01*
X134636756Y-96457097D01*
X134484284Y-96622723D01*
X134484276Y-96622734D01*
X134393808Y-96761206D01*
X134340662Y-96806562D01*
X134271431Y-96815986D01*
X134208095Y-96786484D01*
X134186192Y-96761206D01*
X134095723Y-96622734D01*
X134095715Y-96622723D01*
X133943243Y-96457097D01*
X133943238Y-96457092D01*
X133765577Y-96318812D01*
X133765572Y-96318808D01*
X133567580Y-96211661D01*
X133567577Y-96211659D01*
X133567574Y-96211658D01*
X133567571Y-96211657D01*
X133567569Y-96211656D01*
X133354637Y-96138556D01*
X133132569Y-96101500D01*
X132907431Y-96101500D01*
X132685362Y-96138556D01*
X132472430Y-96211656D01*
X132472419Y-96211661D01*
X132274427Y-96318808D01*
X132274422Y-96318812D01*
X132096761Y-96457092D01*
X132096756Y-96457097D01*
X131944284Y-96622723D01*
X131944276Y-96622734D01*
X131853808Y-96761206D01*
X131800662Y-96806562D01*
X131731431Y-96815986D01*
X131668095Y-96786484D01*
X131646192Y-96761206D01*
X131555723Y-96622734D01*
X131555715Y-96622723D01*
X131403243Y-96457097D01*
X131403238Y-96457092D01*
X131225577Y-96318812D01*
X131225572Y-96318808D01*
X131027580Y-96211661D01*
X131027577Y-96211659D01*
X131027574Y-96211658D01*
X131027571Y-96211657D01*
X131027569Y-96211656D01*
X130814637Y-96138556D01*
X130592569Y-96101500D01*
X130367431Y-96101500D01*
X130145362Y-96138556D01*
X129932430Y-96211656D01*
X129932419Y-96211661D01*
X129734427Y-96318808D01*
X129734422Y-96318812D01*
X129556761Y-96457092D01*
X129493548Y-96525760D01*
X129433661Y-96561750D01*
X129363823Y-96559649D01*
X129306207Y-96520124D01*
X129286138Y-96485110D01*
X129240889Y-96363796D01*
X129207214Y-96318812D01*
X129153261Y-96246739D01*
X129036204Y-96159111D01*
X129035172Y-96158726D01*
X128899203Y-96108011D01*
X128838654Y-96101500D01*
X128838638Y-96101500D01*
X127041362Y-96101500D01*
X127041345Y-96101500D01*
X126980797Y-96108011D01*
X126980795Y-96108011D01*
X126843795Y-96159111D01*
X126726739Y-96246739D01*
X126639111Y-96363795D01*
X126588011Y-96500795D01*
X126588011Y-96500797D01*
X126581500Y-96561345D01*
X100075500Y-96561345D01*
X100075500Y-47428092D01*
X100076097Y-47415938D01*
X100087494Y-47300222D01*
X100092234Y-47276389D01*
X100124216Y-47170959D01*
X100133508Y-47148526D01*
X100185442Y-47051365D01*
X100198938Y-47031166D01*
X100268827Y-46946006D01*
X100286006Y-46928827D01*
X100371166Y-46858938D01*
X100391365Y-46845442D01*
X100488526Y-46793508D01*
X100510959Y-46784216D01*
X100616389Y-46752234D01*
X100640220Y-46747494D01*
X100755939Y-46736097D01*
X100768093Y-46735500D01*
X100786531Y-46735500D01*
X140488927Y-46735500D01*
X140555966Y-46755185D01*
G37*
%TD.AperFunction*%
%TD*%
M02*
