M48
; DRILL file {KiCad 8.0.2} date 2025-12-20T19:32:10-0500
; FORMAT={-:-/ absolute / inch / decimal}
; #@! TF.CreationDate,2025-12-20T19:32:10-05:00
; #@! TF.GenerationSoftware,Kicad,Pcbnew,8.0.2
; #@! TF.FileFunction,Plated,1,2,PTH
FMAT,2
INCH
; #@! TA.AperFunction,Plated,PTH,ComponentDrill
T1C0.0354
; #@! TA.AperFunction,Plated,PTH,ComponentDrill
T2C0.0394
; #@! TA.AperFunction,Plated,PTH,ComponentDrill
T3C0.0433
; #@! TA.AperFunction,Plated,PTH,ComponentDrill
T4C0.0472
%
G90
G05
T1
X6.3386Y-2.1549
X6.3386Y-2.2549
T2
X4.2323Y-2.122
X4.2323Y-2.222
X4.2323Y-2.322
X4.2323Y-2.422
X4.2323Y-2.522
X4.2323Y-2.622
X4.2323Y-2.722
X4.2323Y-2.822
X4.2323Y-2.922
X4.2323Y-3.022
X4.2323Y-3.122
X4.2323Y-3.222
X4.2323Y-3.322
X4.2323Y-3.422
X4.2323Y-3.522
X4.2323Y-3.622
X4.677Y-1.937
X4.777Y-1.937
X4.877Y-1.937
X4.977Y-1.937
X5.037Y-3.837
X5.077Y-1.937
X5.137Y-3.837
X5.177Y-1.937
X5.237Y-3.837
X5.277Y-1.937
X5.337Y-3.837
X5.377Y-1.937
X5.437Y-3.837
X5.477Y-1.937
X5.537Y-3.837
X5.577Y-1.937
X5.637Y-3.837
X5.737Y-1.937
X5.737Y-3.837
X5.837Y-1.937
X5.937Y-1.937
X5.937Y-3.837
X6.037Y-1.937
X6.037Y-3.837
X6.137Y-1.937
X6.137Y-3.837
X6.237Y-1.937
X6.237Y-3.837
X6.2598Y-2.715
X6.2598Y-2.815
X6.2598Y-2.915
X6.337Y-1.937
X6.337Y-3.837
X6.437Y-1.937
X6.437Y-3.837
T3
X6.25Y-3.1791
X6.25Y-3.3563
X6.5059Y-3.1791
X6.5059Y-3.3563
T4
X4.9862Y-3.3917
X5.4862Y-3.3917
X5.8917Y-2.4016
X6.3917Y-2.4016
M30
