M48
; DRILL file {KiCad 8.0.2} date 2025-12-20T16:44:12-0500
; FORMAT={-:-/ absolute / inch / decimal}
; #@! TF.CreationDate,2025-12-20T16:44:12-05:00
; #@! TF.GenerationSoftware,Kicad,Pcbnew,8.0.2
; #@! TF.FileFunction,Plated,1,2,PTH
FMAT,2
INCH
; #@! TA.AperFunction,Plated,PTH,ViaDrill
T1C0.0157
; #@! TA.AperFunction,Plated,PTH,ComponentDrill
T2C0.0315
; #@! TA.AperFunction,Plated,PTH,ComponentDrill
T3C0.0394
; #@! TA.AperFunction,Plated,PTH,ComponentDrill
T4C0.0433
; #@! TA.AperFunction,Plated,PTH,ComponentDrill
T5C0.0512
%
G90
G05
T1
X4.9803Y-2.8346
X5.6299Y-2.2638
X5.6299Y-2.3622
X5.9449Y-2.5787
X5.9843Y-2.0669
T2
X4.2126Y-3.0118
X4.2126Y-3.1102
T3
X4.677Y-1.937
X4.777Y-1.937
X4.8425Y-2.4181
X4.8425Y-2.5181
X4.8425Y-2.6181
X4.8425Y-2.7181
X4.877Y-1.937
X4.977Y-1.937
X5.037Y-3.837
X5.077Y-1.937
X5.137Y-3.837
X5.177Y-1.937
X5.237Y-3.837
X5.277Y-1.937
X5.337Y-3.837
X5.377Y-1.937
X5.3937Y-2.2234
X5.3937Y-2.3234
X5.3937Y-2.4234
X5.437Y-3.837
X5.477Y-1.937
X5.537Y-3.837
X5.5512Y-2.2234
X5.5512Y-2.3234
X5.5512Y-2.4234
X5.5661Y-3.4449
X5.577Y-1.937
X5.637Y-3.837
X5.6661Y-3.4449
X5.7283Y-2.2234
X5.7283Y-2.3234
X5.7283Y-2.4234
X5.737Y-1.937
X5.737Y-3.837
X5.7661Y-3.4449
X5.7687Y-2.7244
X5.7687Y-2.8244
X5.7687Y-2.9244
X5.7687Y-3.0244
X5.837Y-1.937
X5.8661Y-3.4449
X5.8976Y-2.2234
X5.8976Y-2.3234
X5.8976Y-2.4234
X5.937Y-1.937
X5.937Y-3.837
X5.9852Y-2.7244
X5.9852Y-2.8244
X5.9852Y-2.9244
X5.9852Y-3.0244
X6.037Y-1.937
X6.037Y-3.837
X6.0827Y-2.2244
X6.0827Y-2.3244
X6.0827Y-2.4244
X6.137Y-1.937
X6.137Y-3.837
X6.237Y-1.937
X6.237Y-3.837
X6.337Y-1.937
X6.337Y-3.837
X6.437Y-1.937
X6.437Y-3.837
T4
X6.3091Y-3.2283
X6.3091Y-3.4055
X6.565Y-3.2283
X6.565Y-3.4055
T5
X4.0354Y-2.3425
X4.0354Y-2.5425
M30
