%TF.GenerationSoftware,KiCad,Pcbnew,8.0.2*%
%TF.CreationDate,2025-12-20T16:42:40-05:00*%
%TF.ProjectId,robotv2,726f626f-7476-4322-9e6b-696361645f70,rev?*%
%TF.SameCoordinates,Original*%
%TF.FileFunction,Copper,L2,Bot*%
%TF.FilePolarity,Positive*%
%FSLAX46Y46*%
G04 Gerber Fmt 4.6, Leading zero omitted, Abs format (unit mm)*
G04 Created by KiCad (PCBNEW 8.0.2) date 2025-12-20 16:42:40*
%MOMM*%
%LPD*%
G01*
G04 APERTURE LIST*
%TA.AperFunction,ComponentPad*%
%ADD10R,1.700000X1.700000*%
%TD*%
%TA.AperFunction,ComponentPad*%
%ADD11O,1.700000X1.700000*%
%TD*%
%TA.AperFunction,ComponentPad*%
%ADD12R,2.600000X2.600000*%
%TD*%
%TA.AperFunction,ComponentPad*%
%ADD13C,2.600000*%
%TD*%
%TA.AperFunction,ComponentPad*%
%ADD14C,2.000000*%
%TD*%
%TA.AperFunction,ComponentPad*%
%ADD15R,1.600000X1.600000*%
%TD*%
%TA.AperFunction,ComponentPad*%
%ADD16C,1.600000*%
%TD*%
%TA.AperFunction,ViaPad*%
%ADD17C,0.600000*%
%TD*%
%TA.AperFunction,Conductor*%
%ADD18C,0.250000*%
%TD*%
G04 APERTURE END LIST*
D10*
%TO.P,J10,1,Pin_1*%
%TO.N,+5V*%
X141380000Y-87500000D03*
D11*
%TO.P,J10,2,Pin_2*%
%TO.N,/SDA{slash}A4*%
X143920000Y-87500000D03*
%TO.P,J10,3,Pin_3*%
%TO.N,/SCL{slash}A5*%
X146460000Y-87500000D03*
%TO.P,J10,4,Pin_4*%
%TO.N,GND*%
X149000000Y-87500000D03*
%TD*%
D12*
%TO.P,J6,1,Pin_1*%
%TO.N,GND*%
X102500000Y-59500000D03*
D13*
%TO.P,J6,2,Pin_2*%
%TO.N,+bat*%
X102500000Y-64580000D03*
%TD*%
D14*
%TO.P,SW1,1,1*%
%TO.N,/2*%
X160250000Y-82000000D03*
X166750000Y-82000000D03*
%TO.P,SW1,2,2*%
%TO.N,GND*%
X160250000Y-86500000D03*
X166750000Y-86500000D03*
%TD*%
D10*
%TO.P,J9,1,Pin_1*%
%TO.N,+5V*%
X152025000Y-69200000D03*
D11*
%TO.P,J9,2,Pin_2*%
%TO.N,/7*%
X152025000Y-71740000D03*
%TO.P,J9,3,Pin_3*%
%TO.N,/4*%
X152025000Y-74280000D03*
%TO.P,J9,4,Pin_4*%
%TO.N,GND*%
X152025000Y-76820000D03*
%TD*%
D10*
%TO.P,J8,1,Pin_1*%
%TO.N,+5V*%
X146525000Y-69200000D03*
D11*
%TO.P,J8,2,Pin_2*%
%TO.N,/12*%
X146525000Y-71740000D03*
%TO.P,J8,3,Pin_3*%
%TO.N,/8*%
X146525000Y-74280000D03*
%TO.P,J8,4,Pin_4*%
%TO.N,GND*%
X146525000Y-76820000D03*
%TD*%
D10*
%TO.P,J7,1,Pin_1*%
%TO.N,+5V*%
X123000000Y-69040000D03*
D11*
%TO.P,J7,2,Pin_2*%
%TO.N,unconnected-(J7-Pin_2-Pad2)*%
X123000000Y-66500000D03*
%TO.P,J7,3,Pin_3*%
%TO.N,/\u002A11*%
X123000000Y-63960000D03*
%TO.P,J7,4,Pin_4*%
%TO.N,GND*%
X123000000Y-61420000D03*
%TD*%
D15*
%TO.P,C1,1*%
%TO.N,+Vservo*%
X107000000Y-79000000D03*
D16*
%TO.P,C1,2*%
%TO.N,GND*%
X107000000Y-76500000D03*
%TD*%
D10*
%TO.P,M5,1,PWM*%
%TO.N,/\u002A10*%
X137000000Y-56475000D03*
D11*
%TO.P,M5,2,+*%
%TO.N,+Vservo*%
X137000000Y-59015000D03*
%TO.P,M5,3,-*%
%TO.N,GND*%
X137000000Y-61555000D03*
%TD*%
D10*
%TO.P,M4,1,PWM*%
%TO.N,/\u002A9*%
X141000000Y-56475000D03*
D11*
%TO.P,M4,2,+*%
%TO.N,+Vservo*%
X141000000Y-59015000D03*
%TO.P,M4,3,-*%
%TO.N,GND*%
X141000000Y-61555000D03*
%TD*%
D10*
%TO.P,M3,1,PWM*%
%TO.N,/\u002A6*%
X145500000Y-56475000D03*
D11*
%TO.P,M3,2,+*%
%TO.N,+Vservo*%
X145500000Y-59015000D03*
%TO.P,M3,3,-*%
%TO.N,GND*%
X145500000Y-61555000D03*
%TD*%
%TO.P,M2,3,-*%
%TO.N,GND*%
X149798000Y-61555000D03*
%TO.P,M2,2,+*%
%TO.N,+Vservo*%
X149798000Y-59015000D03*
D10*
%TO.P,M2,1,PWM*%
%TO.N,/\u002A5*%
X149798000Y-56475000D03*
%TD*%
D11*
%TO.P,M1,3,-*%
%TO.N,GND*%
X154500000Y-61580000D03*
%TO.P,M1,2,+*%
%TO.N,+Vservo*%
X154500000Y-59040000D03*
D10*
%TO.P,M1,1,PWM*%
%TO.N,/\u002A3*%
X154500000Y-56500000D03*
%TD*%
%TO.P,J1,1,Pin_1*%
%TO.N,unconnected-(J1-Pin_1-Pad1)*%
X127940000Y-97460000D03*
D11*
%TO.P,J1,2,Pin_2*%
%TO.N,/IOREF*%
X130480000Y-97460000D03*
%TO.P,J1,3,Pin_3*%
%TO.N,/~{RESET}*%
X133020000Y-97460000D03*
%TO.P,J1,4,Pin_4*%
%TO.N,+3V3*%
X135560000Y-97460000D03*
%TO.P,J1,5,Pin_5*%
%TO.N,+5V*%
X138100000Y-97460000D03*
%TO.P,J1,6,Pin_6*%
%TO.N,GND*%
X140640000Y-97460000D03*
%TO.P,J1,7,Pin_7*%
X143180000Y-97460000D03*
%TO.P,J1,8,Pin_8*%
%TO.N,/Vin*%
X145720000Y-97460000D03*
%TD*%
D10*
%TO.P,J3,1,Pin_1*%
%TO.N,/A0*%
X150800000Y-97460000D03*
D11*
%TO.P,J3,2,Pin_2*%
%TO.N,/A1*%
X153340000Y-97460000D03*
%TO.P,J3,3,Pin_3*%
%TO.N,/A2*%
X155880000Y-97460000D03*
%TO.P,J3,4,Pin_4*%
%TO.N,/A3*%
X158420000Y-97460000D03*
%TO.P,J3,5,Pin_5*%
%TO.N,/SDA{slash}A4*%
X160960000Y-97460000D03*
%TO.P,J3,6,Pin_6*%
%TO.N,/SCL{slash}A5*%
X163500000Y-97460000D03*
%TD*%
D10*
%TO.P,J2,1,Pin_1*%
%TO.N,/SCL{slash}A5*%
X118796000Y-49200000D03*
D11*
%TO.P,J2,2,Pin_2*%
%TO.N,/SDA{slash}A4*%
X121336000Y-49200000D03*
%TO.P,J2,3,Pin_3*%
%TO.N,/AREF*%
X123876000Y-49200000D03*
%TO.P,J2,4,Pin_4*%
%TO.N,GND*%
X126416000Y-49200000D03*
%TO.P,J2,5,Pin_5*%
%TO.N,/13*%
X128956000Y-49200000D03*
%TO.P,J2,6,Pin_6*%
%TO.N,/12*%
X131496000Y-49200000D03*
%TO.P,J2,7,Pin_7*%
%TO.N,/\u002A11*%
X134036000Y-49200000D03*
%TO.P,J2,8,Pin_8*%
%TO.N,/\u002A10*%
X136576000Y-49200000D03*
%TO.P,J2,9,Pin_9*%
%TO.N,/\u002A9*%
X139116000Y-49200000D03*
%TO.P,J2,10,Pin_10*%
%TO.N,/8*%
X141656000Y-49200000D03*
%TD*%
D10*
%TO.P,J4,1,Pin_1*%
%TO.N,/7*%
X145720000Y-49200000D03*
D11*
%TO.P,J4,2,Pin_2*%
%TO.N,/\u002A6*%
X148260000Y-49200000D03*
%TO.P,J4,3,Pin_3*%
%TO.N,/\u002A5*%
X150800000Y-49200000D03*
%TO.P,J4,4,Pin_4*%
%TO.N,/4*%
X153340000Y-49200000D03*
%TO.P,J4,5,Pin_5*%
%TO.N,/\u002A3*%
X155880000Y-49200000D03*
%TO.P,J4,6,Pin_6*%
%TO.N,/2*%
X158420000Y-49200000D03*
%TO.P,J4,7,Pin_7*%
%TO.N,/TX{slash}1*%
X160960000Y-49200000D03*
%TO.P,J4,8,Pin_8*%
%TO.N,/RX{slash}0*%
X163500000Y-49200000D03*
%TD*%
D17*
%TO.N,/8*%
X143000000Y-57500000D03*
X143000000Y-60000000D03*
%TO.N,+5V*%
X126500000Y-72000000D03*
%TO.N,/4*%
X152000000Y-52500000D03*
%TO.N,/7*%
X151000000Y-65500000D03*
%TD*%
D18*
%TO.N,/8*%
X143000000Y-60000000D02*
X143000000Y-57500000D01*
%TO.N,/4*%
X154500000Y-67500000D02*
X154500000Y-71805000D01*
X152000000Y-65000000D02*
X154500000Y-67500000D01*
X154500000Y-71805000D02*
X152025000Y-74280000D01*
X152000000Y-52500000D02*
X152000000Y-65000000D01*
%TO.N,+5V*%
X126500000Y-72620000D02*
X141380000Y-87500000D01*
X126500000Y-72000000D02*
X126500000Y-72620000D01*
%TO.N,/7*%
X146675000Y-50155000D02*
X145720000Y-49200000D01*
X146675000Y-61175000D02*
X146675000Y-50155000D01*
X151000000Y-65500000D02*
X146675000Y-61175000D01*
%TD*%
%TA.AperFunction,Conductor*%
%TO.N,GND*%
G36*
X142714075Y-97267007D02*
G01*
X142680000Y-97394174D01*
X142680000Y-97525826D01*
X142714075Y-97652993D01*
X142746988Y-97710000D01*
X141073012Y-97710000D01*
X141105925Y-97652993D01*
X141140000Y-97525826D01*
X141140000Y-97394174D01*
X141105925Y-97267007D01*
X141073012Y-97210000D01*
X142746988Y-97210000D01*
X142714075Y-97267007D01*
G37*
%TD.AperFunction*%
%TA.AperFunction,Conductor*%
G36*
X151291312Y-61745164D02*
G01*
X151345190Y-61789649D01*
X151366465Y-61856201D01*
X151366500Y-61859152D01*
X151366500Y-64596913D01*
X151346815Y-64663952D01*
X151294011Y-64709707D01*
X151224853Y-64719651D01*
X151201548Y-64713955D01*
X151181056Y-64706785D01*
X151181042Y-64706781D01*
X151135852Y-64701690D01*
X151071438Y-64674623D01*
X151062055Y-64666151D01*
X149497210Y-63101306D01*
X149463725Y-63039983D01*
X149468709Y-62970291D01*
X149509405Y-62915249D01*
X149548000Y-62885634D01*
X149548000Y-61988012D01*
X149605007Y-62020925D01*
X149732174Y-62055000D01*
X149863826Y-62055000D01*
X149990993Y-62020925D01*
X150048000Y-61988012D01*
X150048000Y-62885633D01*
X150261483Y-62828433D01*
X150261492Y-62828429D01*
X150475578Y-62728600D01*
X150669082Y-62593105D01*
X150836105Y-62426082D01*
X150971600Y-62232578D01*
X151071429Y-62018492D01*
X151071433Y-62018483D01*
X151122725Y-61827059D01*
X151159090Y-61767398D01*
X151221937Y-61736869D01*
X151291312Y-61745164D01*
G37*
%TD.AperFunction*%
%TA.AperFunction,Conductor*%
G36*
X163484404Y-46755185D02*
G01*
X163505046Y-46771819D01*
X165928181Y-49194954D01*
X165961666Y-49256277D01*
X165964500Y-49282635D01*
X165964500Y-59344982D01*
X165964500Y-59375018D01*
X165975994Y-59402767D01*
X165975995Y-59402768D01*
X168468181Y-61894954D01*
X168501666Y-61956277D01*
X168504500Y-61982635D01*
X168504500Y-81910445D01*
X168484815Y-81977484D01*
X168460967Y-81998148D01*
X168468805Y-82002501D01*
X168501851Y-82064062D01*
X168504500Y-82089554D01*
X168504500Y-96107364D01*
X168484815Y-96174403D01*
X168468181Y-96195045D01*
X165997233Y-98665994D01*
X165975995Y-98687231D01*
X165964500Y-98714982D01*
X165964500Y-99231907D01*
X165963903Y-99244062D01*
X165952505Y-99359778D01*
X165947763Y-99383618D01*
X165917832Y-99482290D01*
X165915789Y-99489024D01*
X165906486Y-99511482D01*
X165854561Y-99608627D01*
X165841056Y-99628839D01*
X165771176Y-99713988D01*
X165753988Y-99731176D01*
X165668839Y-99801056D01*
X165648627Y-99814561D01*
X165551482Y-99866486D01*
X165529028Y-99875787D01*
X165487028Y-99888528D01*
X165423618Y-99907763D01*
X165399778Y-99912505D01*
X165291162Y-99923203D01*
X165284060Y-99923903D01*
X165271907Y-99924500D01*
X100768093Y-99924500D01*
X100755939Y-99923903D01*
X100747995Y-99923120D01*
X100640221Y-99912505D01*
X100616381Y-99907763D01*
X100599445Y-99902625D01*
X100510968Y-99875786D01*
X100488517Y-99866486D01*
X100391372Y-99814561D01*
X100371160Y-99801056D01*
X100286011Y-99731176D01*
X100268823Y-99713988D01*
X100198943Y-99628839D01*
X100185438Y-99608627D01*
X100133510Y-99511476D01*
X100124215Y-99489037D01*
X100092234Y-99383612D01*
X100087494Y-99359777D01*
X100076097Y-99244061D01*
X100075500Y-99231907D01*
X100075500Y-96561345D01*
X126581500Y-96561345D01*
X126581500Y-98358654D01*
X126588011Y-98419202D01*
X126588011Y-98419204D01*
X126639111Y-98556204D01*
X126726739Y-98673261D01*
X126843796Y-98760889D01*
X126980799Y-98811989D01*
X127008050Y-98814918D01*
X127041345Y-98818499D01*
X127041362Y-98818500D01*
X128838638Y-98818500D01*
X128838654Y-98818499D01*
X128865692Y-98815591D01*
X128899201Y-98811989D01*
X129036204Y-98760889D01*
X129153261Y-98673261D01*
X129240889Y-98556204D01*
X129286138Y-98434887D01*
X129328009Y-98378956D01*
X129393474Y-98354539D01*
X129461746Y-98369391D01*
X129493545Y-98394236D01*
X129556760Y-98462906D01*
X129734424Y-98601189D01*
X129734425Y-98601189D01*
X129734427Y-98601191D01*
X129861135Y-98669761D01*
X129932426Y-98708342D01*
X130145365Y-98781444D01*
X130367431Y-98818500D01*
X130592569Y-98818500D01*
X130814635Y-98781444D01*
X131027574Y-98708342D01*
X131225576Y-98601189D01*
X131403240Y-98462906D01*
X131524594Y-98331082D01*
X131555715Y-98297276D01*
X131555715Y-98297275D01*
X131555722Y-98297268D01*
X131646193Y-98158790D01*
X131699338Y-98113437D01*
X131768569Y-98104013D01*
X131831905Y-98133515D01*
X131853804Y-98158787D01*
X131944278Y-98297268D01*
X131944283Y-98297273D01*
X131944284Y-98297276D01*
X132070968Y-98434889D01*
X132096760Y-98462906D01*
X132274424Y-98601189D01*
X132274425Y-98601189D01*
X132274427Y-98601191D01*
X132401135Y-98669761D01*
X132472426Y-98708342D01*
X132685365Y-98781444D01*
X132907431Y-98818500D01*
X133132569Y-98818500D01*
X133354635Y-98781444D01*
X133567574Y-98708342D01*
X133765576Y-98601189D01*
X133943240Y-98462906D01*
X134064594Y-98331082D01*
X134095715Y-98297276D01*
X134095715Y-98297275D01*
X134095722Y-98297268D01*
X134186193Y-98158790D01*
X134239338Y-98113437D01*
X134308569Y-98104013D01*
X134371905Y-98133515D01*
X134393804Y-98158787D01*
X134484278Y-98297268D01*
X134484283Y-98297273D01*
X134484284Y-98297276D01*
X134610968Y-98434889D01*
X134636760Y-98462906D01*
X134814424Y-98601189D01*
X134814425Y-98601189D01*
X134814427Y-98601191D01*
X134941135Y-98669761D01*
X135012426Y-98708342D01*
X135225365Y-98781444D01*
X135447431Y-98818500D01*
X135672569Y-98818500D01*
X135894635Y-98781444D01*
X136107574Y-98708342D01*
X136305576Y-98601189D01*
X136483240Y-98462906D01*
X136604594Y-98331082D01*
X136635715Y-98297276D01*
X136635715Y-98297275D01*
X136635722Y-98297268D01*
X136726193Y-98158790D01*
X136779338Y-98113437D01*
X136848569Y-98104013D01*
X136911905Y-98133515D01*
X136933804Y-98158787D01*
X137024278Y-98297268D01*
X137024283Y-98297273D01*
X137024284Y-98297276D01*
X137150968Y-98434889D01*
X137176760Y-98462906D01*
X137354424Y-98601189D01*
X137354425Y-98601189D01*
X137354427Y-98601191D01*
X137481135Y-98669761D01*
X137552426Y-98708342D01*
X137765365Y-98781444D01*
X137987431Y-98818500D01*
X138212569Y-98818500D01*
X138434635Y-98781444D01*
X138647574Y-98708342D01*
X138845576Y-98601189D01*
X139023240Y-98462906D01*
X139144594Y-98331082D01*
X139175715Y-98297276D01*
X139175715Y-98297275D01*
X139175722Y-98297268D01*
X139269749Y-98153347D01*
X139322894Y-98107994D01*
X139392125Y-98098570D01*
X139455461Y-98128072D01*
X139475130Y-98150048D01*
X139601890Y-98331078D01*
X139768917Y-98498105D01*
X139962421Y-98633600D01*
X140176507Y-98733429D01*
X140176516Y-98733433D01*
X140390000Y-98790634D01*
X140390000Y-97893012D01*
X140447007Y-97925925D01*
X140574174Y-97960000D01*
X140705826Y-97960000D01*
X140832993Y-97925925D01*
X140890000Y-97893012D01*
X140890000Y-98790633D01*
X141103483Y-98733433D01*
X141103492Y-98733429D01*
X141317578Y-98633600D01*
X141511082Y-98498105D01*
X141678105Y-98331082D01*
X141808425Y-98144968D01*
X141863002Y-98101344D01*
X141932501Y-98094151D01*
X141994855Y-98125673D01*
X142011575Y-98144968D01*
X142141894Y-98331082D01*
X142308917Y-98498105D01*
X142502421Y-98633600D01*
X142716507Y-98733429D01*
X142716516Y-98733433D01*
X142930000Y-98790634D01*
X142930000Y-97893012D01*
X142987007Y-97925925D01*
X143114174Y-97960000D01*
X143245826Y-97960000D01*
X143372993Y-97925925D01*
X143430000Y-97893012D01*
X143430000Y-98790633D01*
X143643483Y-98733433D01*
X143643492Y-98733429D01*
X143857578Y-98633600D01*
X144051082Y-98498105D01*
X144218105Y-98331082D01*
X144344868Y-98150048D01*
X144399445Y-98106423D01*
X144468944Y-98099231D01*
X144531298Y-98130753D01*
X144550251Y-98153350D01*
X144644276Y-98297265D01*
X144644284Y-98297276D01*
X144770968Y-98434889D01*
X144796760Y-98462906D01*
X144974424Y-98601189D01*
X144974425Y-98601189D01*
X144974427Y-98601191D01*
X145101135Y-98669761D01*
X145172426Y-98708342D01*
X145385365Y-98781444D01*
X145607431Y-98818500D01*
X145832569Y-98818500D01*
X146054635Y-98781444D01*
X146267574Y-98708342D01*
X146465576Y-98601189D01*
X146643240Y-98462906D01*
X146764594Y-98331082D01*
X146795715Y-98297276D01*
X146795717Y-98297273D01*
X146795722Y-98297268D01*
X146918860Y-98108791D01*
X147009296Y-97902616D01*
X147064564Y-97684368D01*
X147067164Y-97652993D01*
X147083156Y-97460005D01*
X147083156Y-97459994D01*
X147064565Y-97235640D01*
X147064563Y-97235628D01*
X147009296Y-97017385D01*
X146999071Y-96994075D01*
X146918860Y-96811209D01*
X146902706Y-96786484D01*
X146795723Y-96622734D01*
X146795715Y-96622723D01*
X146739212Y-96561345D01*
X149441500Y-96561345D01*
X149441500Y-98358654D01*
X149448011Y-98419202D01*
X149448011Y-98419204D01*
X149499111Y-98556204D01*
X149586739Y-98673261D01*
X149703796Y-98760889D01*
X149840799Y-98811989D01*
X149868050Y-98814918D01*
X149901345Y-98818499D01*
X149901362Y-98818500D01*
X151698638Y-98818500D01*
X151698654Y-98818499D01*
X151725692Y-98815591D01*
X151759201Y-98811989D01*
X151896204Y-98760889D01*
X152013261Y-98673261D01*
X152100889Y-98556204D01*
X152146138Y-98434887D01*
X152188009Y-98378956D01*
X152253474Y-98354539D01*
X152321746Y-98369391D01*
X152353545Y-98394236D01*
X152416760Y-98462906D01*
X152594424Y-98601189D01*
X152594425Y-98601189D01*
X152594427Y-98601191D01*
X152721135Y-98669761D01*
X152792426Y-98708342D01*
X153005365Y-98781444D01*
X153227431Y-98818500D01*
X153452569Y-98818500D01*
X153674635Y-98781444D01*
X153887574Y-98708342D01*
X154085576Y-98601189D01*
X154263240Y-98462906D01*
X154384594Y-98331082D01*
X154415715Y-98297276D01*
X154415715Y-98297275D01*
X154415722Y-98297268D01*
X154506193Y-98158790D01*
X154559338Y-98113437D01*
X154628569Y-98104013D01*
X154691905Y-98133515D01*
X154713804Y-98158787D01*
X154804278Y-98297268D01*
X154804283Y-98297273D01*
X154804284Y-98297276D01*
X154930968Y-98434889D01*
X154956760Y-98462906D01*
X155134424Y-98601189D01*
X155134425Y-98601189D01*
X155134427Y-98601191D01*
X155261135Y-98669761D01*
X155332426Y-98708342D01*
X155545365Y-98781444D01*
X155767431Y-98818500D01*
X155992569Y-98818500D01*
X156214635Y-98781444D01*
X156427574Y-98708342D01*
X156625576Y-98601189D01*
X156803240Y-98462906D01*
X156924594Y-98331082D01*
X156955715Y-98297276D01*
X156955715Y-98297275D01*
X156955722Y-98297268D01*
X157046193Y-98158790D01*
X157099338Y-98113437D01*
X157168569Y-98104013D01*
X157231905Y-98133515D01*
X157253804Y-98158787D01*
X157344278Y-98297268D01*
X157344283Y-98297273D01*
X157344284Y-98297276D01*
X157470968Y-98434889D01*
X157496760Y-98462906D01*
X157674424Y-98601189D01*
X157674425Y-98601189D01*
X157674427Y-98601191D01*
X157801135Y-98669761D01*
X157872426Y-98708342D01*
X158085365Y-98781444D01*
X158307431Y-98818500D01*
X158532569Y-98818500D01*
X158754635Y-98781444D01*
X158967574Y-98708342D01*
X159165576Y-98601189D01*
X159343240Y-98462906D01*
X159464594Y-98331082D01*
X159495715Y-98297276D01*
X159495715Y-98297275D01*
X159495722Y-98297268D01*
X159586193Y-98158790D01*
X159639338Y-98113437D01*
X159708569Y-98104013D01*
X159771905Y-98133515D01*
X159793804Y-98158787D01*
X159884278Y-98297268D01*
X159884283Y-98297273D01*
X159884284Y-98297276D01*
X160010968Y-98434889D01*
X160036760Y-98462906D01*
X160214424Y-98601189D01*
X160214425Y-98601189D01*
X160214427Y-98601191D01*
X160341135Y-98669761D01*
X160412426Y-98708342D01*
X160625365Y-98781444D01*
X160847431Y-98818500D01*
X161072569Y-98818500D01*
X161294635Y-98781444D01*
X161507574Y-98708342D01*
X161705576Y-98601189D01*
X161883240Y-98462906D01*
X162004594Y-98331082D01*
X162035715Y-98297276D01*
X162035715Y-98297275D01*
X162035722Y-98297268D01*
X162126193Y-98158790D01*
X162179338Y-98113437D01*
X162248569Y-98104013D01*
X162311905Y-98133515D01*
X162333804Y-98158787D01*
X162424278Y-98297268D01*
X162424283Y-98297273D01*
X162424284Y-98297276D01*
X162550968Y-98434889D01*
X162576760Y-98462906D01*
X162754424Y-98601189D01*
X162754425Y-98601189D01*
X162754427Y-98601191D01*
X162881135Y-98669761D01*
X162952426Y-98708342D01*
X163165365Y-98781444D01*
X163387431Y-98818500D01*
X163612569Y-98818500D01*
X163834635Y-98781444D01*
X164047574Y-98708342D01*
X164245576Y-98601189D01*
X164423240Y-98462906D01*
X164544594Y-98331082D01*
X164575715Y-98297276D01*
X164575717Y-98297273D01*
X164575722Y-98297268D01*
X164698860Y-98108791D01*
X164789296Y-97902616D01*
X164844564Y-97684368D01*
X164847164Y-97652993D01*
X164863156Y-97460005D01*
X164863156Y-97459994D01*
X164844565Y-97235640D01*
X164844563Y-97235628D01*
X164789296Y-97017385D01*
X164779071Y-96994075D01*
X164698860Y-96811209D01*
X164682706Y-96786484D01*
X164575723Y-96622734D01*
X164575715Y-96622723D01*
X164423243Y-96457097D01*
X164423238Y-96457092D01*
X164245577Y-96318812D01*
X164245572Y-96318808D01*
X164047580Y-96211661D01*
X164047577Y-96211659D01*
X164047574Y-96211658D01*
X164047571Y-96211657D01*
X164047569Y-96211656D01*
X163834637Y-96138556D01*
X163612569Y-96101500D01*
X163387431Y-96101500D01*
X163165362Y-96138556D01*
X162952430Y-96211656D01*
X162952419Y-96211661D01*
X162754427Y-96318808D01*
X162754422Y-96318812D01*
X162576761Y-96457092D01*
X162576756Y-96457097D01*
X162424284Y-96622723D01*
X162424276Y-96622734D01*
X162333808Y-96761206D01*
X162280662Y-96806562D01*
X162211431Y-96815986D01*
X162148095Y-96786484D01*
X162126192Y-96761206D01*
X162035723Y-96622734D01*
X162035715Y-96622723D01*
X161883243Y-96457097D01*
X161883238Y-96457092D01*
X161705577Y-96318812D01*
X161705572Y-96318808D01*
X161507580Y-96211661D01*
X161507577Y-96211659D01*
X161507574Y-96211658D01*
X161507571Y-96211657D01*
X161507569Y-96211656D01*
X161294637Y-96138556D01*
X161072569Y-96101500D01*
X160847431Y-96101500D01*
X160625362Y-96138556D01*
X160412430Y-96211656D01*
X160412419Y-96211661D01*
X160214427Y-96318808D01*
X160214422Y-96318812D01*
X160036761Y-96457092D01*
X160036756Y-96457097D01*
X159884284Y-96622723D01*
X159884276Y-96622734D01*
X159793808Y-96761206D01*
X159740662Y-96806562D01*
X159671431Y-96815986D01*
X159608095Y-96786484D01*
X159586192Y-96761206D01*
X159495723Y-96622734D01*
X159495715Y-96622723D01*
X159343243Y-96457097D01*
X159343238Y-96457092D01*
X159165577Y-96318812D01*
X159165572Y-96318808D01*
X158967580Y-96211661D01*
X158967577Y-96211659D01*
X158967574Y-96211658D01*
X158967571Y-96211657D01*
X158967569Y-96211656D01*
X158754637Y-96138556D01*
X158532569Y-96101500D01*
X158307431Y-96101500D01*
X158085362Y-96138556D01*
X157872430Y-96211656D01*
X157872419Y-96211661D01*
X157674427Y-96318808D01*
X157674422Y-96318812D01*
X157496761Y-96457092D01*
X157496756Y-96457097D01*
X157344284Y-96622723D01*
X157344276Y-96622734D01*
X157253808Y-96761206D01*
X157200662Y-96806562D01*
X157131431Y-96815986D01*
X157068095Y-96786484D01*
X157046192Y-96761206D01*
X156955723Y-96622734D01*
X156955715Y-96622723D01*
X156803243Y-96457097D01*
X156803238Y-96457092D01*
X156625577Y-96318812D01*
X156625572Y-96318808D01*
X156427580Y-96211661D01*
X156427577Y-96211659D01*
X156427574Y-96211658D01*
X156427571Y-96211657D01*
X156427569Y-96211656D01*
X156214637Y-96138556D01*
X155992569Y-96101500D01*
X155767431Y-96101500D01*
X155545362Y-96138556D01*
X155332430Y-96211656D01*
X155332419Y-96211661D01*
X155134427Y-96318808D01*
X155134422Y-96318812D01*
X154956761Y-96457092D01*
X154956756Y-96457097D01*
X154804284Y-96622723D01*
X154804276Y-96622734D01*
X154713808Y-96761206D01*
X154660662Y-96806562D01*
X154591431Y-96815986D01*
X154528095Y-96786484D01*
X154506192Y-96761206D01*
X154415723Y-96622734D01*
X154415715Y-96622723D01*
X154263243Y-96457097D01*
X154263238Y-96457092D01*
X154085577Y-96318812D01*
X154085572Y-96318808D01*
X153887580Y-96211661D01*
X153887577Y-96211659D01*
X153887574Y-96211658D01*
X153887571Y-96211657D01*
X153887569Y-96211656D01*
X153674637Y-96138556D01*
X153452569Y-96101500D01*
X153227431Y-96101500D01*
X153005362Y-96138556D01*
X152792430Y-96211656D01*
X152792419Y-96211661D01*
X152594427Y-96318808D01*
X152594422Y-96318812D01*
X152416761Y-96457092D01*
X152353548Y-96525760D01*
X152293661Y-96561750D01*
X152223823Y-96559649D01*
X152166207Y-96520124D01*
X152146138Y-96485110D01*
X152100889Y-96363796D01*
X152067214Y-96318812D01*
X152013261Y-96246739D01*
X151896204Y-96159111D01*
X151895172Y-96158726D01*
X151759203Y-96108011D01*
X151698654Y-96101500D01*
X151698638Y-96101500D01*
X149901362Y-96101500D01*
X149901345Y-96101500D01*
X149840797Y-96108011D01*
X149840795Y-96108011D01*
X149703795Y-96159111D01*
X149586739Y-96246739D01*
X149499111Y-96363795D01*
X149448011Y-96500795D01*
X149448011Y-96500797D01*
X149441500Y-96561345D01*
X146739212Y-96561345D01*
X146643243Y-96457097D01*
X146643238Y-96457092D01*
X146465577Y-96318812D01*
X146465572Y-96318808D01*
X146267580Y-96211661D01*
X146267577Y-96211659D01*
X146267574Y-96211658D01*
X146267571Y-96211657D01*
X146267569Y-96211656D01*
X146054637Y-96138556D01*
X145832569Y-96101500D01*
X145607431Y-96101500D01*
X145385362Y-96138556D01*
X145172430Y-96211656D01*
X145172419Y-96211661D01*
X144974427Y-96318808D01*
X144974422Y-96318812D01*
X144796761Y-96457092D01*
X144796756Y-96457097D01*
X144644284Y-96622723D01*
X144644276Y-96622734D01*
X144550251Y-96766650D01*
X144497105Y-96812007D01*
X144427873Y-96821430D01*
X144364538Y-96791928D01*
X144344868Y-96769951D01*
X144218113Y-96588926D01*
X144218108Y-96588920D01*
X144051082Y-96421894D01*
X143857578Y-96286399D01*
X143643492Y-96186570D01*
X143643486Y-96186567D01*
X143430000Y-96129364D01*
X143430000Y-97026988D01*
X143372993Y-96994075D01*
X143245826Y-96960000D01*
X143114174Y-96960000D01*
X142987007Y-96994075D01*
X142930000Y-97026988D01*
X142930000Y-96129364D01*
X142929999Y-96129364D01*
X142716513Y-96186567D01*
X142716507Y-96186570D01*
X142502422Y-96286399D01*
X142502420Y-96286400D01*
X142308926Y-96421886D01*
X142308920Y-96421891D01*
X142141891Y-96588920D01*
X142141890Y-96588922D01*
X142011575Y-96775031D01*
X141956998Y-96818655D01*
X141887499Y-96825848D01*
X141825145Y-96794326D01*
X141808425Y-96775031D01*
X141678109Y-96588922D01*
X141678108Y-96588920D01*
X141511082Y-96421894D01*
X141317578Y-96286399D01*
X141103492Y-96186570D01*
X141103486Y-96186567D01*
X140890000Y-96129364D01*
X140890000Y-97026988D01*
X140832993Y-96994075D01*
X140705826Y-96960000D01*
X140574174Y-96960000D01*
X140447007Y-96994075D01*
X140390000Y-97026988D01*
X140390000Y-96129364D01*
X140389999Y-96129364D01*
X140176513Y-96186567D01*
X140176507Y-96186570D01*
X139962422Y-96286399D01*
X139962420Y-96286400D01*
X139768926Y-96421886D01*
X139768920Y-96421891D01*
X139601891Y-96588920D01*
X139601890Y-96588922D01*
X139475131Y-96769952D01*
X139420554Y-96813577D01*
X139351055Y-96820769D01*
X139288701Y-96789247D01*
X139269752Y-96766656D01*
X139175722Y-96622732D01*
X139175715Y-96622725D01*
X139175715Y-96622723D01*
X139023243Y-96457097D01*
X139023238Y-96457092D01*
X138845577Y-96318812D01*
X138845572Y-96318808D01*
X138647580Y-96211661D01*
X138647577Y-96211659D01*
X138647574Y-96211658D01*
X138647571Y-96211657D01*
X138647569Y-96211656D01*
X138434637Y-96138556D01*
X138212569Y-96101500D01*
X137987431Y-96101500D01*
X137765362Y-96138556D01*
X137552430Y-96211656D01*
X137552419Y-96211661D01*
X137354427Y-96318808D01*
X137354422Y-96318812D01*
X137176761Y-96457092D01*
X137176756Y-96457097D01*
X137024284Y-96622723D01*
X137024276Y-96622734D01*
X136933808Y-96761206D01*
X136880662Y-96806562D01*
X136811431Y-96815986D01*
X136748095Y-96786484D01*
X136726192Y-96761206D01*
X136635723Y-96622734D01*
X136635715Y-96622723D01*
X136483243Y-96457097D01*
X136483238Y-96457092D01*
X136305577Y-96318812D01*
X136305572Y-96318808D01*
X136107580Y-96211661D01*
X136107577Y-96211659D01*
X136107574Y-96211658D01*
X136107571Y-96211657D01*
X136107569Y-96211656D01*
X135894637Y-96138556D01*
X135672569Y-96101500D01*
X135447431Y-96101500D01*
X135225362Y-96138556D01*
X135012430Y-96211656D01*
X135012419Y-96211661D01*
X134814427Y-96318808D01*
X134814422Y-96318812D01*
X134636761Y-96457092D01*
X134636756Y-96457097D01*
X134484284Y-96622723D01*
X134484276Y-96622734D01*
X134393808Y-96761206D01*
X134340662Y-96806562D01*
X134271431Y-96815986D01*
X134208095Y-96786484D01*
X134186192Y-96761206D01*
X134095723Y-96622734D01*
X134095715Y-96622723D01*
X133943243Y-96457097D01*
X133943238Y-96457092D01*
X133765577Y-96318812D01*
X133765572Y-96318808D01*
X133567580Y-96211661D01*
X133567577Y-96211659D01*
X133567574Y-96211658D01*
X133567571Y-96211657D01*
X133567569Y-96211656D01*
X133354637Y-96138556D01*
X133132569Y-96101500D01*
X132907431Y-96101500D01*
X132685362Y-96138556D01*
X132472430Y-96211656D01*
X132472419Y-96211661D01*
X132274427Y-96318808D01*
X132274422Y-96318812D01*
X132096761Y-96457092D01*
X132096756Y-96457097D01*
X131944284Y-96622723D01*
X131944276Y-96622734D01*
X131853808Y-96761206D01*
X131800662Y-96806562D01*
X131731431Y-96815986D01*
X131668095Y-96786484D01*
X131646192Y-96761206D01*
X131555723Y-96622734D01*
X131555715Y-96622723D01*
X131403243Y-96457097D01*
X131403238Y-96457092D01*
X131225577Y-96318812D01*
X131225572Y-96318808D01*
X131027580Y-96211661D01*
X131027577Y-96211659D01*
X131027574Y-96211658D01*
X131027571Y-96211657D01*
X131027569Y-96211656D01*
X130814637Y-96138556D01*
X130592569Y-96101500D01*
X130367431Y-96101500D01*
X130145362Y-96138556D01*
X129932430Y-96211656D01*
X129932419Y-96211661D01*
X129734427Y-96318808D01*
X129734422Y-96318812D01*
X129556761Y-96457092D01*
X129493548Y-96525760D01*
X129433661Y-96561750D01*
X129363823Y-96559649D01*
X129306207Y-96520124D01*
X129286138Y-96485110D01*
X129240889Y-96363796D01*
X129207214Y-96318812D01*
X129153261Y-96246739D01*
X129036204Y-96159111D01*
X129035172Y-96158726D01*
X128899203Y-96108011D01*
X128838654Y-96101500D01*
X128838638Y-96101500D01*
X127041362Y-96101500D01*
X127041345Y-96101500D01*
X126980797Y-96108011D01*
X126980795Y-96108011D01*
X126843795Y-96159111D01*
X126726739Y-96246739D01*
X126639111Y-96363795D01*
X126588011Y-96500795D01*
X126588011Y-96500797D01*
X126581500Y-96561345D01*
X100075500Y-96561345D01*
X100075500Y-78151345D01*
X105691500Y-78151345D01*
X105691500Y-79848654D01*
X105698011Y-79909202D01*
X105698011Y-79909204D01*
X105749111Y-80046204D01*
X105836739Y-80163261D01*
X105953796Y-80250889D01*
X106090799Y-80301989D01*
X106118050Y-80304918D01*
X106151345Y-80308499D01*
X106151362Y-80308500D01*
X107848638Y-80308500D01*
X107848654Y-80308499D01*
X107875692Y-80305591D01*
X107909201Y-80301989D01*
X108046204Y-80250889D01*
X108163261Y-80163261D01*
X108250889Y-80046204D01*
X108301989Y-79909201D01*
X108305591Y-79875692D01*
X108308499Y-79848654D01*
X108308500Y-79848637D01*
X108308500Y-78151362D01*
X108308499Y-78151345D01*
X108305157Y-78120270D01*
X108301989Y-78090799D01*
X108250889Y-77953796D01*
X108163261Y-77836739D01*
X108046204Y-77749111D01*
X107909203Y-77698011D01*
X107848654Y-77691500D01*
X107845331Y-77691323D01*
X107845340Y-77691144D01*
X107845335Y-77691144D01*
X107845346Y-77691040D01*
X107845408Y-77689871D01*
X107783915Y-77671815D01*
X107738160Y-77619011D01*
X107732479Y-77586032D01*
X107046447Y-76900000D01*
X107052661Y-76900000D01*
X107154394Y-76872741D01*
X107245606Y-76820080D01*
X107320080Y-76745606D01*
X107372741Y-76654394D01*
X107400000Y-76552661D01*
X107400000Y-76546447D01*
X108079024Y-77225471D01*
X108130136Y-77152478D01*
X108226264Y-76946331D01*
X108226269Y-76946317D01*
X108285139Y-76726610D01*
X108285141Y-76726599D01*
X108304966Y-76500002D01*
X108304966Y-76499997D01*
X108285141Y-76273400D01*
X108285139Y-76273389D01*
X108226269Y-76053682D01*
X108226264Y-76053668D01*
X108130136Y-75847521D01*
X108130132Y-75847513D01*
X108079025Y-75774526D01*
X107400000Y-76453551D01*
X107400000Y-76447339D01*
X107372741Y-76345606D01*
X107320080Y-76254394D01*
X107245606Y-76179920D01*
X107154394Y-76127259D01*
X107052661Y-76100000D01*
X107046448Y-76100000D01*
X107725472Y-75420974D01*
X107652478Y-75369863D01*
X107446331Y-75273735D01*
X107446317Y-75273730D01*
X107226610Y-75214860D01*
X107226599Y-75214858D01*
X107000002Y-75195034D01*
X106999998Y-75195034D01*
X106773400Y-75214858D01*
X106773389Y-75214860D01*
X106553682Y-75273730D01*
X106553673Y-75273734D01*
X106347516Y-75369866D01*
X106347512Y-75369868D01*
X106274526Y-75420973D01*
X106274526Y-75420974D01*
X106953553Y-76100000D01*
X106947339Y-76100000D01*
X106845606Y-76127259D01*
X106754394Y-76179920D01*
X106679920Y-76254394D01*
X106627259Y-76345606D01*
X106600000Y-76447339D01*
X106600000Y-76453552D01*
X105920974Y-75774526D01*
X105920973Y-75774526D01*
X105869868Y-75847512D01*
X105869866Y-75847516D01*
X105773734Y-76053673D01*
X105773730Y-76053682D01*
X105714860Y-76273389D01*
X105714858Y-76273400D01*
X105695034Y-76499997D01*
X105695034Y-76500002D01*
X105714858Y-76726599D01*
X105714860Y-76726610D01*
X105773730Y-76946317D01*
X105773735Y-76946331D01*
X105869863Y-77152478D01*
X105920974Y-77225472D01*
X106600000Y-76546446D01*
X106600000Y-76552661D01*
X106627259Y-76654394D01*
X106679920Y-76745606D01*
X106754394Y-76820080D01*
X106845606Y-76872741D01*
X106947339Y-76900000D01*
X106953553Y-76900000D01*
X106266464Y-77587087D01*
X106258805Y-77625195D01*
X106210189Y-77675377D01*
X106154600Y-77690035D01*
X106154653Y-77691040D01*
X106154665Y-77691144D01*
X106154659Y-77691144D01*
X106154669Y-77691323D01*
X106151345Y-77691500D01*
X106090797Y-77698011D01*
X106090795Y-77698011D01*
X105953795Y-77749111D01*
X105836739Y-77836739D01*
X105749111Y-77953795D01*
X105698011Y-78090795D01*
X105698011Y-78090797D01*
X105691500Y-78151345D01*
X100075500Y-78151345D01*
X100075500Y-71999996D01*
X125686384Y-71999996D01*
X125686384Y-72000003D01*
X125706781Y-72181041D01*
X125706782Y-72181046D01*
X125766958Y-72353019D01*
X125766960Y-72353022D01*
X125847493Y-72481188D01*
X125866500Y-72547160D01*
X125866500Y-72682398D01*
X125890843Y-72804777D01*
X125890845Y-72804785D01*
X125938598Y-72920072D01*
X125938603Y-72920081D01*
X126007928Y-73023832D01*
X126007931Y-73023836D01*
X139985181Y-87001085D01*
X140018666Y-87062408D01*
X140021500Y-87088766D01*
X140021500Y-88398654D01*
X140028011Y-88459202D01*
X140028011Y-88459204D01*
X140079111Y-88596204D01*
X140166739Y-88713261D01*
X140283796Y-88800889D01*
X140420799Y-88851989D01*
X140448050Y-88854918D01*
X140481345Y-88858499D01*
X140481362Y-88858500D01*
X142278638Y-88858500D01*
X142278654Y-88858499D01*
X142305692Y-88855591D01*
X142339201Y-88851989D01*
X142476204Y-88800889D01*
X142593261Y-88713261D01*
X142680889Y-88596204D01*
X142726138Y-88474887D01*
X142768009Y-88418956D01*
X142833474Y-88394539D01*
X142901746Y-88409391D01*
X142933545Y-88434236D01*
X142996760Y-88502906D01*
X143174424Y-88641189D01*
X143174425Y-88641189D01*
X143174427Y-88641191D01*
X143234314Y-88673600D01*
X143372426Y-88748342D01*
X143585365Y-88821444D01*
X143807431Y-88858500D01*
X144032569Y-88858500D01*
X144254635Y-88821444D01*
X144467574Y-88748342D01*
X144665576Y-88641189D01*
X144843240Y-88502906D01*
X144964594Y-88371082D01*
X144995715Y-88337276D01*
X144995715Y-88337275D01*
X144995722Y-88337268D01*
X145086193Y-88198790D01*
X145139338Y-88153437D01*
X145208569Y-88144013D01*
X145271905Y-88173515D01*
X145293804Y-88198787D01*
X145384278Y-88337268D01*
X145384283Y-88337273D01*
X145384284Y-88337276D01*
X145510968Y-88474889D01*
X145536760Y-88502906D01*
X145714424Y-88641189D01*
X145714425Y-88641189D01*
X145714427Y-88641191D01*
X145774314Y-88673600D01*
X145912426Y-88748342D01*
X146125365Y-88821444D01*
X146347431Y-88858500D01*
X146572569Y-88858500D01*
X146794635Y-88821444D01*
X147007574Y-88748342D01*
X147205576Y-88641189D01*
X147383240Y-88502906D01*
X147504594Y-88371082D01*
X147535715Y-88337276D01*
X147535715Y-88337275D01*
X147535722Y-88337268D01*
X147629749Y-88193347D01*
X147682894Y-88147994D01*
X147752125Y-88138570D01*
X147815461Y-88168072D01*
X147835130Y-88190048D01*
X147961890Y-88371078D01*
X148128917Y-88538105D01*
X148322421Y-88673600D01*
X148536507Y-88773429D01*
X148536516Y-88773433D01*
X148750000Y-88830634D01*
X148750000Y-87933012D01*
X148807007Y-87965925D01*
X148934174Y-88000000D01*
X149065826Y-88000000D01*
X149192993Y-87965925D01*
X149250000Y-87933012D01*
X149250000Y-88830633D01*
X149463483Y-88773433D01*
X149463492Y-88773429D01*
X149677578Y-88673600D01*
X149871082Y-88538105D01*
X150038105Y-88371082D01*
X150173600Y-88177578D01*
X150273429Y-87963492D01*
X150273432Y-87963486D01*
X150330636Y-87750000D01*
X149433012Y-87750000D01*
X149465925Y-87692993D01*
X149500000Y-87565826D01*
X149500000Y-87434174D01*
X149465925Y-87307007D01*
X149433012Y-87250000D01*
X150330636Y-87250000D01*
X150330635Y-87249999D01*
X150273432Y-87036513D01*
X150273429Y-87036507D01*
X150173600Y-86822422D01*
X150173599Y-86822420D01*
X150038113Y-86628926D01*
X150038108Y-86628920D01*
X149909182Y-86499994D01*
X158744859Y-86499994D01*
X158744859Y-86500005D01*
X158765385Y-86747729D01*
X158765387Y-86747738D01*
X158826412Y-86988717D01*
X158926266Y-87216364D01*
X159026564Y-87369882D01*
X159726212Y-86670234D01*
X159737482Y-86712292D01*
X159809890Y-86837708D01*
X159912292Y-86940110D01*
X160037708Y-87012518D01*
X160079765Y-87023787D01*
X159379942Y-87723609D01*
X159426768Y-87760055D01*
X159426770Y-87760056D01*
X159645385Y-87878364D01*
X159645396Y-87878369D01*
X159880506Y-87959083D01*
X160125707Y-88000000D01*
X160374293Y-88000000D01*
X160619493Y-87959083D01*
X160854603Y-87878369D01*
X160854614Y-87878364D01*
X161073228Y-87760057D01*
X161073231Y-87760055D01*
X161120056Y-87723609D01*
X160420234Y-87023787D01*
X160462292Y-87012518D01*
X160587708Y-86940110D01*
X160690110Y-86837708D01*
X160762518Y-86712292D01*
X160773787Y-86670235D01*
X161473434Y-87369882D01*
X161573731Y-87216369D01*
X161673587Y-86988717D01*
X161734612Y-86747738D01*
X161734614Y-86747729D01*
X161755141Y-86500005D01*
X161755141Y-86499994D01*
X165244859Y-86499994D01*
X165244859Y-86500005D01*
X165265385Y-86747729D01*
X165265387Y-86747738D01*
X165326412Y-86988717D01*
X165426266Y-87216364D01*
X165526564Y-87369882D01*
X166226212Y-86670234D01*
X166237482Y-86712292D01*
X166309890Y-86837708D01*
X166412292Y-86940110D01*
X166537708Y-87012518D01*
X166579765Y-87023787D01*
X165879942Y-87723609D01*
X165926768Y-87760055D01*
X165926770Y-87760056D01*
X166145385Y-87878364D01*
X166145396Y-87878369D01*
X166380506Y-87959083D01*
X166625707Y-88000000D01*
X166874293Y-88000000D01*
X167119493Y-87959083D01*
X167354603Y-87878369D01*
X167354614Y-87878364D01*
X167573228Y-87760057D01*
X167573231Y-87760055D01*
X167620056Y-87723609D01*
X166920234Y-87023787D01*
X166962292Y-87012518D01*
X167087708Y-86940110D01*
X167190110Y-86837708D01*
X167262518Y-86712292D01*
X167273787Y-86670235D01*
X167973434Y-87369882D01*
X168073731Y-87216369D01*
X168173587Y-86988717D01*
X168234612Y-86747738D01*
X168234614Y-86747729D01*
X168255141Y-86500005D01*
X168255141Y-86499994D01*
X168234614Y-86252270D01*
X168234612Y-86252261D01*
X168173587Y-86011282D01*
X168073731Y-85783630D01*
X167973434Y-85630116D01*
X167273787Y-86329764D01*
X167262518Y-86287708D01*
X167190110Y-86162292D01*
X167087708Y-86059890D01*
X166962292Y-85987482D01*
X166920235Y-85976212D01*
X167620057Y-85276390D01*
X167620056Y-85276389D01*
X167573229Y-85239943D01*
X167354614Y-85121635D01*
X167354603Y-85121630D01*
X167119493Y-85040916D01*
X166874293Y-85000000D01*
X166625707Y-85000000D01*
X166380506Y-85040916D01*
X166145396Y-85121630D01*
X166145390Y-85121632D01*
X165926761Y-85239949D01*
X165879942Y-85276388D01*
X165879942Y-85276390D01*
X166579765Y-85976212D01*
X166537708Y-85987482D01*
X166412292Y-86059890D01*
X166309890Y-86162292D01*
X166237482Y-86287708D01*
X166226212Y-86329764D01*
X165526564Y-85630116D01*
X165426267Y-85783632D01*
X165326412Y-86011282D01*
X165265387Y-86252261D01*
X165265385Y-86252270D01*
X165244859Y-86499994D01*
X161755141Y-86499994D01*
X161734614Y-86252270D01*
X161734612Y-86252261D01*
X161673587Y-86011282D01*
X161573731Y-85783630D01*
X161473434Y-85630116D01*
X160773787Y-86329764D01*
X160762518Y-86287708D01*
X160690110Y-86162292D01*
X160587708Y-86059890D01*
X160462292Y-85987482D01*
X160420235Y-85976212D01*
X161120057Y-85276390D01*
X161120056Y-85276389D01*
X161073229Y-85239943D01*
X160854614Y-85121635D01*
X160854603Y-85121630D01*
X160619493Y-85040916D01*
X160374293Y-85000000D01*
X160125707Y-85000000D01*
X159880506Y-85040916D01*
X159645396Y-85121630D01*
X159645390Y-85121632D01*
X159426761Y-85239949D01*
X159379942Y-85276388D01*
X159379942Y-85276390D01*
X160079765Y-85976212D01*
X160037708Y-85987482D01*
X159912292Y-86059890D01*
X159809890Y-86162292D01*
X159737482Y-86287708D01*
X159726212Y-86329764D01*
X159026564Y-85630116D01*
X158926267Y-85783632D01*
X158826412Y-86011282D01*
X158765387Y-86252261D01*
X158765385Y-86252270D01*
X158744859Y-86499994D01*
X149909182Y-86499994D01*
X149871082Y-86461894D01*
X149677578Y-86326399D01*
X149463492Y-86226570D01*
X149463486Y-86226567D01*
X149250000Y-86169364D01*
X149250000Y-87066988D01*
X149192993Y-87034075D01*
X149065826Y-87000000D01*
X148934174Y-87000000D01*
X148807007Y-87034075D01*
X148750000Y-87066988D01*
X148750000Y-86169364D01*
X148749999Y-86169364D01*
X148536513Y-86226567D01*
X148536507Y-86226570D01*
X148322422Y-86326399D01*
X148322420Y-86326400D01*
X148128926Y-86461886D01*
X148128920Y-86461891D01*
X147961891Y-86628920D01*
X147961890Y-86628922D01*
X147835131Y-86809952D01*
X147780554Y-86853577D01*
X147711055Y-86860769D01*
X147648701Y-86829247D01*
X147629752Y-86806656D01*
X147535722Y-86662732D01*
X147535715Y-86662725D01*
X147535715Y-86662723D01*
X147383243Y-86497097D01*
X147383238Y-86497092D01*
X147205577Y-86358812D01*
X147205572Y-86358808D01*
X147007580Y-86251661D01*
X147007577Y-86251659D01*
X147007574Y-86251658D01*
X147007571Y-86251657D01*
X147007569Y-86251656D01*
X146794637Y-86178556D01*
X146572569Y-86141500D01*
X146347431Y-86141500D01*
X146125362Y-86178556D01*
X145912430Y-86251656D01*
X145912419Y-86251661D01*
X145714427Y-86358808D01*
X145714422Y-86358812D01*
X145536761Y-86497092D01*
X145536756Y-86497097D01*
X145384284Y-86662723D01*
X145384276Y-86662734D01*
X145293808Y-86801206D01*
X145240662Y-86846562D01*
X145171431Y-86855986D01*
X145108095Y-86826484D01*
X145086192Y-86801206D01*
X144995723Y-86662734D01*
X144995715Y-86662723D01*
X144843243Y-86497097D01*
X144843238Y-86497092D01*
X144665577Y-86358812D01*
X144665572Y-86358808D01*
X144467580Y-86251661D01*
X144467577Y-86251659D01*
X144467574Y-86251658D01*
X144467571Y-86251657D01*
X144467569Y-86251656D01*
X144254637Y-86178556D01*
X144032569Y-86141500D01*
X143807431Y-86141500D01*
X143585362Y-86178556D01*
X143372430Y-86251656D01*
X143372419Y-86251661D01*
X143174427Y-86358808D01*
X143174422Y-86358812D01*
X142996761Y-86497092D01*
X142933548Y-86565760D01*
X142873661Y-86601750D01*
X142803823Y-86599649D01*
X142746207Y-86560124D01*
X142726138Y-86525110D01*
X142680889Y-86403796D01*
X142647214Y-86358812D01*
X142593261Y-86286739D01*
X142476204Y-86199111D01*
X142339203Y-86148011D01*
X142278654Y-86141500D01*
X142278638Y-86141500D01*
X140968767Y-86141500D01*
X140901728Y-86121815D01*
X140881086Y-86105181D01*
X136775905Y-82000000D01*
X158736835Y-82000000D01*
X158755465Y-82236714D01*
X158810895Y-82467595D01*
X158810895Y-82467597D01*
X158901757Y-82686959D01*
X158901759Y-82686962D01*
X159025820Y-82889410D01*
X159025821Y-82889413D01*
X159025824Y-82889416D01*
X159180031Y-83069969D01*
X159319797Y-83189340D01*
X159360586Y-83224178D01*
X159360589Y-83224179D01*
X159563037Y-83348240D01*
X159563040Y-83348242D01*
X159782403Y-83439104D01*
X159782404Y-83439104D01*
X159782406Y-83439105D01*
X160013289Y-83494535D01*
X160250000Y-83513165D01*
X160486711Y-83494535D01*
X160717594Y-83439105D01*
X160717596Y-83439104D01*
X160717597Y-83439104D01*
X160936959Y-83348242D01*
X160936960Y-83348241D01*
X160936963Y-83348240D01*
X161139416Y-83224176D01*
X161319969Y-83069969D01*
X161474176Y-82889416D01*
X161598240Y-82686963D01*
X161689105Y-82467594D01*
X161744535Y-82236711D01*
X161763165Y-82000000D01*
X165236835Y-82000000D01*
X165255465Y-82236714D01*
X165310895Y-82467595D01*
X165310895Y-82467597D01*
X165401757Y-82686959D01*
X165401759Y-82686962D01*
X165525820Y-82889410D01*
X165525821Y-82889413D01*
X165525824Y-82889416D01*
X165680031Y-83069969D01*
X165819797Y-83189340D01*
X165860586Y-83224178D01*
X165860589Y-83224179D01*
X166063037Y-83348240D01*
X166063040Y-83348242D01*
X166282403Y-83439104D01*
X166282404Y-83439104D01*
X166282406Y-83439105D01*
X166513289Y-83494535D01*
X166750000Y-83513165D01*
X166986711Y-83494535D01*
X167217594Y-83439105D01*
X167217596Y-83439104D01*
X167217597Y-83439104D01*
X167436959Y-83348242D01*
X167436960Y-83348241D01*
X167436963Y-83348240D01*
X167639416Y-83224176D01*
X167819969Y-83069969D01*
X167974176Y-82889416D01*
X168098240Y-82686963D01*
X168189105Y-82467594D01*
X168244535Y-82236711D01*
X168256882Y-82079823D01*
X168281766Y-82014536D01*
X168298184Y-82002427D01*
X168261523Y-81945380D01*
X168256882Y-81920174D01*
X168244535Y-81763289D01*
X168189105Y-81532406D01*
X168189104Y-81532403D01*
X168189104Y-81532402D01*
X168098242Y-81313040D01*
X168098240Y-81313037D01*
X167974179Y-81110589D01*
X167974178Y-81110586D01*
X167939340Y-81069797D01*
X167819969Y-80930031D01*
X167700596Y-80828076D01*
X167639413Y-80775821D01*
X167639410Y-80775820D01*
X167436962Y-80651759D01*
X167436959Y-80651757D01*
X167217596Y-80560895D01*
X166986714Y-80505465D01*
X166750000Y-80486835D01*
X166513285Y-80505465D01*
X166282404Y-80560895D01*
X166282402Y-80560895D01*
X166063040Y-80651757D01*
X166063037Y-80651759D01*
X165860589Y-80775820D01*
X165860586Y-80775821D01*
X165680031Y-80930031D01*
X165525821Y-81110586D01*
X165525820Y-81110589D01*
X165401759Y-81313037D01*
X165401757Y-81313040D01*
X165310895Y-81532402D01*
X165310895Y-81532404D01*
X165255465Y-81763285D01*
X165236835Y-82000000D01*
X161763165Y-82000000D01*
X161744535Y-81763289D01*
X161689105Y-81532406D01*
X161689104Y-81532403D01*
X161689104Y-81532402D01*
X161598242Y-81313040D01*
X161598240Y-81313037D01*
X161474179Y-81110589D01*
X161474178Y-81110586D01*
X161439340Y-81069797D01*
X161319969Y-80930031D01*
X161200596Y-80828076D01*
X161139413Y-80775821D01*
X161139410Y-80775820D01*
X160936962Y-80651759D01*
X160936959Y-80651757D01*
X160717596Y-80560895D01*
X160486714Y-80505465D01*
X160250000Y-80486835D01*
X160013285Y-80505465D01*
X159782404Y-80560895D01*
X159782402Y-80560895D01*
X159563040Y-80651757D01*
X159563037Y-80651759D01*
X159360589Y-80775820D01*
X159360586Y-80775821D01*
X159180031Y-80930031D01*
X159025821Y-81110586D01*
X159025820Y-81110589D01*
X158901759Y-81313037D01*
X158901757Y-81313040D01*
X158810895Y-81532402D01*
X158810895Y-81532404D01*
X158755465Y-81763285D01*
X158736835Y-82000000D01*
X136775905Y-82000000D01*
X127261146Y-72485242D01*
X127227661Y-72423919D01*
X127231786Y-72356606D01*
X127293215Y-72181054D01*
X127293218Y-72181041D01*
X127313616Y-72000003D01*
X127313616Y-71999996D01*
X127293218Y-71818958D01*
X127293217Y-71818953D01*
X127265588Y-71739994D01*
X145161844Y-71739994D01*
X145161844Y-71740005D01*
X145180434Y-71964359D01*
X145180436Y-71964371D01*
X145235703Y-72182614D01*
X145326140Y-72388792D01*
X145449276Y-72577265D01*
X145449284Y-72577276D01*
X145601756Y-72742902D01*
X145601760Y-72742906D01*
X145779424Y-72881189D01*
X145779429Y-72881191D01*
X145779431Y-72881193D01*
X145815930Y-72900946D01*
X145865520Y-72950165D01*
X145880628Y-73018382D01*
X145856457Y-73083937D01*
X145815930Y-73119054D01*
X145779431Y-73138806D01*
X145779422Y-73138812D01*
X145601761Y-73277092D01*
X145601756Y-73277097D01*
X145449284Y-73442723D01*
X145449276Y-73442734D01*
X145326140Y-73631207D01*
X145235703Y-73837385D01*
X145180436Y-74055628D01*
X145180434Y-74055640D01*
X145161844Y-74279994D01*
X145161844Y-74280005D01*
X145180434Y-74504359D01*
X145180436Y-74504371D01*
X145235703Y-74722614D01*
X145326140Y-74928792D01*
X145449276Y-75117265D01*
X145449284Y-75117276D01*
X145593316Y-75273734D01*
X145601760Y-75282906D01*
X145779424Y-75421189D01*
X145822693Y-75444605D01*
X145822695Y-75444606D01*
X145872286Y-75493825D01*
X145887394Y-75562042D01*
X145863224Y-75627597D01*
X145834802Y-75655236D01*
X145653922Y-75781890D01*
X145653920Y-75781891D01*
X145486891Y-75948920D01*
X145486886Y-75948926D01*
X145351400Y-76142420D01*
X145351399Y-76142422D01*
X145251570Y-76356507D01*
X145251567Y-76356513D01*
X145194364Y-76569999D01*
X145194364Y-76570000D01*
X146091988Y-76570000D01*
X146059075Y-76627007D01*
X146025000Y-76754174D01*
X146025000Y-76885826D01*
X146059075Y-77012993D01*
X146091988Y-77070000D01*
X145194364Y-77070000D01*
X145251567Y-77283486D01*
X145251570Y-77283492D01*
X145351399Y-77497578D01*
X145486894Y-77691082D01*
X145653917Y-77858105D01*
X145847421Y-77993600D01*
X146061507Y-78093429D01*
X146061516Y-78093433D01*
X146275000Y-78150634D01*
X146275000Y-77253012D01*
X146332007Y-77285925D01*
X146459174Y-77320000D01*
X146590826Y-77320000D01*
X146717993Y-77285925D01*
X146775000Y-77253012D01*
X146775000Y-78150633D01*
X146988483Y-78093433D01*
X146988492Y-78093429D01*
X147202578Y-77993600D01*
X147396082Y-77858105D01*
X147563105Y-77691082D01*
X147698600Y-77497578D01*
X147798429Y-77283492D01*
X147798432Y-77283486D01*
X147855636Y-77070000D01*
X146958012Y-77070000D01*
X146990925Y-77012993D01*
X147025000Y-76885826D01*
X147025000Y-76754174D01*
X146990925Y-76627007D01*
X146958012Y-76570000D01*
X147855636Y-76570000D01*
X147855635Y-76569999D01*
X147798432Y-76356513D01*
X147798429Y-76356507D01*
X147698600Y-76142422D01*
X147698599Y-76142420D01*
X147563113Y-75948926D01*
X147563108Y-75948920D01*
X147396082Y-75781894D01*
X147215197Y-75655236D01*
X147171572Y-75600659D01*
X147164380Y-75531160D01*
X147195902Y-75468806D01*
X147227300Y-75444608D01*
X147270576Y-75421189D01*
X147448240Y-75282906D01*
X147600722Y-75117268D01*
X147723860Y-74928791D01*
X147814296Y-74722616D01*
X147869564Y-74504368D01*
X147888156Y-74280000D01*
X147869564Y-74055632D01*
X147814296Y-73837384D01*
X147723860Y-73631209D01*
X147600722Y-73442732D01*
X147600719Y-73442729D01*
X147600715Y-73442723D01*
X147448243Y-73277097D01*
X147448238Y-73277092D01*
X147270577Y-73138812D01*
X147270578Y-73138812D01*
X147270576Y-73138811D01*
X147234070Y-73119055D01*
X147184479Y-73069836D01*
X147169371Y-73001619D01*
X147193541Y-72936064D01*
X147234070Y-72900945D01*
X147234084Y-72900936D01*
X147270576Y-72881189D01*
X147448240Y-72742906D01*
X147600722Y-72577268D01*
X147723860Y-72388791D01*
X147814296Y-72182616D01*
X147869564Y-71964368D01*
X147869565Y-71964359D01*
X147888156Y-71740005D01*
X147888156Y-71739994D01*
X147869565Y-71515640D01*
X147869563Y-71515628D01*
X147814296Y-71297385D01*
X147800949Y-71266957D01*
X147723860Y-71091209D01*
X147600722Y-70902732D01*
X147600719Y-70902729D01*
X147600715Y-70902723D01*
X147455510Y-70744991D01*
X147424587Y-70682337D01*
X147432447Y-70612911D01*
X147476594Y-70558755D01*
X147503405Y-70544827D01*
X147583584Y-70514920D01*
X147621204Y-70500889D01*
X147738261Y-70413261D01*
X147825889Y-70296204D01*
X147876989Y-70159201D01*
X147880591Y-70125692D01*
X147883499Y-70098654D01*
X147883500Y-70098637D01*
X147883500Y-68301362D01*
X147883499Y-68301345D01*
X147880157Y-68270270D01*
X147876989Y-68240799D01*
X147825889Y-68103796D01*
X147738261Y-67986739D01*
X147621204Y-67899111D01*
X147484203Y-67848011D01*
X147423654Y-67841500D01*
X147423638Y-67841500D01*
X145626362Y-67841500D01*
X145626345Y-67841500D01*
X145565797Y-67848011D01*
X145565795Y-67848011D01*
X145428795Y-67899111D01*
X145311739Y-67986739D01*
X145224111Y-68103795D01*
X145173011Y-68240795D01*
X145173011Y-68240797D01*
X145166500Y-68301345D01*
X145166500Y-70098654D01*
X145173011Y-70159202D01*
X145173011Y-70159204D01*
X145208094Y-70253261D01*
X145224111Y-70296204D01*
X145311739Y-70413261D01*
X145428796Y-70500889D01*
X145480737Y-70520262D01*
X145546595Y-70544827D01*
X145602528Y-70586699D01*
X145626944Y-70652163D01*
X145612092Y-70720436D01*
X145594490Y-70744991D01*
X145449279Y-70902730D01*
X145449276Y-70902734D01*
X145326140Y-71091207D01*
X145235703Y-71297385D01*
X145180436Y-71515628D01*
X145180434Y-71515640D01*
X145161844Y-71739994D01*
X127265588Y-71739994D01*
X127263082Y-71732833D01*
X127233043Y-71646985D01*
X127136111Y-71492719D01*
X127007281Y-71363889D01*
X126853015Y-71266957D01*
X126798693Y-71247949D01*
X126681046Y-71206782D01*
X126681041Y-71206781D01*
X126500004Y-71186384D01*
X126499996Y-71186384D01*
X126318958Y-71206781D01*
X126318953Y-71206782D01*
X126146982Y-71266958D01*
X125992718Y-71363889D01*
X125863889Y-71492718D01*
X125766958Y-71646982D01*
X125706782Y-71818953D01*
X125706781Y-71818958D01*
X125686384Y-71999996D01*
X100075500Y-71999996D01*
X100075500Y-64579995D01*
X100686429Y-64579995D01*
X100686429Y-64580004D01*
X100706683Y-64850289D01*
X100706684Y-64850294D01*
X100766997Y-65114545D01*
X100766999Y-65114554D01*
X100767001Y-65114559D01*
X100866029Y-65366879D01*
X101001557Y-65601621D01*
X101170558Y-65813542D01*
X101369257Y-65997907D01*
X101593215Y-66150599D01*
X101837428Y-66268206D01*
X102096442Y-66348101D01*
X102096443Y-66348101D01*
X102096446Y-66348102D01*
X102364464Y-66388499D01*
X102364469Y-66388499D01*
X102364472Y-66388500D01*
X102364473Y-66388500D01*
X102635527Y-66388500D01*
X102635528Y-66388500D01*
X102635535Y-66388499D01*
X102903553Y-66348102D01*
X102903554Y-66348101D01*
X102903558Y-66348101D01*
X103162572Y-66268206D01*
X103406786Y-66150599D01*
X103630743Y-65997907D01*
X103829442Y-65813542D01*
X103998443Y-65601621D01*
X104133971Y-65366879D01*
X104232999Y-65114559D01*
X104293315Y-64850299D01*
X104297289Y-64797268D01*
X104313571Y-64580004D01*
X104313571Y-64579995D01*
X104293316Y-64309710D01*
X104293315Y-64309705D01*
X104293315Y-64309701D01*
X104232999Y-64045441D01*
X104199464Y-63959994D01*
X121636844Y-63959994D01*
X121636844Y-63960005D01*
X121655434Y-64184359D01*
X121655436Y-64184371D01*
X121710703Y-64402614D01*
X121801140Y-64608792D01*
X121924276Y-64797265D01*
X121924284Y-64797276D01*
X122076756Y-64962902D01*
X122076760Y-64962906D01*
X122254424Y-65101189D01*
X122254429Y-65101191D01*
X122254431Y-65101193D01*
X122290930Y-65120946D01*
X122340520Y-65170165D01*
X122355628Y-65238382D01*
X122331457Y-65303937D01*
X122290930Y-65339054D01*
X122254431Y-65358806D01*
X122254422Y-65358812D01*
X122076761Y-65497092D01*
X122076756Y-65497097D01*
X121924284Y-65662723D01*
X121924276Y-65662734D01*
X121801140Y-65851207D01*
X121710703Y-66057385D01*
X121655436Y-66275628D01*
X121655434Y-66275640D01*
X121636844Y-66499994D01*
X121636844Y-66500005D01*
X121655434Y-66724359D01*
X121655436Y-66724371D01*
X121710703Y-66942614D01*
X121801140Y-67148792D01*
X121924276Y-67337265D01*
X121924284Y-67337276D01*
X122069489Y-67495008D01*
X122100412Y-67557662D01*
X122092552Y-67627088D01*
X122048405Y-67681244D01*
X122021596Y-67695172D01*
X121903794Y-67739111D01*
X121786739Y-67826739D01*
X121699111Y-67943795D01*
X121648011Y-68080795D01*
X121648011Y-68080797D01*
X121641500Y-68141345D01*
X121641500Y-69938654D01*
X121648011Y-69999202D01*
X121648011Y-69999204D01*
X121685099Y-70098637D01*
X121699111Y-70136204D01*
X121786739Y-70253261D01*
X121903796Y-70340889D01*
X122040799Y-70391989D01*
X122068050Y-70394918D01*
X122101345Y-70398499D01*
X122101362Y-70398500D01*
X123898638Y-70398500D01*
X123898654Y-70398499D01*
X123925692Y-70395591D01*
X123959201Y-70391989D01*
X124096204Y-70340889D01*
X124213261Y-70253261D01*
X124300889Y-70136204D01*
X124351989Y-69999201D01*
X124355591Y-69965692D01*
X124358499Y-69938654D01*
X124358500Y-69938637D01*
X124358500Y-68141362D01*
X124358499Y-68141345D01*
X124354461Y-68103795D01*
X124351989Y-68080799D01*
X124300889Y-67943796D01*
X124213261Y-67826739D01*
X124096204Y-67739111D01*
X123978404Y-67695172D01*
X123922471Y-67653300D01*
X123898055Y-67587835D01*
X123912908Y-67519562D01*
X123930504Y-67495014D01*
X124075722Y-67337268D01*
X124198860Y-67148791D01*
X124289296Y-66942616D01*
X124344564Y-66724368D01*
X124363156Y-66500000D01*
X124350569Y-66348102D01*
X124344565Y-66275640D01*
X124344563Y-66275628D01*
X124289296Y-66057385D01*
X124263206Y-65997906D01*
X124198860Y-65851209D01*
X124181967Y-65825353D01*
X124087687Y-65681046D01*
X124075722Y-65662732D01*
X124075719Y-65662729D01*
X124075715Y-65662723D01*
X123923243Y-65497097D01*
X123923238Y-65497092D01*
X123804797Y-65404905D01*
X123745576Y-65358811D01*
X123709070Y-65339055D01*
X123659479Y-65289836D01*
X123644371Y-65221619D01*
X123668541Y-65156064D01*
X123709070Y-65120945D01*
X123709084Y-65120936D01*
X123745576Y-65101189D01*
X123923240Y-64962906D01*
X124075722Y-64797268D01*
X124198860Y-64608791D01*
X124289296Y-64402616D01*
X124344564Y-64184368D01*
X124363156Y-63960000D01*
X124344564Y-63735632D01*
X124289296Y-63517384D01*
X124198860Y-63311209D01*
X124075722Y-63122732D01*
X124075719Y-63122729D01*
X124075715Y-63122723D01*
X123923243Y-62957097D01*
X123923238Y-62957092D01*
X123745577Y-62818812D01*
X123745577Y-62818811D01*
X123702303Y-62795393D01*
X123652713Y-62746173D01*
X123637605Y-62677957D01*
X123661775Y-62612401D01*
X123690198Y-62584763D01*
X123871079Y-62458108D01*
X124038105Y-62291082D01*
X124173600Y-62097578D01*
X124273429Y-61883492D01*
X124273432Y-61883486D01*
X124330636Y-61670000D01*
X123433012Y-61670000D01*
X123465925Y-61612993D01*
X123500000Y-61485826D01*
X123500000Y-61354174D01*
X123465925Y-61227007D01*
X123433012Y-61170000D01*
X124330636Y-61170000D01*
X124330635Y-61169999D01*
X124273432Y-60956513D01*
X124273429Y-60956507D01*
X124173600Y-60742422D01*
X124173599Y-60742420D01*
X124038113Y-60548926D01*
X124038108Y-60548920D01*
X123871082Y-60381894D01*
X123677578Y-60246399D01*
X123463492Y-60146570D01*
X123463486Y-60146567D01*
X123250000Y-60089364D01*
X123250000Y-60986988D01*
X123192993Y-60954075D01*
X123065826Y-60920000D01*
X122934174Y-60920000D01*
X122807007Y-60954075D01*
X122750000Y-60986988D01*
X122750000Y-60089364D01*
X122749999Y-60089364D01*
X122536513Y-60146567D01*
X122536507Y-60146570D01*
X122322422Y-60246399D01*
X122322420Y-60246400D01*
X122128926Y-60381886D01*
X122128920Y-60381891D01*
X121961891Y-60548920D01*
X121961886Y-60548926D01*
X121826400Y-60742420D01*
X121826399Y-60742422D01*
X121726570Y-60956507D01*
X121726567Y-60956513D01*
X121669364Y-61169999D01*
X121669364Y-61170000D01*
X122566988Y-61170000D01*
X122534075Y-61227007D01*
X122500000Y-61354174D01*
X122500000Y-61485826D01*
X122534075Y-61612993D01*
X122566988Y-61670000D01*
X121669364Y-61670000D01*
X121726567Y-61883486D01*
X121726570Y-61883492D01*
X121826399Y-62097578D01*
X121961894Y-62291082D01*
X122128917Y-62458105D01*
X122309802Y-62584763D01*
X122353427Y-62639340D01*
X122360619Y-62708839D01*
X122329097Y-62771193D01*
X122297697Y-62795392D01*
X122254427Y-62818809D01*
X122254422Y-62818812D01*
X122076761Y-62957092D01*
X122076756Y-62957097D01*
X121924284Y-63122723D01*
X121924276Y-63122734D01*
X121801140Y-63311207D01*
X121710703Y-63517385D01*
X121655436Y-63735628D01*
X121655434Y-63735640D01*
X121636844Y-63959994D01*
X104199464Y-63959994D01*
X104133971Y-63793121D01*
X103998443Y-63558379D01*
X103829442Y-63346458D01*
X103630743Y-63162093D01*
X103406786Y-63009401D01*
X103406780Y-63009398D01*
X103406779Y-63009397D01*
X103406778Y-63009396D01*
X103162574Y-62891795D01*
X103162576Y-62891795D01*
X102903559Y-62811899D01*
X102903553Y-62811897D01*
X102635535Y-62771500D01*
X102635528Y-62771500D01*
X102364472Y-62771500D01*
X102364464Y-62771500D01*
X102096446Y-62811897D01*
X102096440Y-62811899D01*
X101837427Y-62891794D01*
X101593219Y-63009398D01*
X101369256Y-63162093D01*
X101170560Y-63346456D01*
X101170558Y-63346458D01*
X101001557Y-63558379D01*
X100866029Y-63793120D01*
X100767003Y-64045435D01*
X100766997Y-64045454D01*
X100706684Y-64309705D01*
X100706683Y-64309710D01*
X100686429Y-64579995D01*
X100075500Y-64579995D01*
X100075500Y-58152155D01*
X100700000Y-58152155D01*
X100700000Y-59250000D01*
X101899999Y-59250000D01*
X101874979Y-59310402D01*
X101850000Y-59435981D01*
X101850000Y-59564019D01*
X101874979Y-59689598D01*
X101899999Y-59750000D01*
X100700000Y-59750000D01*
X100700000Y-60847844D01*
X100706401Y-60907372D01*
X100706403Y-60907379D01*
X100756645Y-61042086D01*
X100756649Y-61042093D01*
X100842809Y-61157187D01*
X100842812Y-61157190D01*
X100957906Y-61243350D01*
X100957913Y-61243354D01*
X101092620Y-61293596D01*
X101092627Y-61293598D01*
X101152155Y-61299999D01*
X101152172Y-61300000D01*
X102250000Y-61300000D01*
X102250000Y-60100001D01*
X102310402Y-60125021D01*
X102435981Y-60150000D01*
X102564019Y-60150000D01*
X102689598Y-60125021D01*
X102750000Y-60100001D01*
X102750000Y-61300000D01*
X103847828Y-61300000D01*
X103847844Y-61299999D01*
X103907372Y-61293598D01*
X103907379Y-61293596D01*
X104042086Y-61243354D01*
X104042093Y-61243350D01*
X104157187Y-61157190D01*
X104157190Y-61157187D01*
X104243350Y-61042093D01*
X104243354Y-61042086D01*
X104293596Y-60907379D01*
X104293598Y-60907372D01*
X104299999Y-60847844D01*
X104300000Y-60847827D01*
X104300000Y-59750000D01*
X103100001Y-59750000D01*
X103125021Y-59689598D01*
X103150000Y-59564019D01*
X103150000Y-59435981D01*
X103125021Y-59310402D01*
X103100001Y-59250000D01*
X104300000Y-59250000D01*
X104300000Y-59014994D01*
X135636844Y-59014994D01*
X135636844Y-59015005D01*
X135655434Y-59239359D01*
X135655436Y-59239371D01*
X135710703Y-59457614D01*
X135801140Y-59663792D01*
X135924276Y-59852265D01*
X135924284Y-59852276D01*
X136060276Y-60000000D01*
X136076760Y-60017906D01*
X136254424Y-60156189D01*
X136297693Y-60179605D01*
X136297695Y-60179606D01*
X136347286Y-60228825D01*
X136362394Y-60297042D01*
X136338224Y-60362597D01*
X136309802Y-60390236D01*
X136128922Y-60516890D01*
X136128920Y-60516891D01*
X135961891Y-60683920D01*
X135961886Y-60683926D01*
X135826400Y-60877420D01*
X135826399Y-60877422D01*
X135726570Y-61091507D01*
X135726567Y-61091513D01*
X135669364Y-61304999D01*
X135669364Y-61305000D01*
X136566988Y-61305000D01*
X136534075Y-61362007D01*
X136500000Y-61489174D01*
X136500000Y-61620826D01*
X136534075Y-61747993D01*
X136566988Y-61805000D01*
X135669364Y-61805000D01*
X135726567Y-62018486D01*
X135726570Y-62018492D01*
X135826399Y-62232578D01*
X135961894Y-62426082D01*
X136128917Y-62593105D01*
X136322421Y-62728600D01*
X136536507Y-62828429D01*
X136536516Y-62828433D01*
X136750000Y-62885634D01*
X136750000Y-61988012D01*
X136807007Y-62020925D01*
X136934174Y-62055000D01*
X137065826Y-62055000D01*
X137192993Y-62020925D01*
X137250000Y-61988012D01*
X137250000Y-62885633D01*
X137463483Y-62828433D01*
X137463492Y-62828429D01*
X137677578Y-62728600D01*
X137871082Y-62593105D01*
X138038105Y-62426082D01*
X138173600Y-62232578D01*
X138273429Y-62018492D01*
X138273432Y-62018486D01*
X138330636Y-61805000D01*
X137433012Y-61805000D01*
X137465925Y-61747993D01*
X137500000Y-61620826D01*
X137500000Y-61489174D01*
X137465925Y-61362007D01*
X137433012Y-61305000D01*
X138330636Y-61305000D01*
X138330635Y-61304999D01*
X138273432Y-61091513D01*
X138273429Y-61091507D01*
X138173600Y-60877422D01*
X138173599Y-60877420D01*
X138038113Y-60683926D01*
X138038108Y-60683920D01*
X137871082Y-60516894D01*
X137690197Y-60390236D01*
X137646572Y-60335659D01*
X137639380Y-60266160D01*
X137670902Y-60203806D01*
X137702300Y-60179608D01*
X137745576Y-60156189D01*
X137923240Y-60017906D01*
X138052708Y-59877268D01*
X138075715Y-59852276D01*
X138075716Y-59852274D01*
X138075722Y-59852268D01*
X138198860Y-59663791D01*
X138289296Y-59457616D01*
X138344564Y-59239368D01*
X138344909Y-59235202D01*
X138363156Y-59015005D01*
X138363156Y-59014994D01*
X139636844Y-59014994D01*
X139636844Y-59015005D01*
X139655434Y-59239359D01*
X139655436Y-59239371D01*
X139710703Y-59457614D01*
X139801140Y-59663792D01*
X139924276Y-59852265D01*
X139924284Y-59852276D01*
X140060276Y-60000000D01*
X140076760Y-60017906D01*
X140254424Y-60156189D01*
X140297693Y-60179605D01*
X140297695Y-60179606D01*
X140347286Y-60228825D01*
X140362394Y-60297042D01*
X140338224Y-60362597D01*
X140309802Y-60390236D01*
X140128922Y-60516890D01*
X140128920Y-60516891D01*
X139961891Y-60683920D01*
X139961886Y-60683926D01*
X139826400Y-60877420D01*
X139826399Y-60877422D01*
X139726570Y-61091507D01*
X139726567Y-61091513D01*
X139669364Y-61304999D01*
X139669364Y-61305000D01*
X140566988Y-61305000D01*
X140534075Y-61362007D01*
X140500000Y-61489174D01*
X140500000Y-61620826D01*
X140534075Y-61747993D01*
X140566988Y-61805000D01*
X139669364Y-61805000D01*
X139726567Y-62018486D01*
X139726570Y-62018492D01*
X139826399Y-62232578D01*
X139961894Y-62426082D01*
X140128917Y-62593105D01*
X140322421Y-62728600D01*
X140536507Y-62828429D01*
X140536516Y-62828433D01*
X140750000Y-62885634D01*
X140750000Y-61988012D01*
X140807007Y-62020925D01*
X140934174Y-62055000D01*
X141065826Y-62055000D01*
X141192993Y-62020925D01*
X141250000Y-61988012D01*
X141250000Y-62885633D01*
X141463483Y-62828433D01*
X141463492Y-62828429D01*
X141677578Y-62728600D01*
X141871082Y-62593105D01*
X142038105Y-62426082D01*
X142173600Y-62232578D01*
X142273429Y-62018492D01*
X142273432Y-62018486D01*
X142330636Y-61805000D01*
X141433012Y-61805000D01*
X141465925Y-61747993D01*
X141500000Y-61620826D01*
X141500000Y-61489174D01*
X141465925Y-61362007D01*
X141433012Y-61305000D01*
X142330636Y-61305000D01*
X142330635Y-61304999D01*
X142273432Y-61091513D01*
X142273429Y-61091507D01*
X142173600Y-60877422D01*
X142173599Y-60877420D01*
X142038113Y-60683926D01*
X142038108Y-60683920D01*
X141871082Y-60516894D01*
X141690197Y-60390236D01*
X141646572Y-60335659D01*
X141639380Y-60266160D01*
X141670902Y-60203806D01*
X141702300Y-60179608D01*
X141745576Y-60156189D01*
X141923240Y-60017906D01*
X141975461Y-59961178D01*
X142035345Y-59925191D01*
X142105183Y-59927291D01*
X142162799Y-59966815D01*
X142189901Y-60031214D01*
X142189908Y-60031281D01*
X142206781Y-60181041D01*
X142206782Y-60181046D01*
X142266958Y-60353017D01*
X142295537Y-60398500D01*
X142363889Y-60507281D01*
X142492719Y-60636111D01*
X142646985Y-60733043D01*
X142818953Y-60793217D01*
X142818958Y-60793218D01*
X142999996Y-60813616D01*
X143000000Y-60813616D01*
X143000004Y-60813616D01*
X143181041Y-60793218D01*
X143181044Y-60793217D01*
X143181047Y-60793217D01*
X143353015Y-60733043D01*
X143507281Y-60636111D01*
X143636111Y-60507281D01*
X143733043Y-60353015D01*
X143793217Y-60181047D01*
X143793218Y-60181041D01*
X143813616Y-60000003D01*
X143813616Y-59999996D01*
X143793218Y-59818958D01*
X143793217Y-59818953D01*
X143769089Y-59750000D01*
X143733043Y-59646985D01*
X143652506Y-59518811D01*
X143633500Y-59452839D01*
X143633500Y-59014994D01*
X144136844Y-59014994D01*
X144136844Y-59015005D01*
X144155434Y-59239359D01*
X144155436Y-59239371D01*
X144210703Y-59457614D01*
X144301140Y-59663792D01*
X144424276Y-59852265D01*
X144424284Y-59852276D01*
X144560276Y-60000000D01*
X144576760Y-60017906D01*
X144754424Y-60156189D01*
X144797693Y-60179605D01*
X144797695Y-60179606D01*
X144847286Y-60228825D01*
X144862394Y-60297042D01*
X144838224Y-60362597D01*
X144809802Y-60390236D01*
X144628922Y-60516890D01*
X144628920Y-60516891D01*
X144461891Y-60683920D01*
X144461886Y-60683926D01*
X144326400Y-60877420D01*
X144326399Y-60877422D01*
X144226570Y-61091507D01*
X144226567Y-61091513D01*
X144169364Y-61304999D01*
X144169364Y-61305000D01*
X145066988Y-61305000D01*
X145034075Y-61362007D01*
X145000000Y-61489174D01*
X145000000Y-61620826D01*
X145034075Y-61747993D01*
X145066988Y-61805000D01*
X144169364Y-61805000D01*
X144226567Y-62018486D01*
X144226570Y-62018492D01*
X144326399Y-62232578D01*
X144461894Y-62426082D01*
X144628917Y-62593105D01*
X144822421Y-62728600D01*
X145036507Y-62828429D01*
X145036516Y-62828433D01*
X145250000Y-62885634D01*
X145250000Y-61988012D01*
X145307007Y-62020925D01*
X145434174Y-62055000D01*
X145565826Y-62055000D01*
X145692993Y-62020925D01*
X145750000Y-61988012D01*
X145750000Y-62885633D01*
X145963483Y-62828433D01*
X145963492Y-62828429D01*
X146177578Y-62728600D01*
X146371082Y-62593105D01*
X146538105Y-62426082D01*
X146655998Y-62257715D01*
X146710575Y-62214091D01*
X146780074Y-62206898D01*
X146842428Y-62238420D01*
X146845254Y-62241158D01*
X150166151Y-65562055D01*
X150199636Y-65623378D01*
X150201690Y-65635852D01*
X150206781Y-65681042D01*
X150206782Y-65681046D01*
X150244569Y-65789034D01*
X150266957Y-65853015D01*
X150363889Y-66007281D01*
X150492719Y-66136111D01*
X150646985Y-66233043D01*
X150768721Y-66275640D01*
X150818953Y-66293217D01*
X150818958Y-66293218D01*
X150999996Y-66313616D01*
X151000000Y-66313616D01*
X151000004Y-66313616D01*
X151181041Y-66293218D01*
X151181044Y-66293217D01*
X151181047Y-66293217D01*
X151353015Y-66233043D01*
X151507281Y-66136111D01*
X151636111Y-66007281D01*
X151733043Y-65853015D01*
X151733042Y-65853015D01*
X151736748Y-65847119D01*
X151739802Y-65849038D01*
X151774682Y-65808749D01*
X151841712Y-65789034D01*
X151908760Y-65808688D01*
X151929449Y-65825353D01*
X153830181Y-67726085D01*
X153863666Y-67787408D01*
X153866500Y-67813766D01*
X153866500Y-71491232D01*
X153846815Y-71558271D01*
X153830181Y-71578913D01*
X153598819Y-71810274D01*
X153537496Y-71843759D01*
X153467804Y-71838775D01*
X153411871Y-71796903D01*
X153387562Y-71732833D01*
X153369565Y-71515639D01*
X153369563Y-71515628D01*
X153314296Y-71297385D01*
X153300949Y-71266957D01*
X153223860Y-71091209D01*
X153100722Y-70902732D01*
X153100719Y-70902729D01*
X153100715Y-70902723D01*
X152955510Y-70744991D01*
X152924587Y-70682337D01*
X152932447Y-70612911D01*
X152976594Y-70558755D01*
X153003405Y-70544827D01*
X153083584Y-70514920D01*
X153121204Y-70500889D01*
X153238261Y-70413261D01*
X153325889Y-70296204D01*
X153376989Y-70159201D01*
X153380591Y-70125692D01*
X153383499Y-70098654D01*
X153383500Y-70098637D01*
X153383500Y-68301362D01*
X153383499Y-68301345D01*
X153380157Y-68270270D01*
X153376989Y-68240799D01*
X153325889Y-68103796D01*
X153238261Y-67986739D01*
X153121204Y-67899111D01*
X152984203Y-67848011D01*
X152923654Y-67841500D01*
X152923638Y-67841500D01*
X151126362Y-67841500D01*
X151126345Y-67841500D01*
X151065797Y-67848011D01*
X151065795Y-67848011D01*
X150928795Y-67899111D01*
X150811739Y-67986739D01*
X150724111Y-68103795D01*
X150673011Y-68240795D01*
X150673011Y-68240797D01*
X150666500Y-68301345D01*
X150666500Y-70098654D01*
X150673011Y-70159202D01*
X150673011Y-70159204D01*
X150708094Y-70253261D01*
X150724111Y-70296204D01*
X150811739Y-70413261D01*
X150928796Y-70500889D01*
X150980737Y-70520262D01*
X151046595Y-70544827D01*
X151102528Y-70586699D01*
X151126944Y-70652163D01*
X151112092Y-70720436D01*
X151094490Y-70744991D01*
X150949279Y-70902730D01*
X150949276Y-70902734D01*
X150826140Y-71091207D01*
X150735703Y-71297385D01*
X150680436Y-71515628D01*
X150680434Y-71515640D01*
X150661844Y-71739994D01*
X150661844Y-71740005D01*
X150680434Y-71964359D01*
X150680436Y-71964371D01*
X150735703Y-72182614D01*
X150826140Y-72388792D01*
X150949276Y-72577265D01*
X150949284Y-72577276D01*
X151101756Y-72742902D01*
X151101760Y-72742906D01*
X151279424Y-72881189D01*
X151279429Y-72881191D01*
X151279431Y-72881193D01*
X151315930Y-72900946D01*
X151365520Y-72950165D01*
X151380628Y-73018382D01*
X151356457Y-73083937D01*
X151315930Y-73119054D01*
X151279431Y-73138806D01*
X151279422Y-73138812D01*
X151101761Y-73277092D01*
X151101756Y-73277097D01*
X150949284Y-73442723D01*
X150949276Y-73442734D01*
X150826140Y-73631207D01*
X150735703Y-73837385D01*
X150680436Y-74055628D01*
X150680434Y-74055640D01*
X150661844Y-74279994D01*
X150661844Y-74280005D01*
X150680434Y-74504359D01*
X150680436Y-74504371D01*
X150735703Y-74722614D01*
X150826140Y-74928792D01*
X150949276Y-75117265D01*
X150949284Y-75117276D01*
X151093316Y-75273734D01*
X151101760Y-75282906D01*
X151279424Y-75421189D01*
X151322693Y-75444605D01*
X151322695Y-75444606D01*
X151372286Y-75493825D01*
X151387394Y-75562042D01*
X151363224Y-75627597D01*
X151334802Y-75655236D01*
X151153922Y-75781890D01*
X151153920Y-75781891D01*
X150986891Y-75948920D01*
X150986886Y-75948926D01*
X150851400Y-76142420D01*
X150851399Y-76142422D01*
X150751570Y-76356507D01*
X150751567Y-76356513D01*
X150694364Y-76569999D01*
X150694364Y-76570000D01*
X151591988Y-76570000D01*
X151559075Y-76627007D01*
X151525000Y-76754174D01*
X151525000Y-76885826D01*
X151559075Y-77012993D01*
X151591988Y-77070000D01*
X150694364Y-77070000D01*
X150751567Y-77283486D01*
X150751570Y-77283492D01*
X150851399Y-77497578D01*
X150986894Y-77691082D01*
X151153917Y-77858105D01*
X151347421Y-77993600D01*
X151561507Y-78093429D01*
X151561516Y-78093433D01*
X151775000Y-78150634D01*
X151775000Y-77253012D01*
X151832007Y-77285925D01*
X151959174Y-77320000D01*
X152090826Y-77320000D01*
X152217993Y-77285925D01*
X152275000Y-77253012D01*
X152275000Y-78150633D01*
X152488483Y-78093433D01*
X152488492Y-78093429D01*
X152702578Y-77993600D01*
X152896082Y-77858105D01*
X153063105Y-77691082D01*
X153198600Y-77497578D01*
X153298429Y-77283492D01*
X153298432Y-77283486D01*
X153355636Y-77070000D01*
X152458012Y-77070000D01*
X152490925Y-77012993D01*
X152525000Y-76885826D01*
X152525000Y-76754174D01*
X152490925Y-76627007D01*
X152458012Y-76570000D01*
X153355636Y-76570000D01*
X153355635Y-76569999D01*
X153298432Y-76356513D01*
X153298429Y-76356507D01*
X153198600Y-76142422D01*
X153198599Y-76142420D01*
X153063113Y-75948926D01*
X153063108Y-75948920D01*
X152896082Y-75781894D01*
X152715197Y-75655236D01*
X152671572Y-75600659D01*
X152664380Y-75531160D01*
X152695902Y-75468806D01*
X152727300Y-75444608D01*
X152770576Y-75421189D01*
X152948240Y-75282906D01*
X153100722Y-75117268D01*
X153223860Y-74928791D01*
X153314296Y-74722616D01*
X153369564Y-74504368D01*
X153388156Y-74280000D01*
X153369564Y-74055632D01*
X153341538Y-73944960D01*
X153344163Y-73875140D01*
X153374061Y-73826841D01*
X154992072Y-72208833D01*
X155061401Y-72105075D01*
X155095168Y-72023552D01*
X155109155Y-71989785D01*
X155133500Y-71867394D01*
X155133500Y-67437606D01*
X155109155Y-67315215D01*
X155061400Y-67199925D01*
X155061399Y-67199924D01*
X155061396Y-67199918D01*
X154992072Y-67096168D01*
X154992071Y-67096167D01*
X154903833Y-67007929D01*
X152669819Y-64773915D01*
X152636334Y-64712592D01*
X152633500Y-64686234D01*
X152633500Y-59039994D01*
X153136844Y-59039994D01*
X153136844Y-59040005D01*
X153155434Y-59264359D01*
X153155436Y-59264371D01*
X153210703Y-59482614D01*
X153301140Y-59688792D01*
X153424276Y-59877265D01*
X153424284Y-59877276D01*
X153566058Y-60031281D01*
X153576760Y-60042906D01*
X153754424Y-60181189D01*
X153796217Y-60203806D01*
X153797695Y-60204606D01*
X153847286Y-60253825D01*
X153862394Y-60322042D01*
X153838224Y-60387597D01*
X153809802Y-60415236D01*
X153628922Y-60541890D01*
X153628920Y-60541891D01*
X153461891Y-60708920D01*
X153461886Y-60708926D01*
X153326400Y-60902420D01*
X153326399Y-60902422D01*
X153226570Y-61116507D01*
X153226567Y-61116513D01*
X153169364Y-61329999D01*
X153169364Y-61330000D01*
X154066988Y-61330000D01*
X154034075Y-61387007D01*
X154000000Y-61514174D01*
X154000000Y-61645826D01*
X154034075Y-61772993D01*
X154066988Y-61830000D01*
X153169364Y-61830000D01*
X153226567Y-62043486D01*
X153226570Y-62043492D01*
X153326399Y-62257578D01*
X153461894Y-62451082D01*
X153628917Y-62618105D01*
X153822421Y-62753600D01*
X154036507Y-62853429D01*
X154036516Y-62853433D01*
X154250000Y-62910634D01*
X154250000Y-62013012D01*
X154307007Y-62045925D01*
X154434174Y-62080000D01*
X154565826Y-62080000D01*
X154692993Y-62045925D01*
X154750000Y-62013012D01*
X154750000Y-62910633D01*
X154963483Y-62853433D01*
X154963492Y-62853429D01*
X155177578Y-62753600D01*
X155371082Y-62618105D01*
X155538105Y-62451082D01*
X155673600Y-62257578D01*
X155773429Y-62043492D01*
X155773432Y-62043486D01*
X155830636Y-61830000D01*
X154933012Y-61830000D01*
X154965925Y-61772993D01*
X155000000Y-61645826D01*
X155000000Y-61514174D01*
X154965925Y-61387007D01*
X154933012Y-61330000D01*
X155830636Y-61330000D01*
X155830635Y-61329999D01*
X155773432Y-61116513D01*
X155773429Y-61116507D01*
X155673600Y-60902422D01*
X155673599Y-60902420D01*
X155538113Y-60708926D01*
X155538108Y-60708920D01*
X155371082Y-60541894D01*
X155190197Y-60415236D01*
X155146572Y-60360659D01*
X155139380Y-60291160D01*
X155170902Y-60228806D01*
X155202300Y-60204608D01*
X155245576Y-60181189D01*
X155423240Y-60042906D01*
X155575722Y-59877268D01*
X155698860Y-59688791D01*
X155789296Y-59482616D01*
X155844564Y-59264368D01*
X155845755Y-59250000D01*
X155863156Y-59040005D01*
X155863156Y-59039994D01*
X155844565Y-58815640D01*
X155844563Y-58815628D01*
X155789296Y-58597385D01*
X155778330Y-58572385D01*
X155698860Y-58391209D01*
X155682525Y-58366207D01*
X155622358Y-58274114D01*
X155575722Y-58202732D01*
X155575719Y-58202729D01*
X155575715Y-58202723D01*
X155430510Y-58044991D01*
X155399587Y-57982337D01*
X155407447Y-57912911D01*
X155451594Y-57858755D01*
X155478405Y-57844827D01*
X155558584Y-57814920D01*
X155596204Y-57800889D01*
X155713261Y-57713261D01*
X155800889Y-57596204D01*
X155851989Y-57459201D01*
X155855591Y-57425692D01*
X155858499Y-57398654D01*
X155858500Y-57398637D01*
X155858500Y-55601362D01*
X155858499Y-55601345D01*
X155855157Y-55570270D01*
X155851989Y-55540799D01*
X155848610Y-55531740D01*
X155818994Y-55452337D01*
X155800889Y-55403796D01*
X155713261Y-55286739D01*
X155596204Y-55199111D01*
X155459203Y-55148011D01*
X155398654Y-55141500D01*
X155398638Y-55141500D01*
X153601362Y-55141500D01*
X153601345Y-55141500D01*
X153540797Y-55148011D01*
X153540795Y-55148011D01*
X153403795Y-55199111D01*
X153286739Y-55286739D01*
X153199111Y-55403795D01*
X153148011Y-55540795D01*
X153148011Y-55540797D01*
X153141500Y-55601345D01*
X153141500Y-57398654D01*
X153148011Y-57459202D01*
X153148011Y-57459204D01*
X153189786Y-57571204D01*
X153199111Y-57596204D01*
X153286739Y-57713261D01*
X153403796Y-57800889D01*
X153454568Y-57819826D01*
X153521595Y-57844827D01*
X153577528Y-57886699D01*
X153601944Y-57952163D01*
X153587092Y-58020436D01*
X153569490Y-58044991D01*
X153424279Y-58202730D01*
X153424276Y-58202734D01*
X153301140Y-58391207D01*
X153210703Y-58597385D01*
X153155436Y-58815628D01*
X153155434Y-58815640D01*
X153136844Y-59039994D01*
X152633500Y-59039994D01*
X152633500Y-53047160D01*
X152652507Y-52981188D01*
X152733039Y-52853022D01*
X152733041Y-52853019D01*
X152733041Y-52853017D01*
X152733043Y-52853015D01*
X152793217Y-52681047D01*
X152813616Y-52500000D01*
X152793217Y-52318953D01*
X152733043Y-52146985D01*
X152636111Y-51992719D01*
X152507281Y-51863889D01*
X152353015Y-51766957D01*
X152298693Y-51747949D01*
X152181046Y-51706782D01*
X152181041Y-51706781D01*
X152000004Y-51686384D01*
X151999996Y-51686384D01*
X151818958Y-51706781D01*
X151818953Y-51706782D01*
X151646982Y-51766958D01*
X151492718Y-51863889D01*
X151363889Y-51992718D01*
X151266958Y-52146982D01*
X151206782Y-52318953D01*
X151206781Y-52318958D01*
X151186384Y-52499996D01*
X151186384Y-52500003D01*
X151206781Y-52681041D01*
X151206782Y-52681046D01*
X151266958Y-52853019D01*
X151266960Y-52853022D01*
X151347493Y-52981188D01*
X151366500Y-53047160D01*
X151366500Y-55409002D01*
X151346815Y-55476041D01*
X151294011Y-55521796D01*
X151224853Y-55531740D01*
X151161297Y-55502715D01*
X151126319Y-55452337D01*
X151110155Y-55409002D01*
X151098889Y-55378796D01*
X151011261Y-55261739D01*
X150894204Y-55174111D01*
X150757203Y-55123011D01*
X150696654Y-55116500D01*
X150696638Y-55116500D01*
X148899362Y-55116500D01*
X148899345Y-55116500D01*
X148838797Y-55123011D01*
X148838795Y-55123011D01*
X148701795Y-55174111D01*
X148584739Y-55261739D01*
X148497111Y-55378795D01*
X148446011Y-55515795D01*
X148446011Y-55515797D01*
X148439500Y-55576345D01*
X148439500Y-57373654D01*
X148446011Y-57434202D01*
X148446011Y-57434204D01*
X148470554Y-57500003D01*
X148497111Y-57571204D01*
X148584739Y-57688261D01*
X148701796Y-57775889D01*
X148753737Y-57795262D01*
X148819595Y-57819827D01*
X148875528Y-57861699D01*
X148899944Y-57927163D01*
X148885092Y-57995436D01*
X148867490Y-58019991D01*
X148722279Y-58177730D01*
X148722276Y-58177734D01*
X148599140Y-58366207D01*
X148508703Y-58572385D01*
X148453436Y-58790628D01*
X148453434Y-58790640D01*
X148434844Y-59014994D01*
X148434844Y-59015005D01*
X148453434Y-59239359D01*
X148453436Y-59239371D01*
X148508703Y-59457614D01*
X148599140Y-59663792D01*
X148722276Y-59852265D01*
X148722284Y-59852276D01*
X148858276Y-60000000D01*
X148874760Y-60017906D01*
X149052424Y-60156189D01*
X149095693Y-60179605D01*
X149095695Y-60179606D01*
X149145286Y-60228825D01*
X149160394Y-60297042D01*
X149136224Y-60362597D01*
X149107802Y-60390236D01*
X148926922Y-60516890D01*
X148926920Y-60516891D01*
X148759891Y-60683920D01*
X148759886Y-60683926D01*
X148624400Y-60877420D01*
X148624399Y-60877422D01*
X148524570Y-61091507D01*
X148524567Y-61091513D01*
X148467364Y-61304999D01*
X148467364Y-61305000D01*
X149364988Y-61305000D01*
X149332075Y-61362007D01*
X149298000Y-61489174D01*
X149298000Y-61620826D01*
X149332075Y-61747993D01*
X149364988Y-61805000D01*
X148467363Y-61805000D01*
X148437748Y-61843594D01*
X148381320Y-61884797D01*
X148311574Y-61888951D01*
X148251693Y-61855788D01*
X147344819Y-60948914D01*
X147311334Y-60887591D01*
X147308500Y-60861233D01*
X147308500Y-50434558D01*
X147328185Y-50367519D01*
X147380989Y-50321764D01*
X147450147Y-50311820D01*
X147508663Y-50336705D01*
X147514424Y-50341189D01*
X147514425Y-50341189D01*
X147514427Y-50341191D01*
X147574314Y-50373600D01*
X147712426Y-50448342D01*
X147925365Y-50521444D01*
X148147431Y-50558500D01*
X148372569Y-50558500D01*
X148594635Y-50521444D01*
X148807574Y-50448342D01*
X149005576Y-50341189D01*
X149183240Y-50202906D01*
X149304594Y-50071082D01*
X149335715Y-50037276D01*
X149335715Y-50037275D01*
X149335722Y-50037268D01*
X149426193Y-49898790D01*
X149479338Y-49853437D01*
X149548569Y-49844013D01*
X149611905Y-49873515D01*
X149633804Y-49898787D01*
X149724278Y-50037268D01*
X149724283Y-50037273D01*
X149724284Y-50037276D01*
X149848499Y-50172207D01*
X149876760Y-50202906D01*
X150054424Y-50341189D01*
X150054425Y-50341189D01*
X150054427Y-50341191D01*
X150114314Y-50373600D01*
X150252426Y-50448342D01*
X150465365Y-50521444D01*
X150687431Y-50558500D01*
X150912569Y-50558500D01*
X151134635Y-50521444D01*
X151347574Y-50448342D01*
X151545576Y-50341189D01*
X151723240Y-50202906D01*
X151844594Y-50071082D01*
X151875715Y-50037276D01*
X151875715Y-50037275D01*
X151875722Y-50037268D01*
X151966193Y-49898790D01*
X152019338Y-49853437D01*
X152088569Y-49844013D01*
X152151905Y-49873515D01*
X152173804Y-49898787D01*
X152264278Y-50037268D01*
X152264283Y-50037273D01*
X152264284Y-50037276D01*
X152388499Y-50172207D01*
X152416760Y-50202906D01*
X152594424Y-50341189D01*
X152594425Y-50341189D01*
X152594427Y-50341191D01*
X152654314Y-50373600D01*
X152792426Y-50448342D01*
X153005365Y-50521444D01*
X153227431Y-50558500D01*
X153452569Y-50558500D01*
X153674635Y-50521444D01*
X153887574Y-50448342D01*
X154085576Y-50341189D01*
X154263240Y-50202906D01*
X154384594Y-50071082D01*
X154415715Y-50037276D01*
X154415715Y-50037275D01*
X154415722Y-50037268D01*
X154506193Y-49898790D01*
X154559338Y-49853437D01*
X154628569Y-49844013D01*
X154691905Y-49873515D01*
X154713804Y-49898787D01*
X154804278Y-50037268D01*
X154804283Y-50037273D01*
X154804284Y-50037276D01*
X154928499Y-50172207D01*
X154956760Y-50202906D01*
X155134424Y-50341189D01*
X155134425Y-50341189D01*
X155134427Y-50341191D01*
X155194314Y-50373600D01*
X155332426Y-50448342D01*
X155545365Y-50521444D01*
X155767431Y-50558500D01*
X155992569Y-50558500D01*
X156214635Y-50521444D01*
X156427574Y-50448342D01*
X156625576Y-50341189D01*
X156803240Y-50202906D01*
X156924594Y-50071082D01*
X156955715Y-50037276D01*
X156955715Y-50037275D01*
X156955722Y-50037268D01*
X157046193Y-49898790D01*
X157099338Y-49853437D01*
X157168569Y-49844013D01*
X157231905Y-49873515D01*
X157253804Y-49898787D01*
X157344278Y-50037268D01*
X157344283Y-50037273D01*
X157344284Y-50037276D01*
X157468499Y-50172207D01*
X157496760Y-50202906D01*
X157674424Y-50341189D01*
X157674425Y-50341189D01*
X157674427Y-50341191D01*
X157734314Y-50373600D01*
X157872426Y-50448342D01*
X158085365Y-50521444D01*
X158307431Y-50558500D01*
X158532569Y-50558500D01*
X158754635Y-50521444D01*
X158967574Y-50448342D01*
X159165576Y-50341189D01*
X159343240Y-50202906D01*
X159464594Y-50071082D01*
X159495715Y-50037276D01*
X159495715Y-50037275D01*
X159495722Y-50037268D01*
X159586193Y-49898790D01*
X159639338Y-49853437D01*
X159708569Y-49844013D01*
X159771905Y-49873515D01*
X159793804Y-49898787D01*
X159884278Y-50037268D01*
X159884283Y-50037273D01*
X159884284Y-50037276D01*
X160008499Y-50172207D01*
X160036760Y-50202906D01*
X160214424Y-50341189D01*
X160214425Y-50341189D01*
X160214427Y-50341191D01*
X160274314Y-50373600D01*
X160412426Y-50448342D01*
X160625365Y-50521444D01*
X160847431Y-50558500D01*
X161072569Y-50558500D01*
X161294635Y-50521444D01*
X161507574Y-50448342D01*
X161705576Y-50341189D01*
X161883240Y-50202906D01*
X162004594Y-50071082D01*
X162035715Y-50037276D01*
X162035715Y-50037275D01*
X162035722Y-50037268D01*
X162126193Y-49898790D01*
X162179338Y-49853437D01*
X162248569Y-49844013D01*
X162311905Y-49873515D01*
X162333804Y-49898787D01*
X162424278Y-50037268D01*
X162424283Y-50037273D01*
X162424284Y-50037276D01*
X162548499Y-50172207D01*
X162576760Y-50202906D01*
X162754424Y-50341189D01*
X162754425Y-50341189D01*
X162754427Y-50341191D01*
X162814314Y-50373600D01*
X162952426Y-50448342D01*
X163165365Y-50521444D01*
X163387431Y-50558500D01*
X163612569Y-50558500D01*
X163834635Y-50521444D01*
X164047574Y-50448342D01*
X164245576Y-50341189D01*
X164423240Y-50202906D01*
X164544594Y-50071082D01*
X164575715Y-50037276D01*
X164575717Y-50037273D01*
X164575722Y-50037268D01*
X164698860Y-49848791D01*
X164789296Y-49642616D01*
X164844564Y-49424368D01*
X164856309Y-49282635D01*
X164863156Y-49200005D01*
X164863156Y-49199994D01*
X164844565Y-48975640D01*
X164844563Y-48975628D01*
X164789296Y-48757385D01*
X164779071Y-48734075D01*
X164698860Y-48551209D01*
X164682706Y-48526484D01*
X164575723Y-48362734D01*
X164575715Y-48362723D01*
X164423243Y-48197097D01*
X164423238Y-48197092D01*
X164245577Y-48058812D01*
X164245572Y-48058808D01*
X164047580Y-47951661D01*
X164047577Y-47951659D01*
X164047574Y-47951658D01*
X164047571Y-47951657D01*
X164047569Y-47951656D01*
X163834637Y-47878556D01*
X163612569Y-47841500D01*
X163387431Y-47841500D01*
X163165362Y-47878556D01*
X162952430Y-47951656D01*
X162952419Y-47951661D01*
X162754427Y-48058808D01*
X162754422Y-48058812D01*
X162576761Y-48197092D01*
X162576756Y-48197097D01*
X162424284Y-48362723D01*
X162424276Y-48362734D01*
X162333808Y-48501206D01*
X162280662Y-48546562D01*
X162211431Y-48555986D01*
X162148095Y-48526484D01*
X162126192Y-48501206D01*
X162035723Y-48362734D01*
X162035715Y-48362723D01*
X161883243Y-48197097D01*
X161883238Y-48197092D01*
X161705577Y-48058812D01*
X161705572Y-48058808D01*
X161507580Y-47951661D01*
X161507577Y-47951659D01*
X161507574Y-47951658D01*
X161507571Y-47951657D01*
X161507569Y-47951656D01*
X161294637Y-47878556D01*
X161072569Y-47841500D01*
X160847431Y-47841500D01*
X160625362Y-47878556D01*
X160412430Y-47951656D01*
X160412419Y-47951661D01*
X160214427Y-48058808D01*
X160214422Y-48058812D01*
X160036761Y-48197092D01*
X160036756Y-48197097D01*
X159884284Y-48362723D01*
X159884276Y-48362734D01*
X159793808Y-48501206D01*
X159740662Y-48546562D01*
X159671431Y-48555986D01*
X159608095Y-48526484D01*
X159586192Y-48501206D01*
X159495723Y-48362734D01*
X159495715Y-48362723D01*
X159343243Y-48197097D01*
X159343238Y-48197092D01*
X159165577Y-48058812D01*
X159165572Y-48058808D01*
X158967580Y-47951661D01*
X158967577Y-47951659D01*
X158967574Y-47951658D01*
X158967571Y-47951657D01*
X158967569Y-47951656D01*
X158754637Y-47878556D01*
X158532569Y-47841500D01*
X158307431Y-47841500D01*
X158085362Y-47878556D01*
X157872430Y-47951656D01*
X157872419Y-47951661D01*
X157674427Y-48058808D01*
X157674422Y-48058812D01*
X157496761Y-48197092D01*
X157496756Y-48197097D01*
X157344284Y-48362723D01*
X157344276Y-48362734D01*
X157253808Y-48501206D01*
X157200662Y-48546562D01*
X157131431Y-48555986D01*
X157068095Y-48526484D01*
X157046192Y-48501206D01*
X156955723Y-48362734D01*
X156955715Y-48362723D01*
X156803243Y-48197097D01*
X156803238Y-48197092D01*
X156625577Y-48058812D01*
X156625572Y-48058808D01*
X156427580Y-47951661D01*
X156427577Y-47951659D01*
X156427574Y-47951658D01*
X156427571Y-47951657D01*
X156427569Y-47951656D01*
X156214637Y-47878556D01*
X155992569Y-47841500D01*
X155767431Y-47841500D01*
X155545362Y-47878556D01*
X155332430Y-47951656D01*
X155332419Y-47951661D01*
X155134427Y-48058808D01*
X155134422Y-48058812D01*
X154956761Y-48197092D01*
X154956756Y-48197097D01*
X154804284Y-48362723D01*
X154804276Y-48362734D01*
X154713808Y-48501206D01*
X154660662Y-48546562D01*
X154591431Y-48555986D01*
X154528095Y-48526484D01*
X154506192Y-48501206D01*
X154415723Y-48362734D01*
X154415715Y-48362723D01*
X154263243Y-48197097D01*
X154263238Y-48197092D01*
X154085577Y-48058812D01*
X154085572Y-48058808D01*
X153887580Y-47951661D01*
X153887577Y-47951659D01*
X153887574Y-47951658D01*
X153887571Y-47951657D01*
X153887569Y-47951656D01*
X153674637Y-47878556D01*
X153452569Y-47841500D01*
X153227431Y-47841500D01*
X153005362Y-47878556D01*
X152792430Y-47951656D01*
X152792419Y-47951661D01*
X152594427Y-48058808D01*
X152594422Y-48058812D01*
X152416761Y-48197092D01*
X152416756Y-48197097D01*
X152264284Y-48362723D01*
X152264276Y-48362734D01*
X152173808Y-48501206D01*
X152120662Y-48546562D01*
X152051431Y-48555986D01*
X151988095Y-48526484D01*
X151966192Y-48501206D01*
X151875723Y-48362734D01*
X151875715Y-48362723D01*
X151723243Y-48197097D01*
X151723238Y-48197092D01*
X151545577Y-48058812D01*
X151545572Y-48058808D01*
X151347580Y-47951661D01*
X151347577Y-47951659D01*
X151347574Y-47951658D01*
X151347571Y-47951657D01*
X151347569Y-47951656D01*
X151134637Y-47878556D01*
X150912569Y-47841500D01*
X150687431Y-47841500D01*
X150465362Y-47878556D01*
X150252430Y-47951656D01*
X150252419Y-47951661D01*
X150054427Y-48058808D01*
X150054422Y-48058812D01*
X149876761Y-48197092D01*
X149876756Y-48197097D01*
X149724284Y-48362723D01*
X149724276Y-48362734D01*
X149633808Y-48501206D01*
X149580662Y-48546562D01*
X149511431Y-48555986D01*
X149448095Y-48526484D01*
X149426192Y-48501206D01*
X149335723Y-48362734D01*
X149335715Y-48362723D01*
X149183243Y-48197097D01*
X149183238Y-48197092D01*
X149005577Y-48058812D01*
X149005572Y-48058808D01*
X148807580Y-47951661D01*
X148807577Y-47951659D01*
X148807574Y-47951658D01*
X148807571Y-47951657D01*
X148807569Y-47951656D01*
X148594637Y-47878556D01*
X148372569Y-47841500D01*
X148147431Y-47841500D01*
X147925362Y-47878556D01*
X147712430Y-47951656D01*
X147712419Y-47951661D01*
X147514427Y-48058808D01*
X147514422Y-48058812D01*
X147336761Y-48197092D01*
X147273548Y-48265760D01*
X147213661Y-48301750D01*
X147143823Y-48299649D01*
X147086207Y-48260124D01*
X147066138Y-48225110D01*
X147020889Y-48103796D01*
X146987214Y-48058812D01*
X146933261Y-47986739D01*
X146816204Y-47899111D01*
X146679203Y-47848011D01*
X146618654Y-47841500D01*
X146618638Y-47841500D01*
X144821362Y-47841500D01*
X144821345Y-47841500D01*
X144760797Y-47848011D01*
X144760795Y-47848011D01*
X144623795Y-47899111D01*
X144506739Y-47986739D01*
X144419111Y-48103795D01*
X144368011Y-48240795D01*
X144368011Y-48240797D01*
X144361500Y-48301345D01*
X144361500Y-50098654D01*
X144368011Y-50159202D01*
X144368011Y-50159204D01*
X144419111Y-50296204D01*
X144506739Y-50413261D01*
X144623796Y-50500889D01*
X144760799Y-50551989D01*
X144788050Y-50554918D01*
X144821345Y-50558499D01*
X144821362Y-50558500D01*
X145917500Y-50558500D01*
X145984539Y-50578185D01*
X146030294Y-50630989D01*
X146041500Y-50682500D01*
X146041500Y-54992500D01*
X146021815Y-55059539D01*
X145969011Y-55105294D01*
X145917500Y-55116500D01*
X144601345Y-55116500D01*
X144540797Y-55123011D01*
X144540795Y-55123011D01*
X144403795Y-55174111D01*
X144286739Y-55261739D01*
X144199111Y-55378795D01*
X144148011Y-55515795D01*
X144148011Y-55515797D01*
X144141500Y-55576345D01*
X144141500Y-57373654D01*
X144148011Y-57434202D01*
X144148011Y-57434204D01*
X144172554Y-57500003D01*
X144199111Y-57571204D01*
X144286739Y-57688261D01*
X144403796Y-57775889D01*
X144455737Y-57795262D01*
X144521595Y-57819827D01*
X144577528Y-57861699D01*
X144601944Y-57927163D01*
X144587092Y-57995436D01*
X144569490Y-58019991D01*
X144424279Y-58177730D01*
X144424276Y-58177734D01*
X144301140Y-58366207D01*
X144210703Y-58572385D01*
X144155436Y-58790628D01*
X144155434Y-58790640D01*
X144136844Y-59014994D01*
X143633500Y-59014994D01*
X143633500Y-58047160D01*
X143652507Y-57981188D01*
X143733039Y-57853022D01*
X143733041Y-57853019D01*
X143733041Y-57853017D01*
X143733043Y-57853015D01*
X143793217Y-57681047D01*
X143793218Y-57681041D01*
X143813616Y-57500003D01*
X143813616Y-57499996D01*
X143793218Y-57318958D01*
X143793217Y-57318953D01*
X143733043Y-57146985D01*
X143636111Y-56992719D01*
X143507281Y-56863889D01*
X143449351Y-56827489D01*
X143353017Y-56766958D01*
X143353016Y-56766957D01*
X143353015Y-56766957D01*
X143298693Y-56747949D01*
X143181046Y-56706782D01*
X143181041Y-56706781D01*
X143000004Y-56686384D01*
X142999996Y-56686384D01*
X142818958Y-56706781D01*
X142818953Y-56706782D01*
X142646982Y-56766958D01*
X142548472Y-56828857D01*
X142481236Y-56847857D01*
X142414400Y-56827489D01*
X142369186Y-56774222D01*
X142358500Y-56723863D01*
X142358500Y-55576362D01*
X142358499Y-55576345D01*
X142354676Y-55540795D01*
X142351989Y-55515799D01*
X142300889Y-55378796D01*
X142213261Y-55261739D01*
X142096204Y-55174111D01*
X141959203Y-55123011D01*
X141898654Y-55116500D01*
X141898638Y-55116500D01*
X140101362Y-55116500D01*
X140101345Y-55116500D01*
X140040797Y-55123011D01*
X140040795Y-55123011D01*
X139903795Y-55174111D01*
X139786739Y-55261739D01*
X139699111Y-55378795D01*
X139648011Y-55515795D01*
X139648011Y-55515797D01*
X139641500Y-55576345D01*
X139641500Y-57373654D01*
X139648011Y-57434202D01*
X139648011Y-57434204D01*
X139672554Y-57500003D01*
X139699111Y-57571204D01*
X139786739Y-57688261D01*
X139903796Y-57775889D01*
X139955737Y-57795262D01*
X140021595Y-57819827D01*
X140077528Y-57861699D01*
X140101944Y-57927163D01*
X140087092Y-57995436D01*
X140069490Y-58019991D01*
X139924279Y-58177730D01*
X139924276Y-58177734D01*
X139801140Y-58366207D01*
X139710703Y-58572385D01*
X139655436Y-58790628D01*
X139655434Y-58790640D01*
X139636844Y-59014994D01*
X138363156Y-59014994D01*
X138344565Y-58790640D01*
X138344563Y-58790628D01*
X138289296Y-58572385D01*
X138198859Y-58366207D01*
X138094381Y-58206292D01*
X138075722Y-58177732D01*
X138075719Y-58177729D01*
X138075715Y-58177723D01*
X137930510Y-58019991D01*
X137899587Y-57957337D01*
X137907447Y-57887911D01*
X137951594Y-57833755D01*
X137978405Y-57819827D01*
X138060251Y-57789299D01*
X138096204Y-57775889D01*
X138213261Y-57688261D01*
X138300889Y-57571204D01*
X138351989Y-57434201D01*
X138355812Y-57398637D01*
X138358499Y-57373654D01*
X138358500Y-57373637D01*
X138358500Y-55576362D01*
X138358499Y-55576345D01*
X138354676Y-55540795D01*
X138351989Y-55515799D01*
X138300889Y-55378796D01*
X138213261Y-55261739D01*
X138096204Y-55174111D01*
X137959203Y-55123011D01*
X137898654Y-55116500D01*
X137898638Y-55116500D01*
X136101362Y-55116500D01*
X136101345Y-55116500D01*
X136040797Y-55123011D01*
X136040795Y-55123011D01*
X135903795Y-55174111D01*
X135786739Y-55261739D01*
X135699111Y-55378795D01*
X135648011Y-55515795D01*
X135648011Y-55515797D01*
X135641500Y-55576345D01*
X135641500Y-57373654D01*
X135648011Y-57434202D01*
X135648011Y-57434204D01*
X135672554Y-57500003D01*
X135699111Y-57571204D01*
X135786739Y-57688261D01*
X135903796Y-57775889D01*
X135955737Y-57795262D01*
X136021595Y-57819827D01*
X136077528Y-57861699D01*
X136101944Y-57927163D01*
X136087092Y-57995436D01*
X136069490Y-58019991D01*
X135924279Y-58177730D01*
X135924276Y-58177734D01*
X135801140Y-58366207D01*
X135710703Y-58572385D01*
X135655436Y-58790628D01*
X135655434Y-58790640D01*
X135636844Y-59014994D01*
X104300000Y-59014994D01*
X104300000Y-58152172D01*
X104299999Y-58152155D01*
X104293598Y-58092627D01*
X104293596Y-58092620D01*
X104243354Y-57957913D01*
X104243350Y-57957906D01*
X104157190Y-57842812D01*
X104157187Y-57842809D01*
X104042093Y-57756649D01*
X104042086Y-57756645D01*
X103907379Y-57706403D01*
X103907372Y-57706401D01*
X103847844Y-57700000D01*
X102750000Y-57700000D01*
X102750000Y-58899998D01*
X102689598Y-58874979D01*
X102564019Y-58850000D01*
X102435981Y-58850000D01*
X102310402Y-58874979D01*
X102250000Y-58899998D01*
X102250000Y-57700000D01*
X101152155Y-57700000D01*
X101092627Y-57706401D01*
X101092620Y-57706403D01*
X100957913Y-57756645D01*
X100957906Y-57756649D01*
X100842812Y-57842809D01*
X100842809Y-57842812D01*
X100756649Y-57957906D01*
X100756645Y-57957913D01*
X100706403Y-58092620D01*
X100706401Y-58092627D01*
X100700000Y-58152155D01*
X100075500Y-58152155D01*
X100075500Y-48301345D01*
X117437500Y-48301345D01*
X117437500Y-50098654D01*
X117444011Y-50159202D01*
X117444011Y-50159204D01*
X117495111Y-50296204D01*
X117582739Y-50413261D01*
X117699796Y-50500889D01*
X117836799Y-50551989D01*
X117864050Y-50554918D01*
X117897345Y-50558499D01*
X117897362Y-50558500D01*
X119694638Y-50558500D01*
X119694654Y-50558499D01*
X119721692Y-50555591D01*
X119755201Y-50551989D01*
X119892204Y-50500889D01*
X120009261Y-50413261D01*
X120096889Y-50296204D01*
X120142138Y-50174887D01*
X120184009Y-50118956D01*
X120249474Y-50094539D01*
X120317746Y-50109391D01*
X120349545Y-50134236D01*
X120412760Y-50202906D01*
X120590424Y-50341189D01*
X120590425Y-50341189D01*
X120590427Y-50341191D01*
X120650314Y-50373600D01*
X120788426Y-50448342D01*
X121001365Y-50521444D01*
X121223431Y-50558500D01*
X121448569Y-50558500D01*
X121670635Y-50521444D01*
X121883574Y-50448342D01*
X122081576Y-50341189D01*
X122259240Y-50202906D01*
X122380594Y-50071082D01*
X122411715Y-50037276D01*
X122411715Y-50037275D01*
X122411722Y-50037268D01*
X122502193Y-49898790D01*
X122555338Y-49853437D01*
X122624569Y-49844013D01*
X122687905Y-49873515D01*
X122709804Y-49898787D01*
X122800278Y-50037268D01*
X122800283Y-50037273D01*
X122800284Y-50037276D01*
X122924499Y-50172207D01*
X122952760Y-50202906D01*
X123130424Y-50341189D01*
X123130425Y-50341189D01*
X123130427Y-50341191D01*
X123190314Y-50373600D01*
X123328426Y-50448342D01*
X123541365Y-50521444D01*
X123763431Y-50558500D01*
X123988569Y-50558500D01*
X124210635Y-50521444D01*
X124423574Y-50448342D01*
X124621576Y-50341189D01*
X124799240Y-50202906D01*
X124920594Y-50071082D01*
X124951715Y-50037276D01*
X124951715Y-50037275D01*
X124951722Y-50037268D01*
X125045749Y-49893347D01*
X125098894Y-49847994D01*
X125168125Y-49838570D01*
X125231461Y-49868072D01*
X125251130Y-49890048D01*
X125377890Y-50071078D01*
X125544917Y-50238105D01*
X125738421Y-50373600D01*
X125952507Y-50473429D01*
X125952516Y-50473433D01*
X126166000Y-50530634D01*
X126166000Y-49633012D01*
X126223007Y-49665925D01*
X126350174Y-49700000D01*
X126481826Y-49700000D01*
X126608993Y-49665925D01*
X126666000Y-49633012D01*
X126666000Y-50530633D01*
X126879483Y-50473433D01*
X126879492Y-50473429D01*
X127093578Y-50373600D01*
X127287082Y-50238105D01*
X127454105Y-50071082D01*
X127580868Y-49890048D01*
X127635445Y-49846423D01*
X127704944Y-49839231D01*
X127767298Y-49870753D01*
X127786251Y-49893350D01*
X127880276Y-50037265D01*
X127880284Y-50037276D01*
X128004499Y-50172207D01*
X128032760Y-50202906D01*
X128210424Y-50341189D01*
X128210425Y-50341189D01*
X128210427Y-50341191D01*
X128270314Y-50373600D01*
X128408426Y-50448342D01*
X128621365Y-50521444D01*
X128843431Y-50558500D01*
X129068569Y-50558500D01*
X129290635Y-50521444D01*
X129503574Y-50448342D01*
X129701576Y-50341189D01*
X129879240Y-50202906D01*
X130000594Y-50071082D01*
X130031715Y-50037276D01*
X130031715Y-50037275D01*
X130031722Y-50037268D01*
X130122193Y-49898790D01*
X130175338Y-49853437D01*
X130244569Y-49844013D01*
X130307905Y-49873515D01*
X130329804Y-49898787D01*
X130420278Y-50037268D01*
X130420283Y-50037273D01*
X130420284Y-50037276D01*
X130544499Y-50172207D01*
X130572760Y-50202906D01*
X130750424Y-50341189D01*
X130750425Y-50341189D01*
X130750427Y-50341191D01*
X130810314Y-50373600D01*
X130948426Y-50448342D01*
X131161365Y-50521444D01*
X131383431Y-50558500D01*
X131608569Y-50558500D01*
X131830635Y-50521444D01*
X132043574Y-50448342D01*
X132241576Y-50341189D01*
X132419240Y-50202906D01*
X132540594Y-50071082D01*
X132571715Y-50037276D01*
X132571715Y-50037275D01*
X132571722Y-50037268D01*
X132662193Y-49898790D01*
X132715338Y-49853437D01*
X132784569Y-49844013D01*
X132847905Y-49873515D01*
X132869804Y-49898787D01*
X132960278Y-50037268D01*
X132960283Y-50037273D01*
X132960284Y-50037276D01*
X133084499Y-50172207D01*
X133112760Y-50202906D01*
X133290424Y-50341189D01*
X133290425Y-50341189D01*
X133290427Y-50341191D01*
X133350314Y-50373600D01*
X133488426Y-50448342D01*
X133701365Y-50521444D01*
X133923431Y-50558500D01*
X134148569Y-50558500D01*
X134370635Y-50521444D01*
X134583574Y-50448342D01*
X134781576Y-50341189D01*
X134959240Y-50202906D01*
X135080594Y-50071082D01*
X135111715Y-50037276D01*
X135111715Y-50037275D01*
X135111722Y-50037268D01*
X135202193Y-49898790D01*
X135255338Y-49853437D01*
X135324569Y-49844013D01*
X135387905Y-49873515D01*
X135409804Y-49898787D01*
X135500278Y-50037268D01*
X135500283Y-50037273D01*
X135500284Y-50037276D01*
X135624499Y-50172207D01*
X135652760Y-50202906D01*
X135830424Y-50341189D01*
X135830425Y-50341189D01*
X135830427Y-50341191D01*
X135890314Y-50373600D01*
X136028426Y-50448342D01*
X136241365Y-50521444D01*
X136463431Y-50558500D01*
X136688569Y-50558500D01*
X136910635Y-50521444D01*
X137123574Y-50448342D01*
X137321576Y-50341189D01*
X137499240Y-50202906D01*
X137620594Y-50071082D01*
X137651715Y-50037276D01*
X137651715Y-50037275D01*
X137651722Y-50037268D01*
X137742193Y-49898790D01*
X137795338Y-49853437D01*
X137864569Y-49844013D01*
X137927905Y-49873515D01*
X137949804Y-49898787D01*
X138040278Y-50037268D01*
X138040283Y-50037273D01*
X138040284Y-50037276D01*
X138164499Y-50172207D01*
X138192760Y-50202906D01*
X138370424Y-50341189D01*
X138370425Y-50341189D01*
X138370427Y-50341191D01*
X138430314Y-50373600D01*
X138568426Y-50448342D01*
X138781365Y-50521444D01*
X139003431Y-50558500D01*
X139228569Y-50558500D01*
X139450635Y-50521444D01*
X139663574Y-50448342D01*
X139861576Y-50341189D01*
X140039240Y-50202906D01*
X140160594Y-50071082D01*
X140191715Y-50037276D01*
X140191715Y-50037275D01*
X140191722Y-50037268D01*
X140282193Y-49898790D01*
X140335338Y-49853437D01*
X140404569Y-49844013D01*
X140467905Y-49873515D01*
X140489804Y-49898787D01*
X140580278Y-50037268D01*
X140580283Y-50037273D01*
X140580284Y-50037276D01*
X140704499Y-50172207D01*
X140732760Y-50202906D01*
X140910424Y-50341189D01*
X140910425Y-50341189D01*
X140910427Y-50341191D01*
X140970314Y-50373600D01*
X141108426Y-50448342D01*
X141321365Y-50521444D01*
X141543431Y-50558500D01*
X141768569Y-50558500D01*
X141990635Y-50521444D01*
X142203574Y-50448342D01*
X142401576Y-50341189D01*
X142579240Y-50202906D01*
X142700594Y-50071082D01*
X142731715Y-50037276D01*
X142731717Y-50037273D01*
X142731722Y-50037268D01*
X142854860Y-49848791D01*
X142945296Y-49642616D01*
X143000564Y-49424368D01*
X143012309Y-49282635D01*
X143019156Y-49200005D01*
X143019156Y-49199994D01*
X143000565Y-48975640D01*
X143000563Y-48975628D01*
X142945296Y-48757385D01*
X142935071Y-48734075D01*
X142854860Y-48551209D01*
X142838706Y-48526484D01*
X142731723Y-48362734D01*
X142731715Y-48362723D01*
X142579243Y-48197097D01*
X142579238Y-48197092D01*
X142401577Y-48058812D01*
X142401572Y-48058808D01*
X142203580Y-47951661D01*
X142203577Y-47951659D01*
X142203574Y-47951658D01*
X142203571Y-47951657D01*
X142203569Y-47951656D01*
X141990637Y-47878556D01*
X141768569Y-47841500D01*
X141543431Y-47841500D01*
X141321362Y-47878556D01*
X141108430Y-47951656D01*
X141108419Y-47951661D01*
X140910427Y-48058808D01*
X140910422Y-48058812D01*
X140732761Y-48197092D01*
X140732756Y-48197097D01*
X140580284Y-48362723D01*
X140580276Y-48362734D01*
X140489808Y-48501206D01*
X140436662Y-48546562D01*
X140367431Y-48555986D01*
X140304095Y-48526484D01*
X140282192Y-48501206D01*
X140191723Y-48362734D01*
X140191715Y-48362723D01*
X140039243Y-48197097D01*
X140039238Y-48197092D01*
X139861577Y-48058812D01*
X139861572Y-48058808D01*
X139663580Y-47951661D01*
X139663577Y-47951659D01*
X139663574Y-47951658D01*
X139663571Y-47951657D01*
X139663569Y-47951656D01*
X139450637Y-47878556D01*
X139228569Y-47841500D01*
X139003431Y-47841500D01*
X138781362Y-47878556D01*
X138568430Y-47951656D01*
X138568419Y-47951661D01*
X138370427Y-48058808D01*
X138370422Y-48058812D01*
X138192761Y-48197092D01*
X138192756Y-48197097D01*
X138040284Y-48362723D01*
X138040276Y-48362734D01*
X137949808Y-48501206D01*
X137896662Y-48546562D01*
X137827431Y-48555986D01*
X137764095Y-48526484D01*
X137742192Y-48501206D01*
X137651723Y-48362734D01*
X137651715Y-48362723D01*
X137499243Y-48197097D01*
X137499238Y-48197092D01*
X137321577Y-48058812D01*
X137321572Y-48058808D01*
X137123580Y-47951661D01*
X137123577Y-47951659D01*
X137123574Y-47951658D01*
X137123571Y-47951657D01*
X137123569Y-47951656D01*
X136910637Y-47878556D01*
X136688569Y-47841500D01*
X136463431Y-47841500D01*
X136241362Y-47878556D01*
X136028430Y-47951656D01*
X136028419Y-47951661D01*
X135830427Y-48058808D01*
X135830422Y-48058812D01*
X135652761Y-48197092D01*
X135652756Y-48197097D01*
X135500284Y-48362723D01*
X135500276Y-48362734D01*
X135409808Y-48501206D01*
X135356662Y-48546562D01*
X135287431Y-48555986D01*
X135224095Y-48526484D01*
X135202192Y-48501206D01*
X135111723Y-48362734D01*
X135111715Y-48362723D01*
X134959243Y-48197097D01*
X134959238Y-48197092D01*
X134781577Y-48058812D01*
X134781572Y-48058808D01*
X134583580Y-47951661D01*
X134583577Y-47951659D01*
X134583574Y-47951658D01*
X134583571Y-47951657D01*
X134583569Y-47951656D01*
X134370637Y-47878556D01*
X134148569Y-47841500D01*
X133923431Y-47841500D01*
X133701362Y-47878556D01*
X133488430Y-47951656D01*
X133488419Y-47951661D01*
X133290427Y-48058808D01*
X133290422Y-48058812D01*
X133112761Y-48197092D01*
X133112756Y-48197097D01*
X132960284Y-48362723D01*
X132960276Y-48362734D01*
X132869808Y-48501206D01*
X132816662Y-48546562D01*
X132747431Y-48555986D01*
X132684095Y-48526484D01*
X132662192Y-48501206D01*
X132571723Y-48362734D01*
X132571715Y-48362723D01*
X132419243Y-48197097D01*
X132419238Y-48197092D01*
X132241577Y-48058812D01*
X132241572Y-48058808D01*
X132043580Y-47951661D01*
X132043577Y-47951659D01*
X132043574Y-47951658D01*
X132043571Y-47951657D01*
X132043569Y-47951656D01*
X131830637Y-47878556D01*
X131608569Y-47841500D01*
X131383431Y-47841500D01*
X131161362Y-47878556D01*
X130948430Y-47951656D01*
X130948419Y-47951661D01*
X130750427Y-48058808D01*
X130750422Y-48058812D01*
X130572761Y-48197092D01*
X130572756Y-48197097D01*
X130420284Y-48362723D01*
X130420276Y-48362734D01*
X130329808Y-48501206D01*
X130276662Y-48546562D01*
X130207431Y-48555986D01*
X130144095Y-48526484D01*
X130122192Y-48501206D01*
X130031723Y-48362734D01*
X130031715Y-48362723D01*
X129879243Y-48197097D01*
X129879238Y-48197092D01*
X129701577Y-48058812D01*
X129701572Y-48058808D01*
X129503580Y-47951661D01*
X129503577Y-47951659D01*
X129503574Y-47951658D01*
X129503571Y-47951657D01*
X129503569Y-47951656D01*
X129290637Y-47878556D01*
X129068569Y-47841500D01*
X128843431Y-47841500D01*
X128621362Y-47878556D01*
X128408430Y-47951656D01*
X128408419Y-47951661D01*
X128210427Y-48058808D01*
X128210422Y-48058812D01*
X128032761Y-48197092D01*
X128032756Y-48197097D01*
X127880284Y-48362723D01*
X127880276Y-48362734D01*
X127786251Y-48506650D01*
X127733105Y-48552007D01*
X127663873Y-48561430D01*
X127600538Y-48531928D01*
X127580868Y-48509951D01*
X127454113Y-48328926D01*
X127454108Y-48328920D01*
X127287082Y-48161894D01*
X127093578Y-48026399D01*
X126879492Y-47926570D01*
X126879486Y-47926567D01*
X126666000Y-47869364D01*
X126666000Y-48766988D01*
X126608993Y-48734075D01*
X126481826Y-48700000D01*
X126350174Y-48700000D01*
X126223007Y-48734075D01*
X126166000Y-48766988D01*
X126166000Y-47869364D01*
X126165999Y-47869364D01*
X125952513Y-47926567D01*
X125952507Y-47926570D01*
X125738422Y-48026399D01*
X125738420Y-48026400D01*
X125544926Y-48161886D01*
X125544920Y-48161891D01*
X125377891Y-48328920D01*
X125377890Y-48328922D01*
X125251131Y-48509952D01*
X125196554Y-48553577D01*
X125127055Y-48560769D01*
X125064701Y-48529247D01*
X125045752Y-48506656D01*
X124951722Y-48362732D01*
X124951715Y-48362725D01*
X124951715Y-48362723D01*
X124799243Y-48197097D01*
X124799238Y-48197092D01*
X124621577Y-48058812D01*
X124621572Y-48058808D01*
X124423580Y-47951661D01*
X124423577Y-47951659D01*
X124423574Y-47951658D01*
X124423571Y-47951657D01*
X124423569Y-47951656D01*
X124210637Y-47878556D01*
X123988569Y-47841500D01*
X123763431Y-47841500D01*
X123541362Y-47878556D01*
X123328430Y-47951656D01*
X123328419Y-47951661D01*
X123130427Y-48058808D01*
X123130422Y-48058812D01*
X122952761Y-48197092D01*
X122952756Y-48197097D01*
X122800284Y-48362723D01*
X122800276Y-48362734D01*
X122709808Y-48501206D01*
X122656662Y-48546562D01*
X122587431Y-48555986D01*
X122524095Y-48526484D01*
X122502192Y-48501206D01*
X122411723Y-48362734D01*
X122411715Y-48362723D01*
X122259243Y-48197097D01*
X122259238Y-48197092D01*
X122081577Y-48058812D01*
X122081572Y-48058808D01*
X121883580Y-47951661D01*
X121883577Y-47951659D01*
X121883574Y-47951658D01*
X121883571Y-47951657D01*
X121883569Y-47951656D01*
X121670637Y-47878556D01*
X121448569Y-47841500D01*
X121223431Y-47841500D01*
X121001362Y-47878556D01*
X120788430Y-47951656D01*
X120788419Y-47951661D01*
X120590427Y-48058808D01*
X120590422Y-48058812D01*
X120412761Y-48197092D01*
X120349548Y-48265760D01*
X120289661Y-48301750D01*
X120219823Y-48299649D01*
X120162207Y-48260124D01*
X120142138Y-48225110D01*
X120096889Y-48103796D01*
X120063214Y-48058812D01*
X120009261Y-47986739D01*
X119892204Y-47899111D01*
X119755203Y-47848011D01*
X119694654Y-47841500D01*
X119694638Y-47841500D01*
X117897362Y-47841500D01*
X117897345Y-47841500D01*
X117836797Y-47848011D01*
X117836795Y-47848011D01*
X117699795Y-47899111D01*
X117582739Y-47986739D01*
X117495111Y-48103795D01*
X117444011Y-48240795D01*
X117444011Y-48240797D01*
X117437500Y-48301345D01*
X100075500Y-48301345D01*
X100075500Y-47428092D01*
X100076097Y-47415938D01*
X100087494Y-47300222D01*
X100092234Y-47276389D01*
X100124216Y-47170959D01*
X100133508Y-47148526D01*
X100185442Y-47051365D01*
X100198938Y-47031166D01*
X100268827Y-46946006D01*
X100286006Y-46928827D01*
X100371166Y-46858938D01*
X100391365Y-46845442D01*
X100488526Y-46793508D01*
X100510959Y-46784216D01*
X100616389Y-46752234D01*
X100640220Y-46747494D01*
X100755939Y-46736097D01*
X100768093Y-46735500D01*
X100786531Y-46735500D01*
X163417365Y-46735500D01*
X163484404Y-46755185D01*
G37*
%TD.AperFunction*%
%TD*%
M02*
